<svg width="477" height="122" viewBox="0 0 477 122" fill="none" xmlns="http://www.w3.org/2000/svg">
<rect width="476.651" height="122" fill="white"/>
<path d="M121.577 99.8576L137.977 22.6978H30.5862L14.186 99.8576H121.577Z" fill="white"/>
<path d="M134.437 25.5391L32.8649 25.5439L32.8037 25.8827C32.8037 25.8827 92.5173 38.1432 93.7003 38.354C107.42 40.7756 106.995 43.4225 106.995 43.4225C116.609 43.3743 117.791 43.7632 119.471 45.1637C124.525 49.3864 116.309 61.8281 116.309 61.8281C115.134 62.6956 26.3071 96.9979 26.3071 96.9979H119.239L134.435 25.5403L134.437 25.5391ZM153.911 25.5391L150.052 43.7001C148.67 49.9741 152.901 52.8159 159.949 52.8159C167.024 52.8159 172.401 49.9738 173.748 43.7001C177.672 25.5381 173.706 43.7011 177.673 25.5391H171.757C171.757 25.5391 168.769 39.5108 168.251 41.9023C167.359 46.0921 165.149 48.5944 160.815 48.5944C156.288 48.5582 155.36 46.0528 156.288 41.9023C156.182 42.3209 159.808 25.5391 159.808 25.5391H153.911H153.911ZM183.339 25.5391L177.654 52.3309H182.892L187.029 32.4472H187.146L193.763 52.3309H201.199L206.874 25.5391H201.646L197.424 45.6439H197.354L190.996 25.5391H183.339ZM212.545 25.5391L206.874 52.3309H212.776L218.456 25.5391H212.545ZM222.414 25.5391L221.477 29.8028H229.812L225.026 52.3311H230.932L235.714 29.8028H244.044L244.942 25.5391H222.414H222.414ZM248.91 25.5391L243.192 52.3309H262.609L263.513 48.0672H250.03L251.564 40.7443H263.329L264.181 36.7864H252.42L253.907 29.8025H267.405L268.294 25.5388H248.91V25.5391ZM272.6 25.5391L266.929 52.3309H279.029C286.505 52.3309 293.677 47.4019 295.289 37.7605C296.439 30.9234 293.712 25.5386 285.603 25.5386H272.6V25.5391ZM317.013 25.5391C310.071 25.5391 306.619 28.004 306.104 31.8593C305.246 38.2779 316.603 42.0922 315.747 45.9354C315.22 48.1823 312.459 48.0674 310.218 48.0674H302.937L302.034 52.3311H311.079C318.479 52.3311 321.691 49.6763 322.284 46.0109C323.362 39.4357 311.826 36.0401 312.726 31.7841C313.021 30.4738 314.472 29.8028 317.686 29.8028H324.002L324.929 25.5391H317.013H317.013ZM327.964 25.5391L327.037 29.8028H335.367L330.585 52.3311H336.487L341.268 29.8028H349.603L350.502 25.5391H327.964ZM356.756 25.5391L341.404 52.3309H347.311L359.076 30.8519L361.434 48.0669H352.982L350.671 52.3306H367.999L363.82 25.5388H356.756V25.5391ZM370.338 25.5391L369.406 29.8028H377.736L372.954 52.3311H378.856L383.637 29.8028H391.962L392.866 25.5391H370.338ZM396.804 25.5391L391.082 52.3309H410.509L411.412 48.0672H397.915L399.449 40.7443H411.219L412.076 36.7864H400.311L401.807 29.8025H415.29L416.189 25.5388H396.804V25.5391ZM429.179 25.5391C422.228 25.5391 418.79 28.004 418.266 31.8593C417.407 38.2779 428.764 42.0922 427.909 45.9354C427.381 48.1823 424.615 48.0674 422.374 48.0674H415.089L414.195 52.3311H423.231C430.631 52.3311 433.848 49.6763 434.45 46.0109C435.525 39.4357 423.986 36.0401 424.878 31.7841C425.179 30.4738 426.639 29.8028 429.852 29.8028H436.154L437.1 25.5391H429.179ZM277.645 29.8028H283.669C288.557 29.8028 290.305 33.4296 289.561 37.6856C288.519 43.7035 284.669 48.0674 277.988 48.0674H273.767L277.645 29.8028ZM81.6567 42.0626C78.9638 42.0414 77.0687 42.0802 76.8518 42.0674H29.3668L17.6997 97.0172C17.6997 97.0172 53.4358 79.4793 57.8067 77.2324C66.7613 72.633 79.1447 66.5549 90.5887 62.6575C92.7693 61.9197 102.11 59.0388 107.55 58.069C109.658 57.6926 110.556 57.3341 110.529 56.9396C110.447 55.8132 108.326 55.7389 104.736 55.9136C93.7813 56.4288 72.7898 64.789 66.7466 67.9758L59.9273 46.8356H103.511C104.979 42.7233 89.7359 42.1259 81.6567 42.0626ZM104.764 47.1547C104.447 47.1547 104.176 47.3684 103.808 47.8655C103.474 48.2961 103.203 48.5862 102.335 49.023C100.989 49.6857 97.4696 50.0562 95.8222 50.1948C94.2408 50.3273 93.8114 50.4871 93.7844 51.0984C93.7693 51.6437 94.0201 51.955 96.288 51.955C101.508 51.955 110.903 49.9861 113.734 50.8866C115.228 51.3656 114.028 54.0272 112.802 57.5273C112.326 58.8795 113.257 58.7841 113.8 58.1907C114.342 57.5943 116.777 53.1342 117.042 50.8632C117.419 47.6373 114.651 47.1549 110.835 47.1549H104.764V47.1547ZM181.983 69.7206C173.691 69.7206 166.782 74.0535 164.758 83.5803C163.159 91.2006 167.793 97.4729 176.048 97.4729C184.419 97.4729 191.142 93.333 193.235 83.5803C194.949 75.6259 190.202 69.7206 181.983 69.7206ZM418.471 69.7206C410.248 69.7206 402.335 73.9751 400.314 83.5803C398.263 93.1795 404.348 97.4729 412.574 97.4729C414.848 97.4729 417.028 97.216 419.191 96.8847L420.645 92.2774C418.518 92.8044 416.267 93.2186 413.463 93.2186C408.12 93.2186 405.103 89.6343 406.371 83.5803C407.642 77.5263 412.197 73.9752 417.534 73.9752C420.269 73.9752 422.131 74.3484 423.812 74.8363L424.339 70.3184C422.438 69.984 420.458 69.7208 418.471 69.7208V69.7206ZM207.673 70.2006C200.719 70.2006 197.276 72.6687 196.755 76.5208C195.897 82.9483 207.252 86.7571 206.403 90.6064C205.879 92.8472 203.109 92.7335 200.868 92.7335H193.583L192.68 96.9926H201.73C209.127 96.9926 212.339 94.3397 212.935 90.6772C214.019 84.1049 202.478 80.7017 203.372 76.4457C203.67 75.1356 205.129 74.4645 208.351 74.4645H214.653L215.594 70.2008H207.674L207.673 70.2006ZM218.62 70.2006L217.688 74.4643H226.018L221.237 96.9926H227.138L231.929 74.4643H240.254L241.144 70.2006H218.62H218.62ZM304.855 70.2006C297.901 70.2006 294.46 72.6687 293.942 76.5208C293.077 82.9483 304.434 86.7571 303.585 90.6064C303.061 92.8472 300.291 92.7335 298.05 92.7335H290.765L289.867 96.9926H298.912C306.306 96.9926 309.521 94.3397 310.117 90.6772C311.201 84.1049 299.662 80.7017 300.545 76.4457C300.846 75.1356 302.31 74.4645 305.524 74.4645H311.834L312.766 70.2008H304.855V70.2006ZM317.882 70.2006L312.164 96.9924H331.596L332.49 92.7333H319.002L320.536 85.4058H332.306L333.163 81.4433H321.398L322.885 74.464H336.377L337.267 70.2003H317.882L317.882 70.2006ZM341.559 70.2006L335.878 96.9924H341.78L346.561 74.4265H351.865C355.151 74.4265 355.447 76.2536 355.112 77.9372C354.483 81.1118 351.715 82.3799 348.689 82.3799C348.128 82.3799 347.188 82.4192 346.444 82.3047L351.305 96.9926H357.767L353.357 85.4437C357.282 84.8863 360.65 82.0864 361.014 77.0384C361.357 72.5535 359.265 70.2001 354.039 70.2001H341.559V70.2006ZM429.107 70.2006L423.403 96.9924H442.831L443.724 92.7333H430.242L431.771 85.4058H443.541L444.398 81.4433H432.632L434.129 74.464H447.612L448.506 70.2003H429.107V70.2006ZM144.443 70.2054L138.763 96.9924H144.669L149.45 74.464H154.265C156.439 74.464 157.925 75.544 157.295 78.4596C156.964 80.065 155.5 82.8317 151.465 82.8317C150.57 82.8317 149.601 82.7187 148.857 82.6435L149.154 86.5354C150.009 86.6106 151.022 86.7518 151.959 86.7518C157.263 86.7518 161.931 83.6926 163.018 78.6053C163.726 75.2469 163.052 70.2049 157.263 70.2049H144.443L144.443 70.2054ZM247.451 70.2054L232.109 96.9924H238.001L249.781 75.5088L252.125 92.7333H243.686L241.371 96.9924H258.699L254.524 70.2054H247.451ZM267.457 70.2054L261.781 96.9924H279.905L280.837 92.7333H268.619L273.401 70.2049H267.457V70.2054ZM364.15 70.2054L368.183 96.9924H375.162L390.415 70.2054H384.584L372.819 91.6938L370.052 70.2054H364.15H364.15ZM393.973 70.2054L388.297 96.9924H394.199L399.879 70.2054H393.973H393.973ZM181.05 73.9764C186.505 73.9764 188.339 78.1572 187.183 83.5816C185.902 89.6356 182.32 93.2198 176.98 93.2198C171.447 93.2198 169.615 88.7741 170.772 83.5816C172.154 77.5275 175.71 73.9764 181.05 73.9764H181.05Z" fill="#15569C"/>
<path d="M146.547 60.2808L146.128 62.2686H450.213L450.623 60.2808H146.568H146.547Z" fill="#ED192D"/>
</svg>
