<svg width="183" height="119" viewBox="0 0 183 119" fill="none" xmlns="http://www.w3.org/2000/svg">
<rect width="183" height="119" rx="13" fill="#22154A"/>
<path d="M178.805 58.6278C178.814 87.6863 155.263 111.247 126.205 111.255C97.1458 111.262 73.5854 87.713 73.5776 58.6545C73.5776 58.645 73.5776 58.6373 73.5776 58.6278C73.5699 29.5699 97.1203 6.00772 126.178 6C155.237 5.99228 178.798 29.5426 178.805 58.6011C178.805 58.61 178.805 58.6183 178.805 58.6278Z" fill="#FF9900"/>
<path d="M55.2751 6.01394C26.3888 6.19742 3 29.6985 3 58.6281C3 87.6705 26.5711 111.242 55.6141 111.242C69.2449 111.242 81.6697 106.047 91.0192 97.533C91.0186 97.533 91.0174 97.5318 91.015 97.5307H91.0263C92.9407 95.7861 94.7263 93.9037 96.3676 91.8966H85.5883C84.1489 90.158 82.8407 88.3463 81.6656 86.477H100.256C101.387 84.6676 102.411 82.7888 103.319 80.8429H78.5962C77.7536 79.0366 77.022 77.1892 76.3973 75.3152H105.521C107.276 70.0707 108.228 64.4598 108.228 58.6275C108.228 54.7606 107.809 50.9906 107.016 47.3606H74.8528C75.2513 45.4925 75.7542 43.647 76.354 41.8335H105.488C104.836 39.9036 104.08 38.023 103.22 36.2H78.5932C79.4816 34.3022 80.4881 32.4561 81.6121 30.6735H100.189C98.953 28.7038 97.5849 26.8221 96.1057 25.0395H85.748C87.3495 23.1547 89.1125 21.3798 91.0263 19.7249C81.6763 11.2097 69.2479 6.01394 55.6141 6.01394C55.5007 6.01394 55.3885 6.01334 55.2751 6.01394Z" fill="#CC0000"/>
<path d="M173.527 86.1331C173.813 86.1331 174.091 86.2073 174.363 86.3534C174.636 86.4994 174.847 86.7102 174.999 86.984C175.151 87.2548 175.227 87.5404 175.227 87.8361C175.227 88.1282 175.151 88.4109 175.002 88.6817C174.853 88.9518 174.642 89.1627 174.372 89.3129C174.104 89.4607 173.821 89.5356 173.526 89.5356C173.232 89.5356 172.949 89.4607 172.679 89.3129C172.409 89.1621 172.2 88.9524 172.048 88.6817C171.898 88.4109 171.824 88.1282 171.824 87.8361C171.824 87.5404 171.9 87.2548 172.052 86.984C172.205 86.7102 172.417 86.5012 172.688 86.3534C172.963 86.2073 173.241 86.1331 173.527 86.1331ZM173.527 86.4151C173.289 86.4151 173.056 86.4769 172.828 86.5998C172.603 86.7227 172.426 86.8967 172.299 87.1271C172.17 87.3539 172.106 87.5891 172.106 87.8361C172.106 88.0807 172.169 88.3171 172.293 88.5415C172.42 88.7654 172.596 88.9412 172.821 89.067C173.047 89.1923 173.281 89.2541 173.526 89.2541C173.772 89.2541 174.007 89.1923 174.232 89.067C174.457 88.9412 174.632 88.7654 174.757 88.5415C174.881 88.3171 174.943 88.0813 174.943 87.8361C174.943 87.5891 174.88 87.3533 174.752 87.1271C174.626 86.8967 174.449 86.7227 174.221 86.5998C173.996 86.4763 173.765 86.4151 173.527 86.4151ZM172.781 88.7755V86.9454H173.411C173.625 86.9454 173.781 86.962 173.877 86.9976C173.973 87.0315 174.05 87.0891 174.107 87.174C174.164 87.2577 174.193 87.3468 174.193 87.4418C174.193 87.576 174.145 87.6924 174.049 87.791C173.955 87.8895 173.828 87.9459 173.67 87.9578C173.734 87.9845 173.786 88.0184 173.827 88.0552C173.901 88.1265 173.99 88.247 174.097 88.4174L174.319 88.7755H173.96L173.798 88.4875C173.67 88.2607 173.568 88.1193 173.489 88.0611C173.435 88.0202 173.356 87.9988 173.253 87.9988H173.079V88.7773H172.782L172.781 88.7755ZM173.077 87.7452H173.435C173.606 87.7452 173.722 87.7191 173.784 87.6686C173.847 87.6164 173.879 87.5499 173.879 87.4655C173.879 87.4109 173.865 87.3622 173.834 87.3207C173.803 87.2773 173.762 87.2464 173.708 87.2245C173.655 87.2037 173.556 87.1918 173.413 87.1918H173.078V87.7452" fill="#FCB340"/>
<path d="M73.0735 73.7224L73.7742 68.9601C73.3911 68.9601 72.8282 69.1258 72.3306 69.1258C70.3806 69.1258 70.1371 68.0837 70.2903 67.3224L72.2119 57.7443H75.1761L75.7872 52.3389H72.9933L73.5622 49.0635H67.7179C67.5944 49.187 64.4116 67.4845 64.4116 69.7137C64.4116 73.0123 66.2631 74.4801 68.8747 74.457C70.9185 74.4398 72.5117 73.8739 73.0735 73.7224Z" fill="#000066"/>
<path d="M74.8477 64.6445C74.8477 72.5611 80.0726 74.4417 84.5249 74.4417C88.6346 74.4417 90.7896 73.4892 90.7896 73.4892L91.7765 68.0856C91.7765 68.0856 88.3039 69.4977 85.4815 69.4977C79.4657 69.4977 80.5203 65.0121 80.5203 65.0121L92.0775 65.0471C92.0775 65.0471 92.8132 61.4184 92.8132 59.9392C92.8132 56.2475 90.802 51.7156 84.6514 51.7156C79.0186 51.7168 74.8477 57.786 74.8477 64.6445ZM84.6728 56.732C87.8342 56.732 87.2511 60.2854 87.2511 60.5734H81.0315C81.0315 60.2052 81.6188 56.732 84.6728 56.732Z" fill="#000066"/>
<path d="M120.145 73.7208L121.148 67.6141C121.148 67.6141 118.398 68.9923 116.512 68.9923C112.538 68.9923 110.944 65.958 110.944 62.6974C110.944 56.0842 114.363 52.4453 118.169 52.4453C121.024 52.4453 123.314 54.048 123.314 54.048L124.229 48.1141C124.229 48.1141 121.525 46.1611 118.614 46.1498C109.858 46.1154 104.848 52.2114 104.848 62.7496C104.848 69.7346 108.558 74.488 115.243 74.488C117.133 74.488 120.145 73.7208 120.145 73.7208Z" fill="#000066"/>
<path d="M42.2617 51.8027C38.4203 51.8027 35.4763 53.0373 35.4763 53.0373L34.6627 57.8631C34.6627 57.8631 37.0932 56.8756 40.7677 56.8756C42.8537 56.8756 44.3798 57.1102 44.3798 58.8055C44.3798 59.8351 44.1933 60.2152 44.1933 60.2152C44.1933 60.2152 42.5473 60.078 41.7849 60.078C36.3159 60.078 31.8511 62.1456 31.8511 68.3794C31.8511 73.292 35.19 74.4184 37.2595 74.4184C41.2124 74.4184 42.7771 71.9226 42.8674 71.9155L42.8216 73.9867C42.8216 73.9867 47.7538 73.9867 47.7544 73.9867L49.955 58.5596C49.955 52.0129 44.245 51.8027 42.2617 51.8027ZM43.1156 64.3297C43.223 65.2714 42.8721 69.725 39.4981 69.725C37.7583 69.725 37.3064 68.3949 37.3064 67.6098C37.3064 66.0754 38.1395 64.2352 42.2439 64.2352C43.1999 64.2352 42.9546 64.3041 43.1156 64.3297Z" fill="#000066"/>
<path d="M55.1978 74.3044C56.4596 74.3044 63.6725 74.6256 63.6725 67.1823C63.6725 60.2223 56.9958 61.5981 56.9958 58.8013C56.9958 57.4106 58.0842 56.9724 60.0741 56.9724C60.8633 56.9724 63.9023 57.2236 63.9023 57.2236L64.6084 52.2772C64.6084 52.2778 62.6417 51.8372 59.4399 51.8372C55.2957 51.8372 51.0892 53.4915 51.0892 59.1517C51.0892 65.5659 58.1032 64.9217 58.1032 67.6235C58.1032 69.4269 56.1437 69.5753 54.633 69.5753C52.0197 69.5753 49.667 68.6781 49.6587 68.7214L48.9111 73.6174C49.0471 73.6589 50.499 74.3044 55.1978 74.3044Z" fill="#000066"/>
<path d="M166.353 47.3154L165.341 54.8621C165.341 54.8621 163.231 51.9495 159.93 51.9495C153.72 51.9495 150.519 58.1387 150.519 65.2484C150.519 69.8385 152.802 74.3377 157.466 74.3377C160.822 74.3377 162.682 71.9976 162.682 71.9976L162.436 73.9957H167.885L172.165 47.3564L166.353 47.3154ZM163.947 61.983C163.947 64.942 162.482 68.8949 159.446 68.8949C157.429 68.8949 156.484 67.202 156.484 64.5459C156.484 60.2022 158.434 57.3371 160.897 57.3371C162.912 57.3371 163.947 58.7207 163.947 61.983Z" fill="#000066"/>
<path d="M11.9295 74.0176L15.3397 53.9054L15.8409 74.0176H19.7001L26.9 53.9054L23.7106 74.0176H29.4456L33.8617 47.3427L24.7516 47.2732L19.3325 63.6052L19.184 47.3427H10.8351L6.35547 74.0176H11.9295Z" fill="#000066"/>
<path d="M98.2402 74.0557C99.8708 64.7834 100.452 57.4606 105.207 58.9771C105.89 55.3882 107.517 52.2671 108.261 50.7482C108.261 50.7482 108.026 50.3984 106.556 50.3984C104.047 50.3984 100.697 55.4897 100.697 55.4897L101.198 52.342H95.9808L92.4868 74.0551H98.2402V74.0557Z" fill="#000066"/>
<path d="M131.879 51.8027C128.036 51.8027 125.092 53.0373 125.092 53.0373L124.279 57.8631C124.279 57.8631 126.711 56.8756 130.383 56.8756C132.47 56.8756 133.995 57.1102 133.995 58.8055C133.995 59.8351 133.809 60.2152 133.809 60.2152C133.809 60.2152 132.164 60.078 131.402 60.078C125.932 60.078 121.468 62.1456 121.468 68.3794C121.468 73.292 124.806 74.4184 126.876 74.4184C130.827 74.4184 132.393 71.9226 132.483 71.9155L132.437 73.9867H137.37L139.571 58.5596C139.571 52.0129 133.861 51.8027 131.879 51.8027ZM132.732 64.3297C132.839 65.2714 132.488 69.725 129.114 69.725C127.373 69.725 126.922 68.3949 126.922 67.6098C126.922 66.0754 127.754 64.2352 131.859 64.2352C132.816 64.2352 132.571 64.3041 132.732 64.3297Z" fill="#000066"/>
<path d="M145.249 74.0558C146.144 67.2342 147.801 57.6573 152.215 58.9773C152.897 55.3884 152.239 55.3979 150.77 55.3979C148.259 55.3979 147.704 55.4893 147.704 55.4893L148.205 52.3416H142.988L139.494 74.0552H145.249V74.0558Z" fill="#000066"/>
<path d="M74.5341 72.0236L75.2354 67.2618C74.8524 67.2618 74.2889 67.4257 73.7919 67.4257C71.8418 67.4257 71.6269 66.389 71.751 65.6223L73.3263 55.9065H76.29L77.0055 50.6394H74.2111L74.78 47.364H69.178C69.0545 47.4875 65.8711 65.7856 65.8711 68.0136C65.8711 71.3122 67.7232 72.7813 70.3347 72.7575C72.3798 72.7403 73.9724 72.1744 74.5341 72.0236Z" fill="white"/>
<path d="M76.3091 62.9449C76.3091 70.8615 81.5346 72.7427 85.9863 72.7427C90.0955 72.7427 91.9036 71.8241 91.9036 71.8241L92.8905 66.421C92.8905 66.421 89.7647 67.7981 86.9418 67.7981C80.9265 67.7981 81.9799 63.3131 81.9799 63.3131H93.3644C93.3644 63.3131 94.0995 59.6831 94.0995 58.204C94.0995 54.5129 92.2623 50.0154 86.1116 50.0154C80.4788 50.0166 76.3091 56.0859 76.3091 62.9449ZM86.133 55.0324C89.2944 55.0324 88.7113 58.5852 88.7113 58.8726H82.4918C82.4918 58.5056 83.0797 55.0324 86.133 55.0324Z" fill="white"/>
<path d="M121.607 72.0213L122.609 65.914C122.609 65.914 119.861 67.2922 117.974 67.2922C114 67.2922 112.406 64.2579 112.406 60.9979C112.406 54.3847 115.826 50.7464 119.632 50.7464C122.486 50.7464 124.777 52.3491 124.777 52.3491L125.692 46.4152C125.692 46.4152 122.295 45.0405 119.383 45.0405C112.915 45.0405 106.624 50.6508 106.624 61.1873C106.624 68.174 110.021 72.7885 116.706 72.7885C118.596 72.7891 121.607 72.0213 121.607 72.0213Z" fill="white"/>
<path d="M43.7232 50.1028C39.8819 50.1028 36.9372 51.3373 36.9372 51.3373L36.1243 56.1632C36.1243 56.1632 38.5547 55.1757 42.2286 55.1757C44.3146 55.1757 45.8407 55.4102 45.8407 57.1055C45.8407 58.1352 45.6537 58.5152 45.6537 58.5152C45.6537 58.5152 44.0082 58.3775 43.2464 58.3775C38.4015 58.3775 33.312 60.4451 33.312 66.6789C33.312 71.5908 36.651 72.7179 38.7204 72.7179C42.6728 72.7179 44.3764 70.1532 44.4672 70.1455L44.2826 72.2862H49.2153L51.416 56.8585C51.416 50.3136 45.7065 50.1028 43.7232 50.1028ZM44.9233 62.6641C45.0302 63.6065 44.3324 68.0238 40.9596 68.0238C39.2198 68.0238 38.7673 66.6949 38.7673 65.9087C38.7673 64.3755 39.6004 62.5347 43.7054 62.5347C44.6602 62.5359 44.7624 62.638 44.9233 62.6641Z" fill="white"/>
<path d="M56.6586 72.6048C57.9204 72.6048 65.134 72.9254 65.134 65.4821C65.134 58.5233 58.4566 59.8979 58.4566 57.1023C58.4566 55.7104 59.5451 55.2722 61.5343 55.2722C62.3241 55.2722 65.3626 55.5234 65.3626 55.5234L66.0692 50.577C66.0692 50.5776 64.1025 50.137 60.9007 50.137C56.7566 50.137 52.55 51.7913 52.55 57.4515C52.55 63.8652 59.5641 63.2215 59.5641 65.9233C59.5641 67.7267 57.6045 67.8733 56.0945 67.8733C53.4811 67.8733 51.1279 66.9767 51.1196 67.0195L50.3726 71.916C50.5079 71.9575 51.9592 72.6048 56.6586 72.6048Z" fill="white"/>
<path d="M168.01 45.6639L166.801 53.1619C166.801 53.1619 164.693 50.2493 161.392 50.2493C156.259 50.2493 151.98 56.4379 151.98 63.5488C151.98 68.1389 154.262 72.6364 158.927 72.6364C162.283 72.6364 164.143 70.2968 164.143 70.2968L163.897 72.2949H169.346L173.625 45.655L168.01 45.6639ZM165.408 60.2834C165.408 63.2424 163.943 67.1947 160.906 67.1947C158.89 67.1947 157.945 65.5024 157.945 62.8463C157.945 58.5032 159.896 55.6375 162.357 55.6375C164.374 55.6369 165.408 57.0223 165.408 60.2834Z" fill="white"/>
<path d="M13.391 72.3181L16.8012 52.2059L17.3018 72.3181H21.1615L28.3614 52.2059L25.1721 72.3181H30.9071L35.3238 45.6426H26.4553L20.9323 62.0096L20.6449 45.6426H12.47L7.98975 72.3181H13.391Z" fill="white"/>
<path d="M99.702 72.3549C101.333 63.0821 101.635 55.5526 105.526 56.9308C106.207 53.3419 106.864 51.9536 107.608 50.4346C107.608 50.4346 107.259 50.3616 106.528 50.3616C104.019 50.3616 102.16 53.789 102.16 53.789L102.66 50.6413H97.4438L93.9492 72.3549H99.702V72.3549Z" fill="white"/>
<path d="M134.533 50.1028C130.691 50.1028 127.747 51.3373 127.747 51.3373L126.934 56.1632C126.934 56.1632 129.365 55.1757 133.039 55.1757C135.125 55.1757 136.65 55.4102 136.65 57.1055C136.65 58.1352 136.464 58.5152 136.464 58.5152C136.464 58.5152 134.818 58.3775 134.056 58.3775C129.212 58.3775 124.122 60.4451 124.122 66.6789C124.122 71.5908 127.46 72.7179 129.53 72.7179C133.482 72.7179 135.186 70.1532 135.276 70.1455L135.093 72.2862C135.093 72.2862 140.024 72.2862 140.025 72.2862L142.225 56.8585C142.226 50.3136 136.516 50.1028 134.533 50.1028ZM135.735 62.6641C135.841 63.6065 135.143 68.0238 131.769 68.0238C130.029 68.0238 129.578 66.6949 129.578 65.9087C129.578 64.3755 130.411 62.5347 134.515 62.5347C135.47 62.5359 135.572 62.638 135.735 62.6641Z" fill="white"/>
<path d="M146.734 72.3549C148.365 63.0821 148.668 55.5526 152.558 56.9308C153.24 53.3419 153.898 51.9536 154.641 50.4346C154.641 50.4346 154.292 50.3616 153.561 50.3616C151.052 50.3616 149.193 53.789 149.193 53.789L149.692 50.6413H144.476L140.982 72.3549H146.734V72.3549Z" fill="white"/>
<path d="M173.504 69.0049C173.789 69.0049 174.069 69.0779 174.339 69.2264C174.612 69.3701 174.824 69.5815 174.976 69.8552C175.128 70.1272 175.203 70.4104 175.203 70.7067C175.203 70.9995 175.128 71.2821 174.978 71.5523C174.829 71.8225 174.62 72.0345 174.349 72.1835C174.08 72.332 173.797 72.4068 173.504 72.4068C173.208 72.4068 172.925 72.332 172.655 72.1835C172.386 72.0333 172.177 71.8225 172.027 71.5523C171.875 71.2821 171.801 70.9995 171.801 70.7067C171.801 70.4104 171.876 70.1272 172.029 69.8552C172.182 69.5815 172.395 69.3713 172.666 69.2264C172.94 69.0779 173.22 69.0049 173.504 69.0049ZM173.504 69.2852C173.266 69.2852 173.034 69.3469 172.806 69.471C172.579 69.5922 172.403 69.7673 172.275 69.9965C172.148 70.2228 172.084 70.4597 172.084 70.7055C172.084 70.9514 172.146 71.1865 172.27 71.411C172.396 71.6348 172.572 71.8106 172.799 71.9371C173.023 72.0606 173.258 72.123 173.504 72.123C173.749 72.123 173.985 72.0606 174.21 71.9371C174.434 71.8106 174.61 71.6348 174.735 71.411C174.86 71.1847 174.921 70.9514 174.921 70.7055C174.921 70.4597 174.858 70.2228 174.731 69.9965C174.604 69.7673 174.428 69.5922 174.2 69.471C173.974 69.3475 173.743 69.2852 173.504 69.2852ZM172.759 71.6461V69.8154H173.389C173.604 69.8154 173.76 69.8326 173.855 69.8677C173.952 69.9003 174.027 69.9591 174.086 70.044C174.143 70.1284 174.172 70.2168 174.172 70.3119C174.172 70.4455 174.124 70.5624 174.028 70.661C173.934 70.7596 173.807 70.8166 173.649 70.8273C173.712 70.8546 173.764 70.8872 173.805 70.9241C173.878 70.9965 173.968 71.1176 174.075 71.2869L174.299 71.6455H173.937L173.776 71.3575C173.648 71.1301 173.545 70.9888 173.467 70.9312C173.413 70.889 173.334 70.8682 173.23 70.8682H173.057V71.6467L172.759 71.6461ZM173.055 70.6159H173.414C173.585 70.6159 173.701 70.5903 173.763 70.5393C173.825 70.4894 173.858 70.4211 173.858 70.3362C173.858 70.2822 173.843 70.2335 173.813 70.1925C173.783 70.1486 173.741 70.1171 173.687 70.0951C173.633 70.0743 173.536 70.0636 173.391 70.0636H173.055V70.6159" fill="white"/>
</svg>
