<svg width="343" height="343" viewBox="0 0 343 343" fill="none" xmlns="http://www.w3.org/2000/svg">
<circle cx="171.5" cy="171.5" r="160.067" fill="url(#paint0_linear)" stroke="url(#paint1_linear)" stroke-width="22.8667"/>
<circle cx="171.499" cy="171.5" r="137.952" stroke="url(#paint2_linear)" stroke-width="5.71667"/>
<path d="M172.403 45.1313L175.038 53.2395L183.563 53.2395L176.666 58.2506L179.3 66.3587L172.403 61.3476L165.506 66.3587L168.14 58.2506L161.243 53.2395L169.769 53.2395L172.403 45.1313Z" fill="#CDA747"/>
<path d="M215.73 57.7681L218.365 65.8762L226.89 65.8762L219.993 70.8873L222.627 78.9955L215.73 73.9843L208.833 78.9955L211.468 70.8873L204.57 65.8762L213.096 65.8762L215.73 57.7681Z" fill="#CDA747"/>
<path d="M250.03 81.2363L252.665 89.3445L261.19 89.3445L254.293 94.3556L256.927 102.464L250.03 97.4526L243.133 102.464L245.767 94.3556L238.87 89.3445L247.396 89.3445L250.03 81.2363Z" fill="#CDA747"/>
<path d="M275.304 115.537L277.938 123.645L286.463 123.645L279.566 128.656L282.201 136.764L275.304 131.753L268.406 136.764L271.041 128.656L264.144 123.645L272.669 123.645L275.304 115.537Z" fill="#CDA747"/>
<path d="M284.33 158.863L286.964 166.971L295.49 166.971L288.593 171.983L291.227 180.091L284.33 175.08L277.433 180.091L280.067 171.983L273.17 166.971L281.695 166.971L284.33 158.863Z" fill="#CDA747"/>
<path d="M275.304 203.995L277.938 212.103L286.463 212.103L279.566 217.114L282.201 225.222L275.304 220.211L268.406 225.222L271.041 217.114L264.144 212.103L272.669 212.103L275.304 203.995Z" fill="#CDA747"/>
<path d="M255.446 236.489L258.081 244.597L266.606 244.597L259.709 249.609L262.343 257.717L255.446 252.706L248.549 257.717L251.183 249.609L244.286 244.597L252.812 244.597L255.446 236.489Z" fill="#CDA747"/>
<path d="M215.73 261.763L218.365 269.871L226.89 269.871L219.993 274.882L222.627 282.991L215.73 277.979L208.833 282.991L211.468 274.882L204.57 269.871L213.096 269.871L215.73 261.763Z" fill="#CDA747"/>
<path d="M170.599 274.399L173.234 282.508L181.759 282.508L174.862 287.519L177.497 295.627L170.599 290.616L163.702 295.627L166.337 287.519L159.44 282.508L167.965 282.508L170.599 274.399Z" fill="#CDA747"/>
<path d="M127.272 261.763L129.907 269.871L138.432 269.871L131.535 274.882L134.169 282.991L127.272 277.979L120.375 282.991L123.01 274.882L116.112 269.871L124.638 269.871L127.272 261.763Z" fill="#CDA747"/>
<path d="M87.5575 236.489L90.1919 244.597L98.7174 244.597L91.8202 249.609L94.4546 257.717L87.5575 252.706L80.6603 257.717L83.2948 249.609L76.3976 244.597L84.923 244.597L87.5575 236.489Z" fill="#CDA747"/>
<path d="M67.6991 203.995L70.3335 212.103L78.859 212.103L71.9618 217.114L74.5962 225.222L67.6991 220.211L60.8019 225.222L63.4364 217.114L56.5392 212.103L65.0646 212.103L67.6991 203.995Z" fill="#CDA747"/>
<path d="M58.6727 158.863L61.3072 166.971L69.8326 166.971L62.9354 171.983L65.5699 180.091L58.6727 175.08L51.7755 180.091L54.41 171.983L47.5128 166.971L56.0382 166.971L58.6727 158.863Z" fill="#CDA747"/>
<path d="M69.5037 115.537L72.1382 123.645L80.6636 123.645L73.7664 128.656L76.4009 136.764L69.5037 131.753L62.6065 136.764L65.241 128.656L58.3438 123.645L66.8692 123.645L69.5037 115.537Z" fill="#CDA747"/>
<path d="M92.9725 79.4312L95.607 87.5393L104.132 87.5393L97.2352 92.5504L99.8697 100.659L92.9725 95.6474L86.0753 100.659L88.7098 92.5504L81.8126 87.5393L90.338 87.5393L92.9725 79.4312Z" fill="#CDA747"/>
<path d="M127.272 57.7681L129.907 65.8762L138.432 65.8762L131.535 70.8873L134.169 78.9955L127.272 73.9843L120.375 78.9955L123.01 70.8873L116.112 65.8762L124.638 65.8762L127.272 57.7681Z" fill="#CDA747"/>
<defs>
<linearGradient id="paint0_linear" x1="171.5" y1="5.1111e-06" x2="171.5" y2="343" gradientUnits="userSpaceOnUse">
<stop offset="0.110347" stop-color="white"/>
<stop offset="1" stop-color="#D2CCC4"/>
</linearGradient>
<linearGradient id="paint1_linear" x1="171.5" y1="0" x2="171.5" y2="343" gradientUnits="userSpaceOnUse">
<stop stop-color="#D8B254"/>
<stop offset="1" stop-color="#A27C15"/>
</linearGradient>
<linearGradient id="paint2_linear" x1="171.499" y1="30.6895" x2="171.499" y2="312.31" gradientUnits="userSpaceOnUse">
<stop stop-color="#D8B254"/>
<stop offset="1" stop-color="#A27C15"/>
</linearGradient>
</defs>
</svg>
