<svg width="1586" height="280" viewBox="0 0 1586 280" fill="none" xmlns="http://www.w3.org/2000/svg">
<path d="M151.321 14.8462L164.167 2.94175L172.166 18.5217L172.418 19.0127L172.882 18.7135L187.6 9.22055L192.772 25.9529L192.935 26.4801L193.444 26.2661L209.586 19.473L211.775 36.8493L211.844 37.3968L212.382 37.2744L229.458 33.3876L228.596 50.8799L228.569 51.4311L229.12 51.4039L246.612 50.5416L242.726 67.6184L242.603 68.1565L243.151 68.2254L260.527 70.4137L253.734 86.5562L253.52 87.0648L254.047 87.2278L270.779 92.4002L261.286 107.118L260.987 107.582L261.478 107.834L277.058 115.833L265.154 128.679L264.779 129.083L265.218 129.417L279.173 140L265.218 150.583L264.779 150.917L265.154 151.321L277.058 164.167L261.478 172.166L260.987 172.418L261.286 172.882L270.779 187.6L254.047 192.772L253.52 192.935L253.734 193.444L260.527 209.586L243.151 211.775L242.603 211.844L242.726 212.382L246.612 229.458L229.12 228.596L228.569 228.569L228.596 229.12L229.458 246.612L212.382 242.726L211.844 242.603L211.775 243.151L209.586 260.527L193.444 253.734L192.935 253.52L192.772 254.047L187.6 270.779L172.882 261.286L172.418 260.987L172.166 261.478L164.167 277.058L151.321 265.154L150.917 264.779L150.583 265.218L140 279.173L129.417 265.218L129.083 264.779L128.679 265.154L115.833 277.058L107.834 261.478L107.582 260.987L107.118 261.286L92.4002 270.779L87.2278 254.047L87.0648 253.52L86.5562 253.734L70.4137 260.527L68.2254 243.151L68.1565 242.603L67.6184 242.726L50.5416 246.612L51.4039 229.12L51.4311 228.569L50.8799 228.596L33.3876 229.458L37.2744 212.382L37.3968 211.844L36.8493 211.775L19.473 209.586L26.2661 193.444L26.4801 192.935L25.9529 192.772L9.22055 187.6L18.7135 172.882L19.0127 172.418L18.5217 172.166L2.94175 164.167L14.8462 151.321L15.2213 150.917L14.7816 150.583L0.827411 140L14.7816 129.417L15.2213 129.083L14.8462 128.679L2.94176 115.833L18.5217 107.834L19.0127 107.582L18.7135 107.118L9.22056 92.4002L25.9529 87.2278L26.4801 87.0648L26.2661 86.5562L19.473 70.4137L36.8493 68.2254L37.3968 68.1565L37.2744 67.6184L33.3876 50.5416L50.8799 51.4039L51.4311 51.4311L51.4039 50.8799L50.5416 33.3876L67.6184 37.2744L68.1565 37.3968L68.2254 36.8493L70.4137 19.473L86.5562 26.2661L87.0648 26.4801L87.2278 25.9529L92.4002 9.22056L107.118 18.7135L107.582 19.0127L107.834 18.5217L115.833 2.94176L128.679 14.8462L129.083 15.2213L129.417 14.7816L140 0.827411L150.583 14.7816L150.917 15.2213L151.321 14.8462Z" fill="url(#paint0_linear)" stroke="url(#paint1_linear)"/>
<g filter="url(#filter0_d)">
<circle cx="140" cy="140" r="112" stroke="#D2971A" stroke-width="6" stroke-dasharray="2 2"/>
</g>
<path d="M104.715 125.961H101.004V136H94.1484V107.562H105.34C108.712 107.562 111.349 108.311 113.25 109.809C115.151 111.306 116.102 113.422 116.102 116.156C116.102 118.135 115.698 119.776 114.891 121.078C114.096 122.38 112.846 123.435 111.141 124.242L117.078 135.707V136H109.734L104.715 125.961ZM101.004 120.668H105.34C106.642 120.668 107.618 120.329 108.27 119.652C108.934 118.962 109.266 118.005 109.266 116.781C109.266 115.557 108.934 114.6 108.27 113.91C107.605 113.207 106.629 112.855 105.34 112.855H101.004V120.668ZM129.947 136H123.111V107.562H129.947V136ZM151.78 128.441C151.78 127.439 151.422 126.658 150.706 126.098C150.003 125.538 148.76 124.958 146.976 124.359C145.192 123.76 143.734 123.181 142.601 122.621C138.916 120.811 137.073 118.324 137.073 115.16C137.073 113.585 137.529 112.198 138.441 111C139.365 109.789 140.667 108.852 142.347 108.188C144.027 107.51 145.915 107.172 148.011 107.172C150.055 107.172 151.885 107.536 153.499 108.266C155.127 108.995 156.39 110.036 157.288 111.391C158.187 112.732 158.636 114.268 158.636 116H151.8C151.8 114.841 151.442 113.943 150.726 113.305C150.023 112.667 149.066 112.348 147.855 112.348C146.631 112.348 145.661 112.621 144.945 113.168C144.241 113.702 143.89 114.385 143.89 115.219C143.89 115.948 144.28 116.612 145.062 117.211C145.843 117.797 147.217 118.409 149.183 119.047C151.149 119.672 152.764 120.349 154.027 121.078C157.099 122.849 158.636 125.29 158.636 128.402C158.636 130.889 157.698 132.842 155.823 134.262C153.948 135.681 151.377 136.391 148.109 136.391C145.804 136.391 143.714 135.98 141.839 135.16C139.977 134.327 138.571 133.194 137.62 131.762C136.683 130.316 136.214 128.656 136.214 126.781H143.089C143.089 128.305 143.48 129.431 144.261 130.16C145.055 130.876 146.338 131.234 148.109 131.234C149.241 131.234 150.133 130.993 150.784 130.512C151.448 130.017 151.78 129.327 151.78 128.441ZM174.22 125.414L171.407 128.5V136H164.552V107.562H171.407V120.102L173.79 116.488L179.923 107.562H188.399L178.79 120.141L188.399 136H180.274L174.22 125.414ZM112.059 160.672H101.004V172H94.1484V143.562H113.172V148.855H101.004V155.398H112.059V160.672ZM127.39 161.961H123.679V172H116.823V143.562H128.015C131.387 143.562 134.024 144.311 135.925 145.809C137.826 147.306 138.777 149.422 138.777 152.156C138.777 154.135 138.373 155.776 137.566 157.078C136.771 158.38 135.521 159.435 133.816 160.242L139.753 171.707V172H132.409L127.39 161.961ZM123.679 156.668H128.015C129.317 156.668 130.293 156.329 130.945 155.652C131.609 154.962 131.941 154.005 131.941 152.781C131.941 151.557 131.609 150.6 130.945 149.91C130.28 149.207 129.304 148.855 128.015 148.855H123.679V156.668ZM161.354 159.949H150.573V166.727H163.307V172H143.717V143.562H163.346V148.855H150.573V154.852H161.354V159.949ZM184.537 159.949H173.755V166.727H186.49V172H166.9V143.562H186.529V148.855H173.755V154.852H184.537V159.949Z" fill="#2C2C2D"/>
<path fill-rule="evenodd" clip-rule="evenodd" d="M140 205C175.899 205 205 175.899 205 140C205 104.101 175.899 75 140 75C104.101 75 75 104.101 75 140C75 175.899 104.101 205 140 205ZM140 240C195.228 240 240 195.228 240 140C240 84.7715 195.228 40 140 40C84.7715 40 40 84.7715 40 140C40 195.228 84.7715 240 140 240ZM232 140C232 145.523 227.523 150 222 150C216.477 150 212 145.523 212 140C212 134.477 216.477 130 222 130C227.523 130 232 134.477 232 140ZM58 150C63.5228 150 68 145.523 68 140C68 134.477 63.5228 130 58 130C52.4772 130 48 134.477 48 140C48 145.523 52.4772 150 58 150Z" fill="url(#paint2_linear)"/>
<path d="M75.144 93.992C74.5917 93.6233 74.0393 93.5363 73.4866 93.7309C72.9274 93.9212 72.1471 94.4148 71.1455 95.2115C70.1374 96.0039 69.2768 96.5894 68.5637 96.9681C66.6172 97.9983 64.9065 98.021 63.4316 97.0363C62.6649 96.5244 62.1258 95.8545 61.8143 95.0266C61.5007 94.1878 61.4439 93.2528 61.6439 92.2216C61.8482 91.1838 62.2866 90.1614 62.959 89.1542C63.6357 88.1406 64.4238 87.3611 65.3234 86.8156C66.2165 86.2659 67.143 85.9967 68.1028 86.0082C69.0671 86.0131 69.9748 86.2998 70.8259 86.868L68.8739 89.7919C68.2242 89.3581 67.584 89.2266 66.9533 89.3974C66.3162 89.5638 65.7503 90.0174 65.2558 90.7581C64.7786 91.4728 64.5604 92.1303 64.6012 92.7305C64.6355 93.3264 64.8995 93.7892 65.3934 94.1189C65.8547 94.4269 66.3953 94.4543 67.0152 94.2012C67.6394 93.9416 68.3894 93.4513 69.2653 92.7303C70.8761 91.401 72.3056 90.6035 73.5538 90.3378C74.8021 90.0721 75.9785 90.3079 77.0831 91.0454C78.3111 91.8652 78.9658 92.974 79.0473 94.3716C79.1222 95.7649 78.6348 97.2478 77.585 98.8202C76.8562 99.9118 75.9944 100.774 74.9994 101.406C73.9979 102.033 72.9912 102.352 71.9793 102.362C70.9718 102.366 70.0099 102.062 69.0938 101.451L71.0523 98.5169C72.6182 99.5623 74.0258 99.1494 75.2751 97.2781C75.7393 96.5828 75.9618 95.947 75.9427 95.3706C75.9171 94.7899 75.6508 94.3304 75.144 93.992Z" fill="#FACC4C"/>
<path d="M86.2755 82.6867L81.9168 87.0453L83.5741 90.3599L80.9308 93.0032L73.357 76.447L75.6606 74.1434L92.2417 81.6923L89.5983 84.3356L86.2755 82.6867ZM80.5744 84.3605L83.5907 81.3443L77.5582 78.3446L80.5744 84.3605Z" fill="#FACC4C"/>
<path d="M95.9018 62.1303L91.5656 65.0482L99.5016 76.8415L96.5849 78.8042L88.6489 67.0109L84.371 69.8896L82.7812 67.5271L94.312 59.7677L95.9018 62.1303Z" fill="#FACC4C"/>
<path d="M107.942 72.1667L104.786 73.7148L97.2722 58.3956L100.429 56.8475L107.942 72.1667Z" fill="#FACC4C"/>
<path d="M117.778 63.6399C117.575 63.0075 117.197 62.5954 116.643 62.4036C116.087 62.2044 115.169 62.1047 113.889 62.1046C112.607 62.097 111.569 62.0193 110.775 61.8717C108.611 61.4659 107.258 60.4185 106.717 58.7296C106.436 57.8517 106.431 56.9918 106.703 56.15C106.98 55.2984 107.517 54.5314 108.316 53.8489C109.122 53.1641 110.102 52.637 111.255 52.2675C112.415 51.8957 113.518 51.7764 114.561 51.9097C115.602 52.0355 116.495 52.4018 117.239 53.0084C117.99 53.6126 118.522 54.402 118.834 55.3767L115.486 56.4493C115.248 55.7053 114.829 55.2038 114.229 54.9448C113.627 54.6783 112.902 54.6809 112.053 54.9526C111.235 55.2148 110.655 55.5935 110.313 56.0885C109.969 56.5762 109.887 57.1027 110.069 57.6682C110.238 58.1964 110.644 58.5545 111.286 58.7424C111.937 58.9279 112.829 59.0112 113.963 58.9923C116.051 58.955 117.666 59.221 118.809 59.7903C119.951 60.3596 120.724 61.2766 121.13 62.5414C121.58 63.9476 121.402 65.2228 120.596 66.3672C119.787 67.5041 118.482 68.361 116.682 68.9379C115.432 69.3383 114.221 69.4761 113.049 69.3512C111.874 69.2188 110.888 68.8416 110.09 68.2195C109.299 67.5951 108.735 66.7583 108.399 65.7093L111.759 64.6331C112.333 66.4261 113.692 66.9794 115.834 66.2929C116.63 66.0379 117.2 65.6789 117.544 65.216C117.886 64.7456 117.964 64.2202 117.778 63.6399Z" fill="#FACC4C"/>
<path d="M134.121 58.1024L127.426 58.9584L128.31 65.8748L124.823 66.3206L122.659 49.3958L133.678 47.987L134.04 50.8117L126.507 51.7747L127.066 56.1453L133.761 55.2893L134.121 58.1024Z" fill="#FACC4C"/>
<path d="M147.478 61.7937L141.326 61.4134L139.939 64.85L136.208 64.6194L143.6 47.9813L146.852 48.1822L152.174 65.6062L148.443 65.3756L147.478 61.7937ZM142.449 58.6297L146.706 58.8929L144.96 52.386L142.449 58.6297Z" fill="#FACC4C"/>
<path d="M167.09 63.7255C166.482 65.4628 165.447 66.68 163.988 67.3772C162.536 68.0764 160.844 68.1644 158.914 67.6413C156.803 67.0691 155.332 65.9097 154.502 64.1631C153.682 62.411 153.608 60.2946 154.28 57.8137L154.553 56.8071C154.982 55.2235 155.639 53.9042 156.524 52.8489C157.409 51.7936 158.455 51.0855 159.662 50.7245C160.878 50.358 162.172 50.3607 163.545 50.7326C165.445 51.2476 166.838 52.1714 167.723 53.504C168.608 54.8367 168.892 56.4475 168.575 58.3364L165.181 57.4169C165.387 56.3312 165.297 55.4813 164.913 54.8673C164.539 54.2478 163.831 53.7971 162.791 53.5151C161.659 53.2086 160.701 53.3859 159.915 54.047C159.138 54.7026 158.511 55.8804 158.034 57.5805L157.697 58.8247C157.215 60.6043 157.13 61.9775 157.443 62.9445C157.763 63.9136 158.504 64.5555 159.665 64.8701C160.713 65.1542 161.558 65.1282 162.199 64.7921C162.85 64.4505 163.349 63.7884 163.697 62.806L167.09 63.7255Z" fill="#FACC4C"/>
<path d="M185.527 62.9685L180.843 60.6496L174.536 73.3888L171.386 71.829L177.692 59.0898L173.072 56.8021L174.335 54.2501L186.791 60.4164L185.527 62.9685Z" fill="#FACC4C"/>
<path d="M183.246 78.7035L180.344 76.7195L189.973 62.6338L192.876 64.6178L183.246 78.7035Z" fill="#FACC4C"/>
<path d="M201.788 83.9858C200.636 85.2076 199.409 86.075 198.109 86.5881C196.808 87.1012 195.519 87.2271 194.24 86.9658C192.967 86.71 191.81 86.0914 190.77 85.1103C189.742 84.1399 189.057 83.0268 188.717 81.7711C188.376 80.5155 188.416 79.2211 188.836 77.888C189.261 76.5493 190.034 75.2805 191.154 74.0818L191.733 73.4681C192.886 72.2464 194.118 71.3788 195.43 70.8654C196.752 70.3517 198.047 70.2256 199.315 70.4872C200.594 70.7484 201.75 71.3669 202.784 72.3427C203.819 73.3185 204.5 74.4344 204.83 75.6904C205.17 76.9461 205.12 78.2463 204.678 79.5911C204.247 80.9355 203.458 82.2157 202.311 83.4318L201.788 83.9858ZM199.728 80.9785C200.956 79.6772 201.655 78.4686 201.827 77.3528C202 76.2369 201.654 75.2715 200.79 74.4566C199.932 73.647 198.954 73.3577 197.855 73.5886C196.762 73.8138 195.604 74.5687 194.381 75.8533L193.81 76.4584C192.614 77.7256 191.92 78.9285 191.726 80.0671C191.533 81.2057 191.874 82.1878 192.749 83.0135C193.607 83.823 194.582 84.1097 195.675 83.8734C196.774 83.6315 197.934 82.8682 199.157 81.5837L199.728 80.9785Z" fill="#FACC4C"/>
<path d="M205.54 102.962L203.556 100.059L208.962 88.0739L199.694 94.4096L197.71 91.5073L211.795 81.8781L213.779 84.7804L208.361 96.7887L217.648 90.4398L219.626 93.3324L205.54 102.962Z" fill="#FACC4C"/>
<path d="M82.3995 207.941C81.4172 208.04 80.3653 207.836 79.2438 207.329C78.1278 206.816 77.0672 206.068 76.0621 205.084C75.0066 204.052 74.3037 202.916 73.9532 201.677C73.6137 200.437 73.6551 199.166 74.0774 197.863C74.5052 196.566 75.2927 195.32 76.4398 194.125L77.2512 193.296C78.4423 192.078 79.676 191.225 80.9524 190.736C82.2398 190.247 83.4983 190.145 84.7279 190.43C85.9685 190.715 87.1081 191.365 88.1468 192.381C89.5931 193.796 90.3851 195.249 90.5229 196.739C90.6661 198.224 90.1684 199.699 89.0298 201.164L86.5839 198.771C87.1552 197.964 87.4066 197.21 87.3382 196.509C87.2754 195.813 86.9089 195.138 86.2388 194.482C85.3844 193.646 84.4197 193.331 83.3447 193.536C82.2696 193.741 81.1091 194.475 79.8633 195.737L79.1011 196.516C77.8499 197.794 77.1476 198.998 76.9942 200.127C76.8407 201.256 77.2331 202.279 78.1712 203.197C79.1149 204.12 79.9845 204.577 80.78 204.569L82.8371 202.466L80.5503 200.229L82.3616 198.378L87.1612 203.074L82.3995 207.941Z" fill="#FACC4C"/>
<path d="M104.967 205.383L98.8994 214.842C97.8913 216.414 96.6009 217.34 95.0282 217.622C93.462 217.907 91.8274 217.504 90.1242 216.411C88.4473 215.336 87.4004 214.038 86.9835 212.517C86.5665 210.997 86.8459 209.454 87.8216 207.89L93.9589 198.322L96.9181 200.22L90.8377 209.699C90.2346 210.639 90.0174 211.47 90.1861 212.191C90.3657 212.909 90.8533 213.524 91.649 214.034C93.3127 215.101 94.7188 214.769 95.8671 213.036L101.998 203.478L104.967 205.383Z" fill="#FACC4C"/>
<path d="M111.387 222.739L105.624 220.552L103.281 223.423L99.7863 222.097L111.779 208.398L114.825 209.554L114.742 227.772L111.247 226.446L111.387 222.739ZM107.522 218.226L111.51 219.74L111.771 213.008L107.522 218.226Z" fill="#FACC4C"/>
<path d="M125.473 223.516L122.711 223.054L121.681 229.215L118.214 228.636L121.025 211.807L127.278 212.851C129.266 213.183 130.726 213.882 131.657 214.949C132.587 216.015 132.918 217.357 132.647 218.976C132.455 220.124 132.045 221.041 131.415 221.728C130.795 222.409 129.942 222.892 128.856 223.178L131.348 230.664L131.321 230.825L127.599 230.204L125.473 223.516ZM123.18 220.246L125.977 220.713C126.848 220.858 127.559 220.751 128.11 220.392C128.662 220.025 129.003 219.452 129.133 218.674C129.266 217.88 129.143 217.218 128.764 216.687C128.393 216.158 127.741 215.816 126.809 215.66L124.023 215.195L123.18 220.246Z" fill="#FACC4C"/>
<path d="M146.046 227.318L139.886 227.555L138.851 231.114L135.115 231.258L140.804 213.963L144.059 213.837L151.1 230.641L147.364 230.785L146.046 227.318ZM140.725 224.673L144.987 224.509L142.598 218.209L140.725 224.673Z" fill="#FACC4C"/>
<path d="M168.697 226.616L165.29 227.484L155.887 218.295L158.658 229.174L155.251 230.042L151.039 213.507L154.446 212.639L163.866 221.849L161.089 210.947L164.485 210.082L168.697 226.616Z" fill="#FACC4C"/>
<path d="M179.342 206.301L174.632 208.568L180.797 221.376L177.629 222.901L171.464 210.092L166.818 212.328L165.583 209.762L178.107 203.735L179.342 206.301Z" fill="#FACC4C"/>
<path d="M192.347 205.352L186.859 209.283L189.521 212.998L195.961 208.385L197.606 210.681L188.307 217.342L178.372 203.471L187.651 196.824L189.309 199.139L182.888 203.738L185.256 207.044L190.743 203.113L192.347 205.352Z" fill="#FACC4C"/>
<path d="M202.558 195.652L197.802 200.442L201.045 203.662L206.627 198.04L208.631 200.03L200.573 208.147L188.464 196.126L196.506 188.026L198.527 190.032L192.962 195.637L195.848 198.502L200.603 193.712L202.558 195.652Z" fill="#FACC4C"/>
<path d="M506.195 3.5625L513.5 24.1875L520.766 3.5625H528.461V32H522.582V24.2266L523.168 10.8086L515.492 32H511.469L503.812 10.8281L504.398 24.2266V32H498.539V3.5625H506.195ZM550.784 26.1406H540.511L538.558 32H532.327L542.913 3.5625H548.343L558.987 32H552.757L550.784 26.1406ZM542.093 21.3945H549.202L545.628 10.75L542.093 21.3945ZM562.444 32V3.5625H571.194C573.694 3.5625 575.927 4.12891 577.893 5.26172C579.872 6.38151 581.415 7.98307 582.522 10.0664C583.629 12.1367 584.182 14.4935 584.182 17.1367V18.4453C584.182 21.0885 583.635 23.4388 582.541 25.4961C581.461 27.5534 579.931 29.1484 577.952 30.2812C575.972 31.4141 573.739 31.987 571.252 32H562.444ZM568.303 8.30859V27.293H571.135C573.427 27.293 575.178 26.5443 576.389 25.0469C577.6 23.5495 578.218 21.4076 578.245 18.6211V17.1172C578.245 14.2266 577.646 12.0391 576.448 10.5547C575.25 9.05729 573.498 8.30859 571.194 8.30859H568.303ZM606.369 19.6758H595.119V27.293H608.322V32H589.259V3.5625H608.283V8.30859H595.119V15.0859H606.369V19.6758ZM629.551 32H623.691V3.5625H629.551V32ZM658.925 32H653.066L641.659 13.2891V32H635.8V3.5625H641.659L653.085 22.3125V3.5625H658.925V32Z" fill="black"/>
<path d="M491.805 234.141H481.532L479.579 240H473.348L483.934 211.562H489.364L500.009 240H493.778L491.805 234.141ZM483.114 229.395H490.223L486.649 218.75L483.114 229.395ZM509.324 229.98V240H503.465V211.562H514.559C516.694 211.562 518.569 211.953 520.184 212.734C521.811 213.516 523.061 214.629 523.934 216.074C524.806 217.507 525.242 219.141 525.242 220.977C525.242 223.763 524.285 225.964 522.371 227.578C520.47 229.18 517.833 229.98 514.461 229.98H509.324ZM509.324 225.234H514.559C516.108 225.234 517.286 224.87 518.094 224.141C518.914 223.411 519.324 222.37 519.324 221.016C519.324 219.622 518.914 218.496 518.094 217.637C517.273 216.777 516.141 216.335 514.695 216.309H509.324V225.234ZM535.945 229.98V240H530.085V211.562H541.179C543.314 211.562 545.189 211.953 546.804 212.734C548.432 213.516 549.682 214.629 550.554 216.074C551.426 217.507 551.862 219.141 551.862 220.977C551.862 223.763 550.905 225.964 548.991 227.578C547.09 229.18 544.454 229.98 541.081 229.98H535.945ZM535.945 225.234H541.179C542.728 225.234 543.907 224.87 544.714 224.141C545.534 223.411 545.945 222.37 545.945 221.016C545.945 219.622 545.534 218.496 544.714 217.637C543.894 216.777 542.761 216.335 541.316 216.309H535.945V225.234ZM567.233 229.59H562.565V240H556.705V211.562H567.272C570.631 211.562 573.222 212.311 575.045 213.809C576.868 215.306 577.78 217.422 577.78 220.156C577.78 222.096 577.357 223.717 576.51 225.02C575.677 226.309 574.407 227.337 572.702 228.105L578.854 239.727V240H572.565L567.233 229.59ZM562.565 224.844H567.291C568.763 224.844 569.902 224.473 570.709 223.73C571.517 222.975 571.92 221.94 571.92 220.625C571.92 219.284 571.536 218.229 570.768 217.461C570.013 216.693 568.847 216.309 567.272 216.309H562.565V224.844ZM606.412 226.426C606.412 229.225 605.917 231.68 604.927 233.789C603.938 235.898 602.518 237.526 600.67 238.672C598.834 239.818 596.724 240.391 594.341 240.391C591.985 240.391 589.882 239.824 588.033 238.691C586.184 237.559 584.752 235.944 583.736 233.848C582.72 231.738 582.206 229.316 582.193 226.582V225.176C582.193 222.376 582.694 219.915 583.697 217.793C584.712 215.658 586.138 214.023 587.974 212.891C589.823 211.745 591.933 211.172 594.302 211.172C596.672 211.172 598.775 211.745 600.611 212.891C602.46 214.023 603.886 215.658 604.888 217.793C605.904 219.915 606.412 222.37 606.412 225.156V226.426ZM600.474 225.137C600.474 222.155 599.94 219.889 598.873 218.34C597.805 216.79 596.282 216.016 594.302 216.016C592.336 216.016 590.819 216.784 589.752 218.32C588.684 219.844 588.143 222.083 588.13 225.039V226.426C588.13 229.329 588.664 231.582 589.732 233.184C590.8 234.785 592.336 235.586 594.341 235.586C596.308 235.586 597.818 234.818 598.873 233.281C599.927 231.732 600.461 229.479 600.474 226.523V225.137ZM621.548 232.949L627.993 211.562H634.516L624.614 240H618.501L608.637 211.562H615.141L621.548 232.949ZM655.121 227.676H643.871V235.293H657.074V240H638.012V211.562H657.035V216.309H643.871V223.086H655.121V227.676ZM661.312 240V211.562H670.062C672.562 211.562 674.795 212.129 676.761 213.262C678.74 214.382 680.283 215.983 681.39 218.066C682.497 220.137 683.05 222.493 683.05 225.137V226.445C683.05 229.089 682.503 231.439 681.409 233.496C680.329 235.553 678.799 237.148 676.82 238.281C674.84 239.414 672.607 239.987 670.12 240H661.312ZM667.171 216.309V235.293H670.003C672.295 235.293 674.046 234.544 675.257 233.047C676.468 231.549 677.086 229.408 677.113 226.621V225.117C677.113 222.227 676.514 220.039 675.316 218.555C674.118 217.057 672.366 216.309 670.062 216.309H667.171ZM495.634 264.379H484.384V276H478.525V247.562H497.041V252.309H484.384V259.652H495.634V264.379ZM513.544 270.141H503.27L501.317 276H495.087L505.673 247.562H511.102L521.747 276H515.516L513.544 270.141ZM504.852 265.395H511.962L508.388 254.75L504.852 265.395ZM547.098 266.527C546.876 269.587 545.743 271.996 543.699 273.754C541.668 275.512 538.986 276.391 535.652 276.391C532.007 276.391 529.135 275.167 527.039 272.719C524.956 270.258 523.914 266.885 523.914 262.602V260.863C523.914 258.129 524.396 255.72 525.359 253.637C526.323 251.553 527.697 249.958 529.48 248.852C531.277 247.732 533.361 247.172 535.73 247.172C539.012 247.172 541.655 248.051 543.66 249.809C545.665 251.566 546.824 254.034 547.137 257.211H541.277C541.134 255.375 540.62 254.047 539.734 253.227C538.862 252.393 537.527 251.977 535.73 251.977C533.777 251.977 532.312 252.68 531.336 254.086C530.372 255.479 529.878 257.647 529.852 260.59V262.738C529.852 265.811 530.314 268.057 531.238 269.477C532.176 270.896 533.647 271.605 535.652 271.605C537.462 271.605 538.81 271.195 539.695 270.375C540.594 269.542 541.108 268.259 541.238 266.527H547.098ZM557.976 276H552.116V247.562H557.976V276ZM570.084 271.293H582.526V276H564.225V247.562H570.084V271.293ZM592.935 276H587.076V247.562H592.935V276ZM620.005 252.309H611.294V276H605.434V252.309H596.841V247.562H620.005V252.309ZM630.395 276H624.535V247.562H630.395V276ZM653.753 263.676H642.503V271.293H655.706V276H636.644V247.562H655.667V252.309H642.503V259.086H653.753V263.676ZM674.69 268.539C674.69 267.432 674.299 266.586 673.518 266C672.737 265.401 671.33 264.776 669.299 264.125C667.268 263.461 665.66 262.81 664.475 262.172C661.246 260.427 659.631 258.077 659.631 255.121C659.631 253.585 660.061 252.217 660.92 251.02C661.793 249.809 663.036 248.865 664.651 248.188C666.278 247.51 668.101 247.172 670.12 247.172C672.151 247.172 673.961 247.543 675.549 248.285C677.138 249.014 678.368 250.049 679.241 251.391C680.126 252.732 680.569 254.255 680.569 255.961H674.709C674.709 254.659 674.299 253.65 673.479 252.934C672.659 252.204 671.506 251.84 670.022 251.84C668.59 251.84 667.476 252.146 666.682 252.758C665.888 253.357 665.491 254.151 665.491 255.141C665.491 256.065 665.953 256.84 666.877 257.465C667.815 258.09 669.189 258.676 670.998 259.223C674.332 260.225 676.76 261.469 678.284 262.953C679.807 264.438 680.569 266.286 680.569 268.5C680.569 270.961 679.638 272.895 677.776 274.301C675.914 275.694 673.407 276.391 670.256 276.391C668.069 276.391 666.077 275.993 664.28 275.199C662.483 274.392 661.109 273.292 660.159 271.898C659.221 270.505 658.752 268.891 658.752 267.055H664.631C664.631 270.193 666.506 271.762 670.256 271.762C671.649 271.762 672.737 271.482 673.518 270.922C674.299 270.349 674.69 269.555 674.69 268.539Z" fill="black"/>
<path fill-rule="evenodd" clip-rule="evenodd" d="M439.442 150.217H485.132V133.031H422.94L422.283 133.027V194.212H438.96V150.472L439.442 150.217Z" fill="black"/>
<path fill-rule="evenodd" clip-rule="evenodd" d="M422.287 72.9701L547.143 72.9547L547.407 72.8376C574.358 73.0891 596.123 94.941 596.123 121.858C596.123 148.814 574.288 170.689 547.271 170.874L546.841 170.854L516.296 170.824V108.938H533.539V153.991L534.979 153.953H546.874L547.536 153.945C564.986 153.592 579.022 139.388 579.022 121.916C579.022 104.35 564.844 90.0865 547.269 89.8753H439.378L438.962 89.885V108.591L438.975 108.927L485.011 108.942L485.057 126.127L422.473 126.116L422.283 126.104L422.287 72.9701ZM672.355 50.4521L747.787 177.605L758.561 159.759L691.712 50.4521H672.355ZM594.948 194.221L672.294 65.3553L736.093 170.92H648.161V154.454H705.244L672.294 99.4845L618.294 194.221H594.948Z" fill="black"/>
<path fill-rule="evenodd" clip-rule="evenodd" d="M747.785 177.605L648.16 177.578V194.221L737.992 194.186L738.126 193.793L747.785 177.605ZM491.882 177.064L491.953 108.934H509.196V177.064L509.192 177.198H546.876L547.272 177.21C577.802 176.997 602.485 152.268 602.485 121.791C602.485 91.3687 577.871 66.6644 547.406 66.3784L546.876 66.3918L416.12 66.388L416.116 194.211H399.439L399.445 49.7879L546.876 49.7783H547.542C582.604 50.095 611.712 74.4519 618.004 107.65L653.001 50.4502H672.354L612.338 150.981L606.516 160.819C593.607 179.736 572.178 193.825 547.542 194.048L546.876 194.052H491.882V177.064Z" fill="black"/>
<path d="M1016 229.863C1065.63 229.863 1105.86 189.63 1105.86 140C1105.86 90.3705 1065.63 50.1377 1016 50.1377C966.37 50.1377 926.137 90.3705 926.137 140C926.137 189.63 966.37 229.863 1016 229.863Z" fill="url(#paint3_radial)"/>
<path d="M1016 3.8418C940.801 3.8418 879.844 64.8018 879.844 139.998C879.844 215.196 940.804 276.153 1016 276.153C1091.2 276.153 1152.16 215.193 1152.16 139.998C1152.16 64.8018 1091.2 3.8418 1016 3.8418ZM1016 229.863C966.37 229.863 926.137 189.63 926.137 140.001C926.137 90.3711 966.37 50.1381 1016 50.1381C1065.63 50.1381 1105.86 90.3711 1105.86 140.001C1105.86 189.63 1065.63 229.863 1016 229.863Z" fill="url(#paint4_linear)"/>
<path d="M1016 3.84119C1091.2 3.84119 1152.16 64.8012 1152.16 139.997C1152.16 215.196 1091.2 276.153 1016 276.153C940.801 276.153 879.844 215.193 879.844 139.997C879.841 64.8012 940.801 3.84119 1016 3.84119ZM1016 229.863C1065.63 229.863 1105.86 189.63 1105.86 140C1105.86 90.3705 1065.63 50.1375 1016 50.1375C966.37 50.1375 926.138 90.3705 926.138 140C926.138 189.63 966.37 229.863 1016 229.863ZM1016 0C938.805 0 876 62.8048 876 140C876 217.195 938.805 280 1016 280C1093.2 280 1156 217.195 1156 140C1156 62.8048 1093.2 0 1016 0ZM1016 226.021C968.569 226.021 929.979 187.431 929.979 140C929.979 92.5689 968.569 53.9787 1016 53.9787C1063.43 53.9787 1102.02 92.5689 1102.02 140C1102.02 187.431 1063.43 226.021 1016 226.021Z" fill="url(#paint5_linear)"/>
<path d="M904.774 128.008C906.063 128.103 907.249 128.239 908.336 128.415C909.423 128.59 910.356 128.917 911.132 129.392C911.907 129.867 912.498 130.545 912.908 131.427C913.315 132.306 913.484 133.5 913.416 135.004C913.377 135.809 913.276 136.548 913.113 137.223C912.947 137.897 912.691 138.491 912.344 139.005C911.996 139.519 911.536 139.956 910.962 140.315C910.389 140.675 909.658 140.942 908.77 141.118C908.354 141.186 907.944 141.216 907.54 141.207C907.136 141.198 906.729 141.192 906.316 141.189L906.488 137.428C906.99 137.431 907.469 137.422 907.917 137.401C908.366 137.377 908.764 137.282 909.114 137.119C909.462 136.955 909.744 136.7 909.958 136.349C910.169 136.002 910.312 135.503 910.377 134.861C910.41 134.124 910.243 133.563 909.875 133.168C909.507 132.773 909.058 132.487 908.529 132.309C908 132.131 907.448 132.027 906.874 131.991C906.301 131.956 905.817 131.929 905.425 131.911L899.837 131.653C899.424 131.635 898.963 131.635 898.449 131.656C897.935 131.676 897.451 131.76 896.997 131.911C896.542 132.063 896.159 132.312 895.844 132.666C895.532 133.019 895.36 133.518 895.33 134.163C895.306 134.701 895.419 135.158 895.672 135.538C895.924 135.919 896.281 136.228 896.747 136.462C897.211 136.7 897.769 136.872 898.42 136.985C899.07 137.095 899.771 137.16 900.526 137.178L900.645 134.57L903.601 134.707L903.312 140.969L892.481 140.467L892.612 137.645L894.923 137.752L894.926 137.698C894.415 137.475 893.99 137.226 893.655 136.953C893.319 136.676 893.049 136.376 892.847 136.052C892.647 135.729 892.505 135.393 892.422 135.051C892.339 134.707 892.297 134.362 892.294 134.02C892.365 132.479 892.653 131.281 893.161 130.426C893.669 129.57 894.344 128.94 895.187 128.539C896.031 128.138 897.023 127.91 898.167 127.856C899.311 127.803 900.553 127.806 901.898 127.868L904.774 128.008Z" fill="black"/>
<path d="M904.208 143.734C905.497 143.654 906.691 143.624 907.79 143.651C908.892 143.675 909.861 143.871 910.696 144.236C911.527 144.602 912.211 145.19 912.734 146.01C913.259 146.827 913.589 147.983 913.726 149.486C913.863 150.986 913.747 152.183 913.378 153.083C913.01 153.981 912.448 154.685 911.694 155.196C910.939 155.707 910.021 156.075 908.946 156.298C907.868 156.523 906.688 156.711 905.405 156.865L902.538 157.127C901.198 157.248 899.959 157.308 898.813 157.305C897.669 157.302 896.665 157.118 895.806 156.755C894.945 156.393 894.241 155.796 893.697 154.964C893.153 154.132 892.812 152.947 892.672 151.411C892.532 149.875 892.654 148.648 893.04 147.73C893.424 146.812 894.006 146.099 894.79 145.585C895.572 145.074 896.525 144.712 897.651 144.501C898.774 144.29 900.007 144.124 901.347 144.002L904.208 143.734ZM899.82 148.027C899.41 148.066 898.952 148.128 898.447 148.22C897.942 148.309 897.476 148.461 897.045 148.672C896.614 148.883 896.27 149.183 896.008 149.575C895.747 149.967 895.646 150.484 895.705 151.129C895.765 151.788 895.964 152.287 896.299 152.629C896.638 152.967 897.051 153.202 897.538 153.339C898.028 153.473 898.545 153.529 899.095 153.508C899.641 153.484 900.155 153.449 900.64 153.407L905.782 152.938C906.174 152.902 906.664 152.849 907.253 152.777C907.841 152.706 908.402 152.56 908.94 152.341C909.478 152.118 909.92 151.809 910.271 151.408C910.621 151.007 910.767 150.457 910.702 149.762C910.633 149.028 910.393 148.494 909.974 148.155C909.555 147.813 909.071 147.593 908.521 147.489C907.971 147.388 907.41 147.359 906.837 147.4C906.263 147.445 905.782 147.483 905.39 147.519L899.82 148.027Z" fill="black"/>
<path d="M905.82 159.419C907.086 159.158 908.262 158.962 909.359 158.831C910.452 158.7 911.438 158.757 912.314 159C913.194 159.244 913.948 159.734 914.584 160.468C915.217 161.202 915.707 162.304 916.055 163.769C916.402 165.233 916.456 166.439 916.218 167.378C915.98 168.317 915.523 169.095 914.848 169.707C914.174 170.316 913.319 170.809 912.282 171.184C911.245 171.558 910.104 171.911 908.856 172.244L906.058 172.907C904.748 173.216 903.527 173.45 902.395 173.608C901.263 173.765 900.244 173.724 899.338 173.489C898.435 173.251 897.654 172.758 896.997 172.009C896.344 171.261 895.836 170.138 895.482 168.635C895.129 167.134 895.075 165.902 895.328 164.939C895.58 163.977 896.055 163.186 896.757 162.568C897.458 161.95 898.349 161.46 899.433 161.092C900.515 160.727 901.712 160.388 903.022 160.076L905.82 159.419ZM902.08 164.283C901.679 164.378 901.233 164.505 900.749 164.666C900.262 164.826 899.819 165.043 899.421 165.31C899.023 165.578 898.723 165.928 898.521 166.353C898.319 166.778 898.289 167.307 898.438 167.934C898.592 168.578 898.857 169.048 899.24 169.333C899.62 169.621 900.063 169.799 900.568 169.862C901.07 169.927 901.593 169.909 902.131 169.811C902.668 169.71 903.173 169.606 903.646 169.493L908.672 168.305C909.055 168.216 909.534 168.091 910.107 167.937C910.678 167.782 911.215 167.559 911.717 167.268C912.219 166.974 912.614 166.603 912.906 166.157C913.197 165.711 913.262 165.147 913.102 164.467C912.932 163.751 912.614 163.255 912.154 162.978C911.694 162.702 911.183 162.548 910.624 162.524C910.066 162.5 909.507 162.551 908.946 162.672C908.384 162.797 907.912 162.904 907.529 162.996L902.08 164.283Z" fill="black"/>
<path d="M898.845 179.258L917.62 171.879L920.496 179.19C920.579 179.407 920.653 179.677 920.712 180.001C920.772 180.325 920.787 180.684 920.76 181.079C920.733 181.474 920.647 181.893 920.502 182.336C920.356 182.779 920.121 183.218 919.792 183.655C919.298 184.312 918.553 184.918 917.558 185.473C916.562 186.026 915.279 186.614 913.71 187.229C912.775 187.597 911.824 187.954 910.85 188.295C909.878 188.64 908.919 188.895 907.974 189.065C907.029 189.234 906.123 189.261 905.262 189.148C904.397 189.035 903.616 188.702 902.918 188.147C902.534 187.853 902.225 187.49 901.994 187.051C901.762 186.611 901.563 186.177 901.394 185.74L898.845 179.258ZM903.577 183.209C903.886 183.994 904.24 184.561 904.638 184.918C905.036 185.271 905.556 185.452 906.194 185.461C906.833 185.47 907.617 185.322 908.547 185.016C909.477 184.707 910.618 184.288 911.97 183.756C913.072 183.325 913.999 182.918 914.759 182.544C915.517 182.17 916.111 181.786 916.533 181.4C916.957 181.011 917.219 180.604 917.314 180.182C917.409 179.76 917.353 179.291 917.148 178.774L916.244 176.472L902.974 181.685L903.577 183.209Z" fill="black"/>
<path d="M911.432 205.663L909.302 202.558L925.938 191.147L929.331 196.094L922.753 203.054C922.21 203.622 921.651 204.171 921.075 204.694C920.502 205.22 919.913 205.743 919.313 206.263L919.343 206.307C920.222 205.811 920.98 205.395 921.616 205.057C922.254 204.718 922.887 204.421 923.514 204.162L932.373 200.529L935.75 205.455L919.114 216.865L916.984 213.761L922.219 210.169C923.873 209.034 925.54 207.917 927.212 206.824C928.885 205.731 930.587 204.667 932.313 203.634L932.284 203.589L914.851 210.656L913.559 208.77L926.473 195.116L926.398 195.006C924.812 196.245 923.208 197.448 921.583 198.619C919.961 199.786 918.321 200.939 916.666 202.074L911.432 205.663Z" fill="black"/>
<path d="M921.648 219.804L939.58 209.383L943.085 213.067L931.627 230.288L928.844 227.365L931.859 223.12L928.817 219.923L924.429 222.727L921.648 219.804ZM931.369 218.313L933.594 220.651L937.04 215.96C937.316 215.574 937.604 215.2 937.904 214.84C938.204 214.481 938.505 214.118 938.805 213.759C938.962 213.586 939.114 213.414 939.265 213.248C939.417 213.078 939.556 212.909 939.687 212.734L939.648 212.695C939.467 212.817 939.289 212.948 939.117 213.09C938.941 213.23 938.763 213.376 938.585 213.524C938.21 213.806 937.833 214.088 937.462 214.371C937.087 214.653 936.698 214.923 936.3 215.179L931.369 218.313Z" fill="black"/>
<path d="M953.929 222.484L956.879 224.828L944.331 240.623L941.256 238.181L943.428 230.734C943.781 229.48 944.188 228.226 944.652 226.967C945.112 225.707 945.665 224.314 946.306 222.784L946.265 222.751C945.795 223.455 945.284 224.216 944.726 225.033C944.167 225.85 943.594 226.675 943 227.51C942.406 228.345 941.82 229.153 941.247 229.931C940.674 230.713 940.136 231.417 939.634 232.05L937.275 235.02L934.325 232.676L946.874 216.881L949.928 219.308L947.655 226.883C947.307 228.098 946.903 229.334 946.443 230.594C945.982 231.853 945.424 233.265 944.776 234.833L944.821 234.866C945.332 234.105 945.867 233.327 946.419 232.531C946.972 231.735 947.527 230.939 948.089 230.148C948.647 229.355 949.212 228.577 949.773 227.81C950.335 227.044 950.902 226.301 951.472 225.588L953.929 222.484Z" fill="black"/>
<path d="M966.195 230.439L969.442 232.343L962.33 244.482C961.769 245.441 961.19 246.226 960.596 246.832C959.998 247.441 959.357 247.857 958.662 248.082C957.966 248.308 957.2 248.335 956.359 248.154C955.522 247.973 954.568 247.571 953.498 246.945C952.432 246.321 951.609 245.682 951.033 245.031C950.456 244.381 950.094 243.698 949.945 242.976C949.794 242.254 949.841 241.487 950.079 240.67C950.317 239.856 950.718 238.968 951.282 238.009L958.394 225.873L961.641 227.777L954.693 239.637C954.449 240.052 954.226 240.474 954.03 240.899C953.834 241.324 953.718 241.737 953.683 242.129C953.647 242.524 953.727 242.91 953.923 243.285C954.119 243.659 954.497 244.01 955.052 244.336C955.578 244.645 956.047 244.791 956.463 244.773C956.879 244.755 957.25 244.636 957.58 244.414C957.91 244.191 958.204 243.888 958.471 243.504C958.739 243.121 958.994 242.717 959.238 242.301L966.195 230.439Z" fill="black"/>
<path d="M963.301 251.675L971.209 233.116L981.033 237.302L979.872 240.023L973.514 237.311L971.509 242.014L977.474 244.557L976.313 247.278L970.35 244.738L966.765 253.151L963.301 251.675Z" fill="black"/>
<path d="M974.686 256.501L984.92 238.46L989.804 239.874L988.589 260.524L984.712 259.401L985.178 254.217L980.939 252.99L978.562 257.621L974.686 256.501ZM982.329 250.313L985.428 251.21L986.04 245.423C986.084 244.951 986.144 244.485 986.221 244.021C986.301 243.561 986.375 243.097 986.456 242.634C986.503 242.408 986.551 242.182 986.595 241.96C986.64 241.74 986.676 241.52 986.699 241.306L986.649 241.291C986.554 241.487 986.468 241.692 986.387 241.9C986.307 242.111 986.227 242.325 986.147 242.545C985.966 242.978 985.781 243.409 985.603 243.843C985.422 244.277 985.223 244.704 985.006 245.126L982.329 250.313Z" fill="black"/>
<path d="M1004.57 255.798C1004.52 255.988 1004.48 256.178 1004.44 256.362C1004.4 256.549 1004.36 256.736 1004.31 256.93C1004.12 257.824 1003.87 258.653 1003.55 259.413C1003.24 260.174 1002.82 260.806 1002.31 261.32C1001.8 261.831 1001.17 262.2 1000.43 262.42C999.687 262.642 998.802 262.678 997.774 262.518C996.25 262.286 995.088 261.873 994.289 261.279C993.49 260.685 992.938 259.948 992.626 259.066C992.314 258.183 992.192 257.173 992.257 256.029C992.323 254.889 992.456 253.653 992.658 252.322L993.092 249.479C993.324 248.207 993.582 247.043 993.87 245.976C994.159 244.916 994.58 244.022 995.136 243.3C995.692 242.578 996.428 242.061 997.346 241.746C998.264 241.434 999.467 241.389 1000.96 241.615C1004.32 242.183 1005.87 244.179 1005.62 247.604C1005.62 247.857 1005.61 248.115 1005.59 248.374C1005.56 248.635 1005.53 248.885 1005.47 249.131L1001.8 248.573C1001.81 248.249 1001.84 247.872 1001.88 247.441C1001.92 247.01 1001.92 246.603 1001.86 246.214C1001.82 245.825 1001.69 245.48 1001.49 245.177C1001.29 244.874 1000.96 244.687 1000.5 244.619C999.779 244.509 999.2 244.616 998.769 244.94C998.338 245.263 998.009 245.679 997.777 246.19C997.545 246.698 997.382 247.236 997.287 247.803C997.192 248.371 997.112 248.849 997.055 249.238L996.211 254.77C996.149 255.18 996.102 255.637 996.069 256.151C996.036 256.662 996.069 257.152 996.17 257.622C996.271 258.091 996.482 258.498 996.8 258.846C997.118 259.193 997.596 259.416 998.235 259.514C998.748 259.591 999.155 259.472 999.458 259.155C999.759 258.837 1000 258.439 1000.18 257.96C1000.36 257.479 1000.5 256.986 1000.59 256.472C1000.67 255.961 1000.75 255.545 1000.82 255.227L1004.57 255.798Z" fill="black"/>
<path d="M1007.06 242.996L1019.62 243.314L1019.54 246.273L1015.16 246.163L1014.73 263.373L1010.96 263.277L1011.4 246.068L1006.99 245.955L1007.06 242.996Z" fill="black"/>
<path d="M1029.58 242.339L1033.32 241.947L1034.79 255.937C1034.91 257.045 1034.91 258.016 1034.79 258.857C1034.67 259.701 1034.4 260.416 1033.97 261.014C1033.55 261.608 1032.95 262.08 1032.16 262.434C1031.38 262.787 1030.37 263.028 1029.14 263.156C1027.91 263.286 1026.87 263.259 1026.02 263.078C1025.18 262.897 1024.48 262.561 1023.93 262.068C1023.38 261.578 1022.96 260.93 1022.67 260.131C1022.38 259.335 1022.17 258.382 1022.06 257.276L1020.59 243.284L1024.33 242.889L1025.77 256.56C1025.82 257.042 1025.9 257.511 1025.99 257.972C1026.08 258.429 1026.23 258.83 1026.44 259.166C1026.65 259.504 1026.94 259.769 1027.32 259.953C1027.7 260.14 1028.21 260.197 1028.85 260.128C1029.46 260.066 1029.93 259.903 1030.25 259.641C1030.57 259.383 1030.8 259.065 1030.94 258.69C1031.07 258.316 1031.13 257.894 1031.12 257.428C1031.1 256.961 1031.07 256.486 1031.02 256.005L1029.58 242.339Z" fill="black"/>
<path d="M1041.51 251.856L1043.63 260.281L1039.98 261.199L1035.05 241.636L1041.96 239.896C1042.75 239.699 1043.5 239.587 1044.21 239.566C1044.93 239.542 1045.58 239.649 1046.16 239.89C1046.75 240.13 1047.27 240.513 1047.7 241.042C1048.14 241.571 1048.48 242.287 1048.7 243.19C1048.84 243.728 1048.93 244.271 1048.97 244.815C1049.02 245.359 1048.99 245.876 1048.88 246.363C1048.77 246.853 1048.56 247.299 1048.25 247.703C1047.93 248.107 1047.48 248.428 1046.9 248.668L1046.91 248.722C1048.02 248.588 1048.86 248.796 1049.42 249.337C1049.98 249.88 1050.38 250.62 1050.62 251.559C1050.65 251.698 1050.71 251.933 1050.8 252.263C1050.88 252.593 1050.98 252.97 1051.09 253.395C1051.21 253.819 1051.34 254.262 1051.48 254.726C1051.63 255.186 1051.78 255.617 1051.93 256.012C1052.09 256.407 1052.25 256.749 1052.43 257.037C1052.6 257.325 1052.78 257.494 1052.96 257.542L1053.05 257.907L1049.03 258.917C1048.85 258.629 1048.68 258.276 1048.51 257.857C1048.35 257.435 1048.2 256.998 1048.06 256.541C1047.92 256.086 1047.79 255.641 1047.68 255.21C1047.57 254.773 1047.48 254.393 1047.39 254.06C1047.32 253.766 1047.23 253.451 1047.13 253.115C1047.02 252.783 1046.9 252.471 1046.74 252.186C1046.59 251.9 1046.4 251.663 1046.17 251.47C1045.95 251.276 1045.67 251.175 1045.34 251.167C1044.79 251.155 1044.26 251.205 1043.74 251.321C1043.21 251.437 1042.69 251.559 1042.17 251.689L1041.51 251.856ZM1040.79 248.989L1043.66 248.267C1044.24 248.083 1044.68 247.72 1044.99 247.183C1045.3 246.642 1045.33 245.888 1045.09 244.91C1044.95 244.372 1044.79 243.948 1044.59 243.636C1044.39 243.327 1044.17 243.104 1043.92 242.97C1043.67 242.84 1043.4 242.774 1043.11 242.774C1042.81 242.774 1042.49 242.819 1042.14 242.905L1039.43 243.591L1040.79 248.989Z" fill="black"/>
<path d="M1056.47 256.585L1049.56 237.631L1053.1 236.342L1060.01 255.295L1056.47 256.585Z" fill="black"/>
<path d="M1063.3 231.779L1066.69 230.136L1075.49 248.29L1071.95 250.004L1066.18 244.82C1065.21 243.956 1064.25 243.047 1063.32 242.084C1062.38 241.122 1061.37 240.019 1060.27 238.781L1060.22 238.804C1060.65 239.532 1061.11 240.325 1061.61 241.181C1062.1 242.037 1062.6 242.913 1063.09 243.81C1063.59 244.707 1064.06 245.584 1064.52 246.439C1064.97 247.295 1065.37 248.085 1065.72 248.81L1067.38 252.217L1063.99 253.86L1055.19 235.706L1058.7 234.007L1064.54 239.336C1065.48 240.174 1066.42 241.074 1067.36 242.037C1068.29 242.999 1069.33 244.113 1070.45 245.376L1070.5 245.352C1070.04 244.559 1069.57 243.742 1069.09 242.898C1068.61 242.054 1068.13 241.208 1067.66 240.358C1067.19 239.511 1066.73 238.668 1066.29 237.827C1065.84 236.989 1065.42 236.157 1065.02 235.335L1063.3 231.779Z" fill="black"/>
<path d="M1072.77 236.413C1072.08 235.323 1071.48 234.289 1070.97 233.312C1070.46 232.337 1070.17 231.393 1070.09 230.486C1070 229.577 1070.2 228.698 1070.66 227.845C1071.12 226.993 1071.98 226.146 1073.23 225.302C1073.89 224.851 1074.55 224.491 1075.19 224.221C1075.83 223.951 1076.46 223.802 1077.08 223.775C1077.69 223.749 1078.32 223.856 1078.95 224.102C1079.58 224.346 1080.23 224.774 1080.9 225.383C1081.2 225.674 1081.48 225.986 1081.71 226.315C1081.94 226.645 1082.18 226.975 1082.43 227.305L1079.31 229.411C1079.01 229.004 1078.72 228.63 1078.43 228.282C1078.14 227.935 1077.83 227.67 1077.49 227.489C1077.15 227.308 1076.78 227.233 1076.37 227.272C1075.96 227.311 1075.48 227.495 1074.93 227.825C1074.32 228.235 1073.97 228.707 1073.87 229.239C1073.77 229.768 1073.81 230.299 1073.99 230.831C1074.16 231.363 1074.4 231.868 1074.72 232.349C1075.03 232.83 1075.3 233.234 1075.52 233.561L1078.65 238.199C1078.88 238.543 1079.15 238.911 1079.48 239.31C1079.8 239.711 1080.16 240.046 1080.55 240.323C1080.94 240.599 1081.37 240.759 1081.84 240.798C1082.32 240.837 1082.82 240.676 1083.35 240.317C1083.8 240.017 1084.1 239.651 1084.25 239.223C1084.41 238.796 1084.44 238.323 1084.35 237.809C1084.26 237.295 1084.07 236.743 1083.77 236.158C1083.47 235.569 1083.11 234.969 1082.67 234.354L1080.51 235.813L1078.85 233.359L1084.05 229.854L1090.11 238.84L1087.77 240.421L1086.48 238.505L1086.43 238.534C1086.56 239.078 1086.61 239.565 1086.59 239.999C1086.57 240.436 1086.49 240.828 1086.35 241.184C1086.21 241.538 1086.03 241.85 1085.8 242.123C1085.57 242.396 1085.33 242.634 1085.05 242.839C1083.77 243.703 1082.64 244.185 1081.65 244.289C1080.66 244.393 1079.75 244.226 1078.93 243.789C1078.1 243.35 1077.33 242.69 1076.6 241.805C1075.88 240.923 1075.14 239.922 1074.38 238.808L1072.77 236.413Z" fill="black"/>
<path d="M1098.82 231.601L1084.62 217.273L1090.09 211.857C1090.72 211.224 1091.37 210.814 1092.03 210.63C1092.69 210.443 1093.34 210.41 1093.98 210.532C1094.62 210.657 1095.24 210.909 1095.83 211.292C1096.43 211.676 1096.97 212.115 1097.46 212.614C1097.76 212.92 1098.05 213.253 1098.32 213.616C1098.6 213.978 1098.83 214.361 1099.02 214.759C1099.22 215.16 1099.36 215.576 1099.45 216.007C1099.53 216.438 1099.55 216.881 1099.5 217.338C1099.4 218.087 1099.16 218.788 1098.76 219.438C1098.35 220.089 1097.88 220.668 1097.35 221.173L1095.55 222.953L1101.5 228.951L1098.82 231.601ZM1093.47 220.849L1094.91 219.429C1095.49 218.847 1095.81 218.226 1095.86 217.561C1095.9 216.895 1095.5 216.129 1094.64 215.261C1094.24 214.854 1093.87 214.566 1093.54 214.4C1093.21 214.234 1092.89 214.174 1092.58 214.216C1092.27 214.26 1091.96 214.391 1091.65 214.611C1091.34 214.834 1090.99 215.134 1090.61 215.511L1089.38 216.723L1093.47 220.849Z" fill="black"/>
<path d="M1105.54 211.697L1112.45 216.973L1110.16 219.964L1094.13 207.713L1098.46 202.05C1098.95 201.409 1099.47 200.856 1100.01 200.393C1100.56 199.929 1101.14 199.609 1101.75 199.433C1102.36 199.255 1103 199.237 1103.67 199.377C1104.34 199.516 1105.05 199.873 1105.79 200.437C1106.23 200.776 1106.64 201.141 1107.01 201.539C1107.38 201.938 1107.68 202.362 1107.9 202.811C1108.12 203.263 1108.23 203.741 1108.23 204.252C1108.24 204.763 1108.09 205.295 1107.78 205.847L1107.82 205.88C1108.61 205.084 1109.39 204.721 1110.17 204.798C1110.95 204.873 1111.72 205.205 1112.49 205.794C1112.61 205.883 1112.8 206.028 1113.07 206.236C1113.34 206.441 1113.65 206.676 1114.01 206.937C1114.36 207.196 1114.74 207.463 1115.14 207.734C1115.54 208.007 1115.93 208.25 1116.29 208.461C1116.66 208.675 1117 208.842 1117.32 208.957C1117.63 209.076 1117.88 209.097 1118.05 209.023L1118.34 209.252L1115.83 212.543C1115.51 212.433 1115.15 212.264 1114.76 212.032C1114.37 211.803 1113.99 211.557 1113.59 211.287C1113.2 211.019 1112.82 210.749 1112.46 210.479C1112.11 210.205 1111.8 209.968 1111.53 209.76C1111.28 209.572 1111.02 209.382 1110.73 209.183C1110.44 208.987 1110.15 208.824 1109.85 208.696C1109.55 208.571 1109.26 208.5 1108.96 208.488C1108.66 208.476 1108.38 208.571 1108.12 208.776C1107.68 209.103 1107.3 209.471 1106.96 209.89C1106.62 210.306 1106.29 210.728 1105.96 211.156L1105.54 211.697ZM1103.19 209.899L1104.99 207.549C1105.33 207.044 1105.45 206.483 1105.36 205.871C1105.26 205.256 1104.81 204.644 1104.02 204.035C1103.58 203.696 1103.18 203.468 1102.83 203.349C1102.49 203.23 1102.17 203.194 1101.9 203.245C1101.62 203.295 1101.37 203.411 1101.14 203.595C1100.91 203.782 1100.68 204.014 1100.46 204.299L1098.76 206.521L1103.19 209.899Z" fill="black"/>
<path d="M1120.2 206.463L1104.94 192.411L1107.42 187.973L1127.26 193.834L1125.29 197.354L1120.35 195.726L1118.19 199.576L1122.17 202.939L1120.2 206.463ZM1115.9 197.619L1117.48 194.799L1111.98 192.895C1111.53 192.744 1111.08 192.58 1110.65 192.399C1110.22 192.218 1109.79 192.037 1109.35 191.855C1109.14 191.757 1108.93 191.662 1108.73 191.567C1108.52 191.475 1108.32 191.392 1108.11 191.315L1108.09 191.362C1108.26 191.496 1108.43 191.63 1108.62 191.754C1108.81 191.879 1109 192.007 1109.2 192.135C1109.58 192.408 1109.96 192.684 1110.34 192.958C1110.72 193.234 1111.09 193.522 1111.46 193.828L1115.9 197.619Z" fill="black"/>
<path d="M1126.28 177.209C1126.45 177.298 1126.63 177.385 1126.8 177.462C1126.97 177.542 1127.15 177.625 1127.32 177.714C1128.15 178.103 1128.9 178.537 1129.57 179.015C1130.24 179.497 1130.76 180.043 1131.14 180.658C1131.53 181.273 1131.74 181.968 1131.79 182.741C1131.84 183.513 1131.67 184.384 1131.28 185.346C1130.71 186.781 1130.05 187.818 1129.29 188.459C1128.53 189.104 1127.69 189.476 1126.76 189.577C1125.83 189.678 1124.81 189.568 1123.72 189.247C1122.62 188.923 1121.45 188.513 1120.2 188.014L1117.52 186.95C1116.34 186.439 1115.26 185.92 1114.29 185.4C1113.32 184.877 1112.55 184.265 1111.97 183.561C1111.39 182.857 1111.05 182.022 1110.96 181.056C1110.86 180.091 1111.09 178.909 1111.65 177.509C1112.96 174.363 1115.26 173.303 1118.54 174.322C1118.79 174.381 1119.03 174.452 1119.28 174.533C1119.53 174.613 1119.77 174.708 1119.99 174.815L1118.61 178.264C1118.3 178.178 1117.94 178.068 1117.53 177.931C1117.12 177.797 1116.72 177.708 1116.33 177.67C1115.94 177.631 1115.57 177.673 1115.24 177.797C1114.9 177.922 1114.64 178.201 1114.47 178.635C1114.2 179.318 1114.17 179.907 1114.39 180.4C1114.61 180.893 1114.94 181.309 1115.38 181.651C1115.82 181.992 1116.31 182.274 1116.84 182.494C1117.37 182.717 1117.81 182.898 1118.18 183.047L1123.38 185.12C1123.76 185.275 1124.2 185.423 1124.69 185.572C1125.18 185.72 1125.66 185.798 1126.14 185.804C1126.62 185.813 1127.06 185.7 1127.48 185.468C1127.89 185.236 1128.21 184.82 1128.45 184.223C1128.64 183.739 1128.62 183.314 1128.38 182.949C1128.14 182.583 1127.81 182.257 1127.38 181.971C1126.95 181.683 1126.5 181.44 1126.02 181.241C1125.54 181.039 1125.15 180.872 1124.86 180.733L1126.28 177.209Z" fill="black"/>
<path d="M1114.38 171.876L1117.51 159.711L1120.37 160.448L1119.28 164.693L1135.95 168.983L1135.01 172.631L1118.34 168.341L1117.24 172.613L1114.38 171.876Z" fill="black"/>
<path d="M1137.49 161.601L1117.58 158.398L1118.17 154.679L1138.09 157.884L1137.49 161.601Z" fill="black"/>
<path d="M1132.34 141.278C1132.53 141.307 1132.73 141.334 1132.91 141.355C1133.1 141.376 1133.29 141.402 1133.49 141.432C1134.39 141.545 1135.24 141.726 1136.03 141.973C1136.81 142.222 1137.48 142.579 1138.03 143.045C1138.59 143.512 1139.01 144.106 1139.29 144.825C1139.58 145.544 1139.69 146.423 1139.62 147.46C1139.53 148.999 1139.21 150.193 1138.69 151.037C1138.17 151.883 1137.48 152.501 1136.63 152.887C1135.78 153.271 1134.79 153.482 1133.64 153.517C1132.5 153.553 1131.26 153.526 1129.91 153.44L1127.04 153.256C1125.76 153.137 1124.57 152.979 1123.49 152.783C1122.4 152.587 1121.48 152.246 1120.71 151.756C1119.94 151.268 1119.37 150.576 1118.97 149.691C1118.58 148.803 1118.43 147.608 1118.53 146.105C1118.8 142.71 1120.65 140.984 1124.09 140.936C1124.34 140.918 1124.6 140.906 1124.86 140.903C1125.12 140.903 1125.38 140.921 1125.62 140.954L1125.39 144.658C1125.06 144.673 1124.69 144.682 1124.26 144.679C1123.82 144.679 1123.42 144.721 1123.03 144.804C1122.65 144.887 1122.32 145.042 1122.03 145.264C1121.75 145.49 1121.59 145.835 1121.56 146.301C1121.52 147.035 1121.67 147.602 1122.03 148C1122.4 148.402 1122.84 148.696 1123.36 148.883C1123.89 149.07 1124.44 149.186 1125.01 149.23C1125.59 149.278 1126.07 149.314 1126.46 149.337L1132.05 149.697C1132.46 149.724 1132.92 149.729 1133.44 149.721C1133.95 149.709 1134.43 149.631 1134.89 149.489C1135.35 149.349 1135.74 149.103 1136.06 148.755C1136.37 148.407 1136.55 147.911 1136.6 147.267C1136.63 146.747 1136.48 146.352 1136.14 146.078C1135.79 145.805 1135.38 145.597 1134.88 145.46C1134.39 145.321 1133.88 145.229 1133.36 145.187C1132.84 145.143 1132.42 145.104 1132.1 145.065L1132.34 141.278Z" fill="black"/>
<path d="M1139.44 138.007L1119.3 139.13L1118.71 128.551L1121.66 128.384L1122.04 135.205L1127.12 134.923L1126.77 128.64L1129.72 128.473L1130.07 134.757L1136.28 134.412L1135.9 127.591L1138.85 127.425L1139.44 138.007Z" fill="black"/>
<path d="M909.456 101.06C910.142 101.274 910.748 101.609 911.271 102.067C911.797 102.521 912.213 103.044 912.522 103.635C912.831 104.227 913.021 104.865 913.095 105.554C913.169 106.244 913.098 106.933 912.881 107.619C912.664 108.305 912.332 108.908 911.88 109.422C911.429 109.939 910.909 110.349 910.318 110.658C909.729 110.967 909.088 111.151 908.401 111.217C907.712 111.282 907.026 111.205 906.34 110.991C905.653 110.774 905.047 110.447 904.531 110.002C904.014 109.559 903.598 109.042 903.292 108.451C902.983 107.86 902.796 107.227 902.73 106.547C902.662 105.866 902.739 105.183 902.953 104.497C903.17 103.811 903.5 103.205 903.948 102.676C904.394 102.15 904.911 101.731 905.502 101.422C906.09 101.113 906.729 100.923 907.409 100.846C908.084 100.772 908.77 100.843 909.456 101.06Z" fill="black"/>
<path d="M923.347 74.5844C923.953 74.9736 924.449 75.4549 924.835 76.0312C925.221 76.6075 925.486 77.2225 925.628 77.8731C925.771 78.5237 925.789 79.1921 925.676 79.8783C925.566 80.5646 925.316 81.2092 924.927 81.8152C924.538 82.4213 924.06 82.9144 923.489 83.2917C922.916 83.672 922.307 83.9304 921.656 84.073C921.006 84.2156 920.34 84.2275 919.66 84.1087C918.98 83.9898 918.335 83.7373 917.729 83.3511C917.123 82.962 916.627 82.4866 916.244 81.9222C915.86 81.3578 915.596 80.7517 915.453 80.1011C915.311 79.4505 915.296 78.791 915.409 78.1167C915.525 77.4453 915.774 76.8036 916.16 76.1975C916.55 75.5915 917.028 75.0924 917.595 74.7003C918.166 74.3081 918.775 74.0408 919.425 73.8982C920.076 73.7556 920.741 73.7378 921.419 73.8417C922.099 73.9487 922.741 74.1953 923.347 74.5844Z" fill="black"/>
<path d="M943.643 52.6689C944.127 53.2006 944.481 53.7977 944.704 54.4543C944.929 55.1108 945.024 55.7733 944.992 56.4387C944.959 57.1042 944.802 57.7518 944.516 58.3846C944.231 59.0174 943.824 59.5759 943.292 60.0631C942.761 60.5473 942.167 60.8979 941.519 61.1147C940.868 61.3316 940.212 61.4267 939.546 61.394C938.881 61.3643 938.236 61.2009 937.609 60.9097C936.983 60.6186 936.427 60.2057 935.943 59.6739C935.459 59.1421 935.105 58.5539 934.879 57.9093C934.656 57.2646 934.558 56.6111 934.591 55.9456C934.624 55.2802 934.781 54.6385 935.063 54.0176C935.349 53.3967 935.756 52.8441 936.287 52.3599C936.819 51.8757 937.413 51.5192 938.064 51.2875C938.715 51.0587 939.371 50.9577 940.037 50.9904C940.702 51.0231 941.347 51.1775 941.973 51.4538C942.603 51.7301 943.159 52.1371 943.643 52.6689Z" fill="black"/>
<path d="M973.237 38.091C973.312 38.2811 973.386 38.4653 973.463 38.6436C973.54 38.8218 973.615 39.006 973.689 39.1961C974.054 40.0636 974.328 40.9132 974.506 41.7391C974.687 42.565 974.711 43.3463 974.577 44.0801C974.443 44.8139 974.129 45.4942 973.632 46.118C973.136 46.7419 972.408 47.2885 971.449 47.7608C970.023 48.4619 968.799 48.7947 967.774 48.762C966.752 48.7293 965.849 48.4322 965.068 47.8708C964.286 47.3093 963.588 46.525 962.973 45.5209C962.358 44.5168 961.743 43.3938 961.131 42.152L959.824 39.4932C959.272 38.2841 958.805 37.1463 958.425 36.0798C958.045 35.0133 957.875 34.0092 957.92 33.0734C957.965 32.1376 958.28 31.2672 958.874 30.4621C959.465 29.657 960.457 28.9143 961.847 28.2281C965.02 26.7308 967.51 27.5032 969.31 30.5453C969.456 30.7622 969.598 30.985 969.732 31.2167C969.865 31.4484 969.984 31.6861 970.079 31.9237L966.648 33.6081C966.467 33.3259 966.268 32.9932 966.048 32.607C965.828 32.2208 965.582 31.8792 965.311 31.5791C965.041 31.282 964.732 31.0622 964.387 30.9226C964.043 30.7829 963.654 30.8216 963.223 31.0325C962.543 31.3652 962.118 31.796 961.942 32.3248C961.77 32.8506 961.737 33.3972 961.838 33.9646C961.942 34.5291 962.121 35.0816 962.37 35.6134C962.623 36.1481 962.837 36.5967 963.018 36.9621L965.558 42.1313C965.745 42.5115 965.974 42.9274 966.247 43.3819C966.52 43.8335 966.838 44.2286 967.198 44.5643C967.56 44.9 967.976 45.1228 968.451 45.2298C968.924 45.3367 969.458 45.2416 970.056 44.9505C970.537 44.7128 970.813 44.3742 970.881 43.9286C970.95 43.4829 970.92 43.0047 970.792 42.4907C970.665 41.9797 970.486 41.4807 970.261 40.9964C970.032 40.5122 969.854 40.1171 969.723 39.8111L973.237 38.091Z" fill="black"/>
<path d="M977.967 44.2071L971.283 24.5466L981.61 21.0352L982.59 23.9198L975.929 26.1835L977.614 31.1387L983.749 29.0532L984.729 31.9378L978.594 34.0233L980.653 40.0777L987.313 37.814L988.294 40.6986L977.967 44.2071Z" fill="black"/>
<path d="M991.832 30.735L993.54 39.5136L989.734 40.2533L985.771 19.868L992.973 18.4687C993.79 18.3113 994.565 18.24 995.302 18.2549C996.038 18.2727 996.701 18.4212 997.292 18.7005C997.88 18.9797 998.388 19.4045 998.807 19.972C999.226 20.5394 999.529 21.2939 999.713 22.2357C999.823 22.7971 999.883 23.3586 999.9 23.9201C999.915 24.4816 999.853 25.0104 999.713 25.5065C999.577 26.0026 999.333 26.4512 998.988 26.8463C998.644 27.2414 998.16 27.5474 997.545 27.7613L997.554 27.8148C998.706 27.7405 999.556 27.9989 1000.1 28.5872C1000.65 29.1783 1001.02 29.9596 1001.21 30.94C1001.24 31.0856 1001.28 31.3292 1001.35 31.6738C1001.42 32.0184 1001.5 32.4135 1001.6 32.8532C1001.69 33.2958 1001.8 33.7592 1001.92 34.2435C1002.05 34.7277 1002.18 35.1763 1002.31 35.5922C1002.45 36.0081 1002.6 36.3676 1002.76 36.6765C1002.93 36.9825 1003.1 37.1667 1003.28 37.2231L1003.36 37.6034L999.173 38.4174C999 38.1114 998.843 37.7401 998.7 37.2974C998.558 36.8548 998.427 36.3973 998.305 35.922C998.183 35.4466 998.079 34.9832 997.993 34.5287C997.904 34.0771 997.827 33.679 997.761 33.3315C997.702 33.0225 997.628 32.6957 997.542 32.3452C997.453 31.9946 997.34 31.6708 997.197 31.3678C997.054 31.0677 996.873 30.8093 996.653 30.5984C996.434 30.3874 996.151 30.2686 995.807 30.2419C995.254 30.2003 994.705 30.2211 994.155 30.3102C993.608 30.3993 993.062 30.4944 992.518 30.6013L991.832 30.735ZM991.25 27.7435L994.241 27.1612C994.85 27.0067 995.328 26.6591 995.676 26.1214C996.024 25.5837 996.098 24.8083 995.899 23.7923C995.789 23.2309 995.64 22.7853 995.456 22.4525C995.269 22.1228 995.052 21.8821 994.809 21.7336C994.562 21.5821 994.286 21.5019 993.986 21.4841C993.683 21.4692 993.347 21.4959 992.984 21.5643L990.156 22.1139L991.25 27.7435Z" fill="black"/>
<path d="M1002.72 16.8652L1015.63 16.1611L1015.8 19.2032L1011.29 19.4498L1012.26 37.1436L1008.39 37.3545L1007.42 19.6607L1002.89 19.9073L1002.72 16.8652Z" fill="black"/>
<path d="M1018.16 37.0984L1018.98 16.3477L1022.85 16.4992L1022.04 37.2499L1018.16 37.0984Z" fill="black"/>
<path d="M1024.49 37.3208L1027.15 16.7275L1038.06 18.1386L1037.66 21.1599L1030.61 20.2449L1029.93 25.4616L1036.55 26.3201L1036.16 29.3414L1029.55 28.4828L1028.34 37.817L1024.49 37.3208Z" fill="black"/>
<path d="M1036.92 39.2019L1041.5 18.9473L1045.29 19.8028L1040.7 40.0575L1036.92 39.2019Z" fill="black"/>
<path d="M1042.94 40.524L1049.36 20.7744L1059.74 24.1462L1058.8 27.0427L1052.11 24.8681L1050.49 29.8441L1056.65 31.8464L1055.71 34.7429L1049.55 32.7406L1047.57 38.8247L1054.26 40.9993L1053.32 43.8958L1042.94 40.524Z" fill="black"/>
<path d="M1054.86 44.4626L1063.89 25.7617L1071.17 29.2761C1071.39 29.3801 1071.63 29.5346 1071.9 29.7366C1072.17 29.9386 1072.44 30.2 1072.69 30.5179C1072.95 30.8358 1073.18 31.2131 1073.38 31.6498C1073.58 32.0835 1073.71 32.5826 1073.77 33.1411C1073.85 33.9818 1073.71 34.9592 1073.35 36.0762C1072.98 37.1902 1072.42 38.53 1071.67 40.0927C1071.22 41.0225 1070.75 41.9583 1070.25 42.9C1069.76 43.8388 1069.21 44.7033 1068.62 45.4935C1068.02 46.2808 1067.36 46.9343 1066.63 47.4542C1065.89 47.9711 1065.07 48.2652 1064.15 48.3365C1063.66 48.3841 1063.17 48.3246 1062.69 48.1523C1062.21 47.983 1061.75 47.7929 1061.32 47.5819L1054.86 44.4626ZM1061.2 44.1418C1061.98 44.5191 1062.64 44.7003 1063.19 44.6884C1063.74 44.6765 1064.26 44.4508 1064.75 44.0111C1065.24 43.5714 1065.73 42.9119 1066.22 42.0266C1066.7 41.1443 1067.27 40.0303 1067.92 38.6845C1068.45 37.5883 1068.87 36.6317 1069.18 35.8177C1069.49 35.0038 1069.67 34.3027 1069.72 33.7115C1069.77 33.1203 1069.68 32.6331 1069.46 32.2469C1069.24 31.8637 1068.87 31.5458 1068.35 31.2962L1066.06 30.1882L1059.68 43.4051L1061.2 44.1418Z" fill="black"/>
<path d="M1096.03 59.644C1095.54 60.1758 1094.98 60.5857 1094.35 60.8709C1093.72 61.1561 1093.07 61.3136 1092.4 61.3463C1091.74 61.3789 1091.07 61.2839 1090.42 61.0581C1089.76 60.8353 1089.16 60.4788 1088.63 59.9975C1088.1 59.5133 1087.69 58.9578 1087.42 58.3309C1087.14 57.7041 1086.98 57.0565 1086.95 56.394C1086.92 55.7286 1087.02 55.072 1087.25 54.4184C1087.48 53.7679 1087.84 53.1767 1088.32 52.6419C1088.8 52.1102 1089.36 51.7002 1089.98 51.418C1090.6 51.1328 1091.24 50.9753 1091.91 50.9427C1092.57 50.91 1093.23 51.008 1093.87 51.2308C1094.51 51.4536 1095.1 51.8101 1095.63 52.2914C1096.17 52.7756 1096.58 53.3312 1096.87 53.958C1097.16 54.5848 1097.32 55.2295 1097.35 55.8949C1097.39 56.5604 1097.29 57.2199 1097.08 57.8675C1096.86 58.5211 1096.51 59.1123 1096.03 59.644Z" fill="black"/>
<path d="M1114.27 83.3479C1113.66 83.7371 1113.01 83.9866 1112.33 84.0966C1111.64 84.2065 1110.98 84.1916 1110.33 84.049C1109.67 83.9064 1109.06 83.642 1108.48 83.2558C1107.91 82.8696 1107.43 82.3735 1107.04 81.7675C1106.65 81.1615 1106.4 80.5198 1106.3 79.8424C1106.19 79.1651 1106.21 78.4997 1106.35 77.852C1106.5 77.2014 1106.76 76.5924 1107.16 76.022C1107.55 75.4546 1108.05 74.9763 1108.65 74.5872C1109.26 74.198 1109.9 73.9485 1110.57 73.8356C1111.24 73.7227 1111.91 73.7375 1112.55 73.8801C1113.2 74.0227 1113.81 74.2871 1114.37 74.6703C1114.94 75.0536 1115.41 75.5497 1115.8 76.1557C1116.19 76.7618 1116.44 77.4064 1116.56 78.0867C1116.68 78.767 1116.67 79.4325 1116.53 80.0831C1116.38 80.7337 1116.12 81.3427 1115.74 81.916C1115.37 82.4805 1114.87 82.9617 1114.27 83.3479Z" fill="black"/>
<path d="M1125.65 110.946C1124.96 111.163 1124.27 111.234 1123.59 111.16C1122.9 111.086 1122.25 110.896 1121.66 110.59C1121.07 110.281 1120.55 109.865 1120.09 109.342C1119.64 108.816 1119.3 108.213 1119.09 107.527C1118.87 106.841 1118.8 106.154 1118.88 105.474C1118.95 104.791 1119.14 104.155 1119.45 103.567C1119.76 102.976 1120.18 102.459 1120.7 102.01C1121.23 101.564 1121.84 101.235 1122.52 101.018C1123.21 100.801 1123.89 100.727 1124.57 100.795C1125.26 100.863 1125.89 101.051 1126.48 101.357C1127.07 101.665 1127.59 102.078 1128.03 102.595C1128.48 103.112 1128.8 103.715 1129.02 104.405C1129.24 105.091 1129.31 105.777 1129.24 106.466C1129.18 107.152 1128.99 107.794 1128.69 108.382C1128.38 108.974 1127.97 109.493 1127.45 109.945C1126.94 110.397 1126.34 110.732 1125.65 110.946Z" fill="black"/>
<path d="M976.234 156.788L975.61 151.542H975.453C974.045 154.049 972.449 155.769 970.679 156.708C968.905 157.647 966.532 158.116 963.555 158.116C960.632 158.116 958.193 157.647 956.235 156.708C954.277 155.769 952.697 154.45 951.5 152.754C950.299 151.061 949.438 149.076 948.915 146.807C948.392 144.537 948.134 142.071 948.134 139.409V115.299C948.134 108.879 949.634 104.158 952.634 101.131C955.635 98.1039 960.293 96.5918 966.606 96.5918C972.503 96.5918 977.096 97.9227 980.384 100.584C983.673 103.246 985.316 107.578 985.316 113.579V117.963H971.537V114.755C971.537 112.251 971.276 110.37 970.756 109.119C970.233 107.866 969.06 107.215 967.236 107.162C965.094 107.111 963.674 107.631 962.97 108.727C962.266 109.824 961.912 111.339 961.912 113.267V142.309C961.912 143.978 962.301 145.271 963.086 146.183C963.87 147.098 965.171 147.552 966.998 147.552C968.148 147.552 969.048 147.344 969.699 146.925C970.349 146.506 970.833 145.948 971.148 145.241C971.46 144.537 971.656 143.729 971.733 142.814C971.814 141.902 971.852 140.975 971.852 140.036V135.417H966.921V124.85H985.631V156.788H976.234Z" fill="white"/>
<path d="M989.936 156.71V97.999H1009.35L1016.47 132.677H1016.63L1023.99 97.999H1043.24V156.71H1030.09L1031.5 110.681H1031.34L1021.64 156.71H1011.38L1001.91 110.681H1001.75L1003.01 156.71H989.936Z" fill="white"/>
<path d="M1047.92 156.71V97.999H1064.28C1065.58 97.999 1067.02 98.0525 1068.58 98.1565C1070.15 98.2604 1071.7 98.4684 1073.24 98.7833C1074.78 99.0952 1076.24 99.5795 1077.62 100.23C1079.01 100.884 1080.17 101.757 1081.11 102.853C1082.73 104.68 1083.77 106.662 1084.24 108.801C1084.71 110.943 1084.94 113.212 1084.94 115.613C1084.94 117.178 1084.84 118.782 1084.63 120.425C1084.42 122.068 1084.01 123.622 1083.41 125.083C1082.81 126.545 1082.02 127.876 1081.03 129.076C1080.04 130.279 1078.76 131.242 1077.19 131.973C1075.99 132.546 1074.75 132.965 1073.47 133.226C1072.19 133.488 1070.9 133.657 1069.6 133.734C1068.29 133.814 1066.98 133.838 1065.65 133.814C1064.32 133.788 1063 133.803 1061.69 133.853V156.71H1047.92ZM1061.7 123.283C1063 123.233 1064.34 123.191 1065.73 123.167C1067.11 123.141 1068.35 122.686 1069.44 121.798C1070.17 121.016 1070.64 120.09 1070.85 119.02C1071.06 117.951 1071.16 116.893 1071.16 115.85C1071.16 115.277 1071.14 114.65 1071.08 113.97C1071.03 113.292 1070.91 112.639 1070.73 112.012C1070.55 111.385 1070.29 110.8 1069.95 110.25C1069.61 109.704 1069.15 109.3 1068.58 109.038C1067.9 108.777 1067.11 108.634 1066.19 108.608C1065.28 108.581 1064.28 108.569 1063.18 108.569H1061.69V123.283H1061.7Z" fill="white"/>
<path d="M1040.18 182.021L1010.38 211.821L993.826 195.265V175.393L1010.38 191.899L1040.18 162.146V182.021Z" fill="white"/>
<path d="M1446 74.4899H1519.44C1511.4 65.4832 1501.72 57.973 1490.88 52.4072H1446V74.4899Z" fill="white"/>
<path d="M1347.57 140.001C1347.57 147.626 1348.47 155.043 1350.11 162.174H1541.89C1543.53 155.043 1544.43 147.626 1544.43 140.001H1446H1347.57Z" fill="white"/>
<path d="M1446 238.427C1462.72 238.427 1478.46 234.245 1492.25 226.888H1399.74C1413.54 234.249 1429.27 238.427 1446 238.427Z" fill="white"/>
<path d="M1372.68 205.648H1519.32C1525.16 199.124 1530.13 191.819 1534.09 183.907H1357.91C1361.86 191.819 1366.84 199.124 1372.68 205.648Z" fill="white"/>
<path d="M1446 118.26H1541.99C1540.25 110.539 1537.61 103.162 1534.17 96.2461H1446V118.26Z" fill="white"/>
<path d="M1446 140H1544.43C1544.43 132.527 1543.57 125.257 1541.99 118.26H1446V140Z" fill="#EB2227"/>
<path d="M1399.74 226.888H1492.25C1502.49 221.428 1511.64 214.216 1519.32 205.648H1372.68C1380.36 214.216 1389.51 221.425 1399.74 226.888Z" fill="#EB2227"/>
<path d="M1357.91 183.908H1534.09C1537.51 177.076 1540.13 169.796 1541.89 162.174H1350.11C1351.87 169.796 1354.5 177.076 1357.91 183.908Z" fill="#EB2227"/>
<path d="M1446 52.4073H1490.88C1477.42 45.4975 1462.18 41.5713 1446 41.5713V52.4073Z" fill="#EB2227"/>
<path d="M1446 96.2462H1534.17C1530.24 88.3316 1525.27 81.0236 1519.44 74.4902H1446V96.2462Z" fill="#EB2227"/>
<path d="M1446 118.26V96.2459V74.49V52.4073V41.5713C1443.56 41.5713 1441.14 41.6895 1438.74 41.8668L1439.93 45.0308L1435.57 42.1251C1434.75 42.2122 1433.94 42.3335 1433.12 42.4362L1429.5 45.0308L1430.32 42.8282C1425.76 43.5593 1421.31 44.5922 1416.98 45.9268L1418.7 50.7864H1424.81L1419.78 54.3984L1421.93 60.5117L1416.54 56.9122L1411.5 60.5117L1413.65 54.3984L1408.25 50.7864H1414.73L1416.08 46.2193C1390.48 54.3797 1369.43 72.726 1357.7 96.5011H1360.39L1362.55 90.7486L1364.34 96.862H1370.83L1365.43 100.458L1367.58 106.578L1362.55 102.618L1357.15 106.578L1359.31 100.458L1356.77 98.458C1354.74 102.801 1353.03 107.318 1351.65 111.979H1352.84L1351.34 113.077C1350.58 115.734 1349.93 118.431 1349.4 121.172L1349.59 121.689L1349.34 121.518C1348.2 127.506 1347.58 133.682 1347.58 140.001H1446V118.26ZM1367.58 137.166L1362.55 133.197L1357.15 137.166L1359.31 131.056L1354.28 127.454H1360.4L1362.55 121.34L1364.35 127.454H1370.83L1365.43 131.056L1367.58 137.166ZM1385.59 121.689L1380.55 118.102L1375.51 121.689L1377.31 115.924L1372.27 111.979H1378.39L1380.55 106.22L1382.35 111.979H1388.83L1383.79 115.924L1385.59 121.689ZM1383.79 84.9775L1385.58 91.0971L1380.55 87.51L1375.51 91.0971L1377.3 84.9775L1372.27 81.3966H1378.38L1380.55 75.2677L1382.34 81.3966H1388.82L1383.79 84.9775ZM1403.58 137.166L1398.54 133.197L1393.51 137.166L1395.3 131.056L1390.27 127.454H1396.75L1398.55 121.34L1400.71 127.454H1406.82L1401.79 131.056L1403.58 137.166ZM1401.79 100.455L1403.58 106.575L1398.54 102.614L1393.51 106.575L1395.3 100.455L1390.27 96.498H1396.75L1398.55 90.7455L1400.71 96.8588H1406.82L1401.79 100.455ZM1401.79 69.8637L1403.58 75.9771L1398.54 72.0228L1393.51 75.9771L1395.3 69.8637L1390.27 65.9002H1396.75L1398.55 60.1508L1400.71 65.9002H1406.82L1401.79 69.8637ZM1421.94 121.689L1416.54 118.102L1411.5 121.689L1413.66 115.924L1408.26 111.979H1414.74L1416.54 106.22L1418.7 111.979H1424.81L1419.78 115.924L1421.94 121.689ZM1419.78 84.9775L1421.94 91.0971L1416.54 87.51L1411.5 91.0971L1413.66 84.9775L1408.26 81.3966H1414.74L1416.54 75.2677L1418.7 81.3966H1424.81L1419.78 84.9775ZM1439.93 137.166L1434.52 133.197L1429.5 137.166L1431.66 131.056L1426.26 127.454H1432.74L1434.53 121.34L1436.7 127.454H1443.17L1437.78 131.056L1439.93 137.166ZM1437.78 100.455L1439.93 106.575L1434.52 102.614L1429.5 106.575L1431.66 100.455L1426.26 96.498H1432.74L1434.53 90.7455L1436.7 96.8588H1443.17L1437.78 100.455ZM1437.78 69.8637L1439.93 75.9771L1434.52 72.0228L1429.5 75.9771L1431.66 69.8637L1426.26 65.9002H1432.74L1434.53 60.1508L1436.7 65.9002H1443.17L1437.78 69.8637Z" fill="#08519F"/>
<path d="M1349.39 121.172C1349.37 121.287 1349.35 121.402 1349.33 121.517L1349.58 121.688L1349.39 121.172Z" fill="white"/>
<path d="M1351.64 111.979C1351.53 112.343 1351.43 112.711 1351.33 113.078L1352.83 111.979H1351.64Z" fill="white"/>
<path d="M1408.26 50.7863L1413.65 54.3983L1411.5 60.5116L1416.54 56.9121L1421.94 60.5116L1419.78 54.3983L1424.81 50.7863H1418.7L1416.98 45.9268C1416.68 46.0201 1416.39 46.1196 1416.08 46.2161L1414.74 50.7832H1408.26V50.7863Z" fill="white"/>
<path d="M1416.54 75.2676L1414.74 81.3965H1408.26L1413.65 84.9774L1411.5 91.0969L1416.54 87.5098L1421.94 91.0969L1419.78 84.9774L1424.81 81.3965H1418.7L1416.54 75.2676Z" fill="white"/>
<path d="M1418.7 111.978L1416.54 106.22L1414.74 111.978H1408.26L1413.65 115.923L1411.5 121.688L1416.54 118.101L1421.94 121.688L1419.78 115.923L1424.81 111.978H1418.7Z" fill="white"/>
<path d="M1434.52 60.1504L1432.73 65.8997H1426.26L1431.66 69.8633L1429.5 75.9766L1434.52 72.0224L1439.93 75.9766L1437.78 69.8633L1443.17 65.8997H1436.69L1434.52 60.1504Z" fill="white"/>
<path d="M1398.54 60.1504L1396.74 65.8997H1390.27L1395.3 69.8633L1393.51 75.9766L1398.54 72.0224L1403.58 75.9766L1401.79 69.8633L1406.82 65.8997H1400.7L1398.54 60.1504Z" fill="white"/>
<path d="M1433.12 42.4365C1432.19 42.561 1431.25 42.6792 1430.32 42.8285L1429.5 45.0312L1433.12 42.4365Z" fill="white"/>
<path d="M1438.74 41.8662C1437.68 41.944 1436.62 42.0124 1435.57 42.1244L1439.93 45.0302L1438.74 41.8662Z" fill="white"/>
<path d="M1436.69 127.453L1434.52 121.34L1432.73 127.453H1426.26L1431.66 131.059L1429.5 137.166L1434.52 133.196L1439.93 137.166L1437.78 131.059L1443.17 127.453H1436.69Z" fill="white"/>
<path d="M1434.52 90.749L1432.73 96.4984H1426.26L1431.66 100.456L1429.5 106.575L1434.52 102.615L1439.93 106.575L1437.78 100.456L1443.17 96.8624H1436.69L1434.52 90.749Z" fill="white"/>
<path d="M1364.35 127.453L1362.55 121.34L1360.39 127.453H1354.28L1359.31 131.059L1357.15 137.166L1362.55 133.196L1367.58 137.166L1365.43 131.059L1370.83 127.453H1364.35Z" fill="white"/>
<path d="M1357.15 106.574L1362.55 102.614L1367.58 106.574L1365.43 100.455L1370.83 96.8584H1364.34L1362.55 90.7451L1360.39 96.4976H1357.7C1357.38 97.1447 1357.07 97.8011 1356.76 98.4545L1359.31 100.455L1357.15 106.574Z" fill="white"/>
<path d="M1382.35 111.978L1380.55 106.22L1378.39 111.978H1372.27L1377.31 115.923L1375.51 121.688L1380.55 118.101L1385.59 121.688L1383.79 115.923L1388.82 111.978H1382.35Z" fill="white"/>
<path d="M1380.55 75.2676L1378.39 81.3965H1372.27L1377.31 84.9774L1375.51 91.0969L1380.55 87.5098L1385.59 91.0969L1383.79 84.9774L1388.82 81.3965H1382.35L1380.55 75.2676Z" fill="white"/>
<path d="M1398.54 90.749L1396.74 96.4984H1390.27L1395.3 100.456L1393.51 106.575L1398.54 102.615L1403.58 106.575L1401.79 100.456L1406.82 96.8624H1400.7L1398.54 90.749Z" fill="white"/>
<path d="M1400.7 127.453L1398.54 121.34L1396.74 127.453H1390.27L1395.3 131.059L1393.51 137.166L1398.54 133.196L1403.58 137.166L1401.79 131.059L1406.82 127.453H1400.7Z" fill="white"/>
<g style="mix-blend-mode:multiply" opacity="0.9">
<path d="M1446 238.428C1500.36 238.428 1544.43 194.361 1544.43 140.001C1544.43 85.6421 1500.36 41.5752 1446 41.5752C1391.64 41.5752 1347.57 85.6421 1347.57 140.001C1347.57 194.361 1391.64 238.428 1446 238.428Z" fill="url(#paint6_radial)"/>
</g>
<path d="M1446 8.56152C1410.89 8.56152 1377.88 22.2349 1353.06 47.0615C1328.23 71.882 1314.56 104.891 1314.56 140C1314.56 175.109 1328.23 208.114 1353.06 232.941C1377.88 257.765 1410.89 271.435 1446 271.435C1481.11 271.435 1514.11 257.765 1538.94 232.941C1563.77 208.114 1577.44 175.109 1577.44 140C1577.44 67.5233 1518.47 8.56152 1446 8.56152ZM1446 242.355C1389.56 242.355 1343.64 196.435 1343.64 140C1343.64 83.5611 1389.56 37.6473 1446 37.6473C1502.43 37.6473 1548.35 83.5611 1548.35 140C1548.35 196.435 1502.44 242.355 1446 242.355Z" fill="url(#paint7_linear)"/>
<path d="M1446 0C1368.68 0 1306 62.6796 1306 140C1306 217.324 1368.68 280 1446 280C1523.32 280 1586 217.324 1586 140C1586 62.6796 1523.32 0 1446 0ZM1446 271.245C1373.63 271.245 1314.75 212.371 1314.75 140C1314.75 67.6262 1373.63 8.74844 1446 8.74844C1518.37 8.74844 1577.25 67.6262 1577.25 140C1577.25 212.371 1518.37 271.245 1446 271.245Z" fill="url(#paint8_radial)"/>
<path d="M1446 37.5723C1389.52 37.5723 1343.57 83.5203 1343.57 139.999C1343.57 196.479 1389.52 242.426 1446 242.426C1502.48 242.426 1548.42 196.479 1548.42 139.999C1548.42 83.5203 1502.47 37.5723 1446 37.5723ZM1446 238.049C1391.93 238.049 1347.95 194.064 1347.95 139.999C1347.95 85.9314 1391.93 41.9496 1446 41.9496C1500.06 41.9496 1544.05 85.9314 1544.05 139.999C1544.05 194.064 1500.06 238.049 1446 238.049Z" fill="url(#paint9_radial)"/>
<g opacity="0.6">
<path opacity="0.6" d="M1350.58 211.049C1352.6 209.612 1355.06 207.891 1357.56 206.245L1357.51 206.168C1354.96 207.076 1351.97 207.978 1349.56 208.65L1341.49 210.956L1339.47 207.888L1344.92 201.709C1346.6 199.802 1348.66 197.606 1350.64 195.717L1350.61 195.668C1348.21 197.089 1345.51 198.766 1343.28 200.045L1336.54 204.037L1334.17 200.434L1352.11 190.214L1355.52 195.4L1350.88 200.863C1349.28 202.721 1347.37 204.709 1345.6 206.42L1345.65 206.494C1347.97 205.67 1350.68 204.687 1352.99 204.018L1359.92 202.095L1363.26 207.179L1346.66 219.446L1344.16 215.638L1350.58 211.049Z" fill="#808285"/>
<path opacity="0.6" d="M1357.56 223.276L1352.77 225.948L1349.38 222.514L1368.46 212.515L1372.75 216.861L1362.59 235.885L1359.07 232.323L1361.71 227.476L1357.56 223.276ZM1363.71 224.545L1365.92 220.557C1366.53 219.437 1367.36 218.102 1368.02 217.026L1367.97 216.982C1366.89 217.629 1365.57 218.504 1364.48 219.101L1360.51 221.304L1363.71 224.545Z" fill="#808285"/>
<path opacity="0.6" d="M1377.86 222.198C1379.42 222.957 1381.33 224.115 1383.26 225.471C1386.46 227.727 1388.12 229.761 1388.88 232.129C1389.72 234.661 1389.36 237.511 1387.26 240.482C1384.99 243.708 1382.25 245.105 1379.66 245.332C1376.84 245.56 1373.65 244.359 1370.35 242.035C1368.38 240.641 1367.07 239.53 1366.21 238.737L1377.86 222.198ZM1372 238.634C1372.28 238.936 1372.8 239.312 1373.27 239.642C1376.7 242.1 1380.29 241.786 1383.13 237.763C1385.62 234.282 1384.87 230.987 1381.6 228.682C1380.75 228.081 1380.15 227.77 1379.77 227.618L1372 238.634Z" fill="#808285"/>
<path opacity="0.6" d="M1400.1 249.017L1393.28 245.7L1391.14 250.09L1398.75 253.801L1397.07 257.23L1385.26 251.474L1394.29 232.957L1405.72 238.529L1404.05 241.964L1396.82 238.439L1394.94 242.284L1401.76 245.607L1400.1 249.017Z" fill="#808285"/>
<path opacity="0.6" d="M1423.35 243.87L1418.49 263.893L1413.94 262.792L1418.81 242.763L1423.35 243.87Z" fill="#808285"/>
<path opacity="0.6" d="M1423.7 265.22L1425.96 244.742L1431.36 245.336L1434.79 253.31C1435.77 255.6 1436.7 258.285 1437.36 260.696L1437.45 260.705C1437.45 257.964 1437.66 255.196 1438 252.097L1438.66 246.145L1442.91 246.612L1440.66 267.086L1435.8 266.551L1432.29 258.17C1431.32 255.852 1430.27 253.061 1429.53 250.548L1429.44 250.569C1429.26 253.282 1429 256.176 1428.64 259.52L1427.96 265.686L1423.7 265.22Z" fill="#808285"/>
<path opacity="0.6" d="M1459.99 249.343L1454.52 250.162L1453.94 246.291L1469.6 243.939L1470.18 247.816L1464.62 248.647L1467.09 265.154L1462.47 265.848L1459.99 249.343Z" fill="#808285"/>
<path opacity="0.6" d="M1474.88 242.365L1477.3 249.903L1484.61 247.561L1482.19 240.022L1486.61 238.601L1492.91 258.219L1488.49 259.641L1485.85 251.431L1478.55 253.777L1481.18 261.987L1476.73 263.418L1470.43 243.796L1474.88 242.365Z" fill="#808285"/>
<path opacity="0.6" d="M1505.11 242.524L1498.36 245.968L1500.58 250.324L1508.12 246.478L1509.86 249.882L1498.16 255.855L1488.79 237.506L1500.12 231.729L1501.86 235.132L1494.7 238.785L1496.64 242.593L1503.39 239.152L1505.11 242.524Z" fill="#808285"/>
<path opacity="0.6" d="M1514.61 221.241L1522.64 230.052C1525.01 232.652 1527.2 233.054 1528.96 231.448C1530.77 229.796 1530.63 227.65 1528.2 224.984L1520.17 216.173L1523.6 213.04L1531.43 221.627C1535.71 226.324 1535.34 230.68 1531.36 234.308C1527.52 237.808 1523.37 237.792 1518.94 232.932L1511.15 224.392L1514.61 221.241Z" fill="#808285"/>
<path opacity="0.6" d="M1537.58 220.871C1538.86 220.289 1540.56 219.178 1541.8 217.62C1543.13 215.943 1543.13 214.506 1542.08 213.672C1541.07 212.869 1539.89 213.18 1537.65 214.574C1534.59 216.515 1531.72 217.085 1529.37 215.224C1526.62 213.04 1526.36 209.092 1529.38 205.281C1530.82 203.461 1532.24 202.403 1533.43 201.784L1535.74 204.933C1534.91 205.331 1533.55 206.124 1532.29 207.702C1531.04 209.282 1531.15 210.623 1531.98 211.286C1533.02 212.098 1534.2 211.55 1536.64 210.097C1539.95 208.078 1542.5 207.916 1544.77 209.718C1547.48 211.867 1548.15 215.79 1544.64 220.221C1543.18 222.069 1541.23 223.487 1540.01 223.998L1537.58 220.871Z" fill="#808285"/>
<path opacity="0.6" d="M1550.01 202.823L1553.89 206.706L1551.51 210.912L1536.69 195.285L1539.7 189.968L1560.77 194.547L1558.3 198.912L1552.92 197.686L1550.01 202.823ZM1549.55 196.557L1545.11 195.527C1543.87 195.244 1542.36 194.812 1541.14 194.476L1541.12 194.529C1542.03 195.397 1543.23 196.43 1544.11 197.31L1547.31 200.524L1549.55 196.557Z" fill="#808285"/>
</g>
<g opacity="0.6">
<path opacity="0.6" d="M1352.97 74.5358C1350.82 73.31 1348.22 71.8074 1345.68 70.2269L1345.63 70.3047C1347.52 72.2367 1349.6 74.5669 1351.22 76.474L1356.7 82.8269L1354.77 85.9442L1346.87 83.5985C1344.44 82.8798 1341.58 81.9309 1339.04 80.9291L1339.01 80.982C1341.3 82.55 1343.96 84.3078 1346.06 85.7887L1352.51 90.222L1350.24 93.8838L1333.43 81.906L1336.7 76.6358L1343.61 78.546C1345.96 79.2149 1348.57 80.114 1350.86 80.9976L1350.91 80.9198C1349.19 79.1682 1347.16 77.1149 1345.58 75.3074L1340.92 69.8287L1344.13 64.6611L1362.22 74.5607L1359.82 78.4309L1352.97 74.5358Z" fill="#808285"/>
<path opacity="0.6" d="M1362.84 66.422L1365.7 71.1043L1362.4 74.6354L1351.64 55.9656L1355.82 51.498L1375.24 60.8967L1371.82 64.5585L1366.87 62.11L1362.84 66.422ZM1363.86 60.2216L1359.79 58.1745C1358.65 57.6083 1357.28 56.8336 1356.18 56.2207L1356.14 56.2643C1356.82 57.322 1357.75 58.61 1358.39 59.6709L1360.75 63.5505L1363.86 60.2216Z" fill="#808285"/>
<path opacity="0.6" d="M1363.81 44.0285C1365.02 42.7841 1366.71 41.325 1368.6 39.9156C1371.73 37.5699 1374.18 36.6148 1376.67 36.6241C1379.33 36.6148 1381.93 37.8405 1384.11 40.7525C1386.47 43.9103 1386.95 46.9468 1386.37 49.4823C1385.71 52.2263 1383.58 54.8894 1380.35 57.3068C1378.42 58.7503 1376.95 59.6556 1375.93 60.2281L1363.81 44.0285ZM1377.63 54.6872C1378 54.5223 1378.51 54.1365 1378.98 53.7912C1382.38 51.2899 1383.19 47.7805 1380.24 43.8388C1377.7 40.3948 1374.34 40.0868 1371.13 42.4854C1370.3 43.1076 1369.82 43.5836 1369.55 43.8948L1377.63 54.6872Z" fill="#808285"/>
<path opacity="0.6" d="M1398.76 35.4819L1392.04 38.985L1394.3 43.3219L1401.81 39.4081L1403.57 42.7992L1391.91 48.8721L1382.4 30.6005L1393.68 24.7236L1395.44 28.1116L1388.31 31.8263L1390.29 35.625L1397.01 32.1219L1398.76 35.4819Z" fill="#808285"/>
<path opacity="0.6" d="M1415.3 17.3193L1420.68 37.2118L1416.17 38.4313L1410.79 18.5389L1415.3 17.3193Z" fill="#808285"/>
<path opacity="0.6" d="M1423.28 36.2817L1420.47 15.8728L1425.86 15.1324L1431.13 22.0266C1432.63 24.0115 1434.2 26.3884 1435.42 28.5662L1435.51 28.5537C1434.84 25.8999 1434.37 23.1559 1433.94 20.0697L1433.13 14.1337L1437.37 13.5488L1440.17 33.9577L1435.33 34.6235L1429.88 27.3497C1428.38 25.3368 1426.68 22.8853 1425.35 20.6297L1425.26 20.6733C1425.76 23.3519 1426.21 26.2173 1426.67 29.5493L1427.51 35.6968L1423.28 36.2817Z" fill="#808285"/>
<path opacity="0.6" d="M1458.74 18.0223L1453.25 17.3565L1453.72 13.4707L1469.44 15.3809L1468.97 19.2667L1463.39 18.5885L1461.38 35.1645L1456.73 34.5983L1458.74 18.0223Z" fill="#808285"/>
<path opacity="0.6" d="M1478.03 17.4968L1475.81 25.0942L1483.17 27.2502L1485.39 19.6528L1489.85 20.9564L1484.07 40.7275L1479.61 39.4208L1482.03 31.1484L1474.66 28.9924L1472.25 37.2617L1467.76 35.9488L1473.54 16.1777L1478.03 17.4968Z" fill="#808285"/>
<path opacity="0.6" d="M1501.1 39.2125L1494.26 35.9396L1492.15 40.3511L1499.79 44.0067L1498.13 47.4538L1486.28 41.7791L1495.17 23.1934L1506.65 28.6845L1505 32.1316L1497.74 28.6596L1495.9 32.5205L1502.74 35.7934L1501.1 39.2125Z" fill="#808285"/>
<path opacity="0.6" d="M1525.95 41.7479L1518.17 50.7795C1515.87 53.4395 1515.73 55.6639 1517.54 57.2195C1519.39 58.8155 1521.51 58.4204 1523.86 55.6888L1531.64 46.6604L1535.16 49.6937L1527.58 58.4919C1523.43 63.3079 1519.06 63.4573 1514.98 59.9479C1511.05 56.5568 1510.57 52.4315 1514.86 47.4537L1522.4 38.7021L1525.95 41.7479Z" fill="#808285"/>
<path opacity="0.6" d="M1527.05 64.1538C1527.37 65.5258 1528.12 67.4112 1529.4 68.9325C1530.77 70.5689 1532.18 70.8614 1533.21 69.9965C1534.19 69.1689 1534.12 67.9494 1533.2 65.4823C1531.91 62.0974 1531.93 59.1698 1534.22 57.2409C1536.91 54.9792 1540.83 55.5112 1543.96 59.2289C1545.45 61.0054 1546.21 62.6107 1546.57 63.9018L1543.03 65.5258C1542.8 64.6392 1542.3 63.1427 1541 61.5996C1539.7 60.0565 1538.37 59.8978 1537.55 60.5854C1536.54 61.4316 1536.85 62.6947 1537.79 65.3796C1539.1 69.0289 1538.76 71.5583 1536.53 73.4281C1533.89 75.6525 1529.91 75.528 1526.27 71.2005C1524.76 69.3992 1523.75 67.2089 1523.5 65.9085L1527.05 64.1538Z" fill="#808285"/>
<path opacity="0.6" d="M1539.85 79.9614L1534.56 81.4299L1532.08 77.2921L1552.97 72.0654L1556.12 77.3014L1541.76 93.3952L1539.18 89.0988L1542.89 85.0108L1539.85 79.9614ZM1545.53 82.6401L1548.61 79.2863C1549.47 78.3405 1550.59 77.2392 1551.48 76.3494L1551.45 76.2965C1550.24 76.6637 1548.75 77.205 1547.55 77.5317L1543.18 78.7388L1545.53 82.6401Z" fill="#808285"/>
</g>
<path d="M1352.97 73.771C1350.82 72.5421 1348.22 71.0394 1345.68 69.4621L1345.63 69.5399C1347.52 71.4719 1349.6 73.8021 1351.22 75.7092L1356.7 82.059L1354.77 85.1763L1346.87 82.8305C1344.44 82.1119 1341.58 81.163 1339.04 80.1581L1339.01 80.211C1341.3 81.779 1343.96 83.5336 1346.06 85.0145L1352.51 89.4541L1350.24 93.1159L1333.43 81.1381L1336.7 75.8679L1343.61 77.7781C1345.96 78.447 1348.57 79.3461 1350.86 80.2296L1350.91 80.155C1349.19 78.4034 1347.15 76.3501 1345.58 74.5425L1340.93 69.067L1344.13 63.8994L1362.23 73.799L1359.83 77.6692L1352.97 73.771Z" fill="black"/>
<path d="M1362.84 65.6574L1365.7 70.3396L1362.41 73.8707L1351.64 55.2009L1355.82 50.7334L1375.24 60.1321L1371.82 63.797L1366.87 61.3454L1362.84 65.6574ZM1363.86 59.457L1359.79 57.4098C1358.65 56.8436 1357.28 56.069 1356.18 55.4592L1356.14 55.5027C1356.82 56.5605 1357.75 57.8485 1358.39 58.9063L1360.75 62.789L1363.86 59.457Z" fill="black"/>
<path d="M1363.81 43.2639C1365.02 42.0194 1366.71 40.5603 1368.6 39.151C1371.73 36.8083 1374.18 35.8501 1376.67 35.8594C1379.33 35.8501 1381.93 37.0759 1384.11 39.991C1386.47 43.1488 1386.95 46.1852 1386.37 48.7208C1385.71 51.4648 1383.58 54.1279 1380.35 56.5452C1378.42 57.9888 1376.95 58.8941 1375.93 59.4666L1363.81 43.2639ZM1377.63 53.9226C1378 53.7577 1378.52 53.3719 1378.98 53.0234C1382.38 50.5221 1383.19 47.0128 1380.24 43.071C1377.7 39.627 1374.34 39.319 1371.13 41.7177C1370.3 42.3399 1369.82 42.8159 1369.56 43.127L1377.63 53.9226Z" fill="black"/>
<path d="M1398.77 34.7172L1392.04 38.2203L1394.3 42.5572L1401.81 38.6434L1403.57 42.0314L1391.91 48.1043L1382.4 29.8359L1393.68 23.959L1395.44 27.347L1388.31 31.0616L1390.29 34.8572L1397.01 31.3541L1398.77 34.7172Z" fill="black"/>
<path d="M1415.3 16.5508L1420.68 36.4432L1416.17 37.6659L1410.79 17.7734L1415.3 16.5508Z" fill="black"/>
<path d="M1423.28 35.514L1420.47 15.1051L1425.86 14.3646L1431.13 21.262C1432.63 23.2468 1434.2 25.6237 1435.42 27.7984L1435.51 27.786C1434.84 25.1322 1434.37 22.3882 1433.94 19.302L1433.13 13.366L1437.37 12.7842L1440.17 33.1931L1435.33 33.8588L1429.88 26.5851C1428.38 24.5722 1426.68 22.1206 1425.35 19.8651L1425.26 19.9086C1425.76 22.5842 1426.21 25.4526 1426.67 28.7846L1427.51 34.9322L1423.28 35.514Z" fill="black"/>
<path d="M1458.74 17.2576L1453.25 16.5918L1453.72 12.7061L1469.44 14.6163L1468.97 18.4989L1463.39 17.8238L1461.38 34.3967L1456.73 33.8305L1458.74 17.2576Z" fill="black"/>
<path d="M1478.03 16.7291L1475.81 24.3264L1483.17 26.4824L1485.39 18.8851L1489.85 20.1886L1484.07 39.9598L1479.61 38.6531L1482.03 30.3806L1474.66 28.2246L1472.25 36.4971L1467.76 35.1842L1473.54 15.4131L1478.03 16.7291Z" fill="black"/>
<path d="M1501.1 38.4439L1494.26 35.171L1492.15 39.5826L1499.79 43.2381L1498.13 46.6852L1486.28 41.0106L1495.18 22.4248L1506.65 27.9159L1505 31.363L1497.75 27.891L1495.9 31.7519L1502.74 35.0248L1501.1 38.4439Z" fill="black"/>
<path d="M1525.95 40.9827L1518.17 50.0142C1515.87 52.6742 1515.73 54.8987 1517.54 56.4511C1519.39 58.0471 1521.51 57.652 1523.86 54.9204L1531.64 45.892L1535.16 48.9253L1527.58 57.7204C1523.43 62.5364 1519.06 62.6858 1514.98 59.1764C1511.05 55.7853 1510.57 51.66 1514.86 46.6822L1522.4 37.9307L1525.95 40.9827Z" fill="black"/>
<path d="M1527.05 63.3895C1527.37 64.7615 1528.12 66.6468 1529.4 68.1681C1530.77 69.8046 1532.18 70.097 1533.21 69.2321C1534.19 68.4077 1534.12 67.185 1533.21 64.721C1531.91 61.3361 1531.93 58.4086 1534.22 56.4797C1536.91 54.2148 1540.83 54.7468 1543.96 58.4646C1545.45 60.241 1546.21 61.8495 1546.57 63.1375L1543.03 64.7615C1542.8 63.8748 1542.3 62.3784 1541 60.8352C1539.7 59.2921 1538.37 59.1335 1537.55 59.8241C1536.54 60.6704 1536.85 61.9335 1537.79 64.6152C1539.1 68.2646 1538.76 70.7939 1536.53 72.6637C1533.89 74.8881 1529.91 74.7637 1526.27 70.4392C1524.76 68.6379 1523.75 66.4477 1523.5 65.1472L1527.05 63.3895Z" fill="black"/>
<path d="M1539.85 79.1939L1534.57 80.6623L1532.08 76.5245L1552.97 71.2979L1556.12 76.5339L1541.76 92.6276L1539.18 88.3343L1542.89 84.2463L1539.85 79.1939ZM1545.53 81.8756L1548.61 78.5219C1549.47 77.5761 1550.59 76.4747 1551.48 75.5819L1551.45 75.529C1550.24 75.8961 1548.75 76.4374 1547.55 76.7641L1543.18 77.9712L1545.53 81.8756Z" fill="black"/>
<path d="M1350.58 211.812C1352.6 210.38 1355.06 208.657 1357.56 207.014L1357.51 206.933C1354.96 207.845 1351.97 208.747 1349.56 209.419L1341.49 211.724L1339.47 208.657L1344.92 202.478C1346.6 200.568 1348.66 198.371 1350.64 196.483L1350.61 196.433C1348.21 197.858 1345.51 199.532 1343.28 200.811L1336.54 204.805L1334.17 201.2L1352.11 190.979L1355.52 196.169L1350.88 201.632C1349.28 203.489 1347.37 205.474 1345.6 207.185L1345.65 207.263C1347.97 206.439 1350.68 205.459 1352.99 204.78L1359.92 202.861L1363.26 207.944L1346.66 220.205L1344.16 216.4L1350.58 211.812Z" fill="black"/>
<path d="M1357.56 224.045L1352.77 226.717L1349.38 223.282L1368.46 213.283L1372.75 217.636L1362.59 236.657L1359.07 233.089L1361.71 228.241L1357.56 224.045ZM1363.71 225.314L1365.92 221.332C1366.53 220.209 1367.36 218.874 1368.02 217.794L1367.97 217.754C1366.89 218.398 1365.57 219.275 1364.48 219.873L1360.51 222.075L1363.71 225.314Z" fill="black"/>
<path d="M1377.86 222.964C1379.42 223.729 1381.33 224.887 1383.26 226.24C1386.46 228.499 1388.12 230.53 1388.88 232.901C1389.72 235.433 1389.36 238.28 1387.26 241.251C1384.99 244.477 1382.25 245.871 1379.66 246.104C1376.84 246.328 1373.65 245.124 1370.35 242.8C1368.38 241.413 1367.07 240.299 1366.21 239.503L1377.86 222.964ZM1372 239.403C1372.28 239.705 1372.8 240.075 1373.27 240.408C1376.7 242.866 1380.29 242.548 1383.13 238.529C1385.62 235.047 1384.87 231.756 1381.6 229.447C1380.75 228.85 1380.15 228.536 1379.77 228.383L1372 239.403Z" fill="black"/>
<path d="M1400.1 249.785L1393.28 246.465L1391.14 250.861L1398.75 254.57L1397.07 258.005L1385.26 252.246L1394.29 233.729L1405.72 239.304L1404.05 242.735L1396.82 239.213L1394.94 243.059L1401.76 246.381L1400.1 249.785Z" fill="black"/>
<path d="M1423.35 244.636L1418.49 264.662L1413.94 263.558L1418.81 243.528L1423.35 244.636Z" fill="black"/>
<path d="M1423.7 265.985L1425.96 245.511L1431.36 246.105L1434.79 254.076C1435.77 256.369 1436.7 259.053 1437.36 261.461L1437.45 261.474C1437.45 258.736 1437.66 255.961 1438 252.862L1438.66 246.911L1442.91 247.374L1440.66 267.852L1435.8 267.313L1432.29 258.932C1431.32 256.611 1430.27 253.824 1429.53 251.313L1429.44 251.332C1429.26 254.051 1429 256.941 1428.64 260.285L1427.96 266.452L1423.7 265.985Z" fill="black"/>
<path d="M1459.99 250.112L1454.52 250.93L1453.94 247.06L1469.6 244.711L1470.18 248.581L1464.62 249.418L1467.09 265.926L1462.47 266.616L1459.99 250.112Z" fill="black"/>
<path d="M1474.88 243.134L1477.3 250.672L1484.61 248.323L1482.19 240.782L1486.61 239.366L1492.91 258.985L1488.49 260.407L1485.85 252.196L1478.55 254.545L1481.18 262.756L1476.73 264.184L1470.43 244.565L1474.88 243.134Z" fill="black"/>
<path d="M1505.11 243.29L1498.36 246.737L1500.58 251.086L1508.12 247.244L1509.86 250.647L1498.16 256.618L1488.79 238.271L1500.12 232.497L1501.86 235.898L1494.7 239.55L1496.64 243.361L1503.39 239.914L1505.11 243.29Z" fill="black"/>
<path d="M1514.61 222.009L1522.64 230.82C1525.01 233.418 1527.2 233.822 1528.96 232.217C1530.77 230.568 1530.63 228.421 1528.2 225.755L1520.17 216.944L1523.6 213.812L1531.43 222.398C1535.71 227.099 1535.34 231.455 1531.36 235.079C1527.52 238.579 1523.37 238.56 1518.94 233.701L1511.15 225.161L1514.61 222.009Z" fill="black"/>
<path d="M1537.58 221.639C1538.86 221.054 1540.56 219.944 1541.8 218.385C1543.13 216.711 1543.13 215.274 1542.08 214.437C1541.07 213.637 1539.89 213.949 1537.65 215.339C1534.59 217.281 1531.72 217.853 1529.37 215.993C1526.62 213.809 1526.36 209.857 1529.38 206.049C1530.82 204.229 1532.24 203.169 1533.43 202.556L1535.74 205.704C1534.91 206.102 1533.55 206.893 1532.29 208.479C1531.04 210.06 1531.15 211.394 1531.98 212.057C1533.02 212.872 1534.2 212.325 1536.64 210.869C1539.95 208.853 1542.5 208.691 1544.77 210.492C1547.48 212.642 1548.15 216.565 1544.64 220.998C1543.18 222.843 1541.23 224.265 1540.01 224.778L1537.58 221.639Z" fill="black"/>
<path d="M1550.01 203.595L1553.89 207.468L1551.51 211.674L1536.69 196.053L1539.7 190.733L1560.77 195.316L1558.3 199.678L1552.92 198.458L1550.01 203.595ZM1549.55 197.326L1545.11 196.293C1543.87 196.013 1542.36 195.574 1541.14 195.241L1541.12 195.291C1542.03 196.159 1543.23 197.195 1544.11 198.069L1547.31 201.289L1549.55 197.326Z" fill="black"/>
<path opacity="0.6" d="M1564.49 131.036L1559.66 136.742L1552.23 136.005L1556.17 142.354L1553.16 149.196L1560.42 147.413L1566 152.381L1566.55 144.93L1572.99 141.157L1566.08 138.335L1564.49 131.036Z" fill="#808285"/>
<path d="M1564.78 129.851L1559.96 135.556L1552.52 134.816L1556.46 141.166L1553.46 148.007L1560.72 146.224L1566.3 151.196L1566.85 143.742L1573.29 139.971L1566.38 137.146L1564.78 129.851Z" fill="black"/>
<path opacity="0.6" d="M1559.18 102.324L1555.36 108.749L1547.91 109.246L1552.84 114.862L1551.01 122.105L1557.87 119.149L1564.19 123.128L1563.51 115.69L1569.25 110.905L1561.96 109.259L1559.18 102.324Z" fill="#808285"/>
<path d="M1559.27 101.107L1555.46 107.529L1548.01 108.027L1552.94 113.642L1551.11 120.885L1557.97 117.929L1564.29 121.908L1563.6 114.47L1569.34 109.685L1562.05 108.042L1559.27 101.107Z" fill="black"/>
<path opacity="0.6" d="M1563.05 160.19L1556.9 164.422L1549.92 161.752L1552.04 168.917L1547.35 174.726L1554.82 174.922L1558.89 181.181L1561.38 174.138L1568.6 172.196L1562.67 167.651L1563.05 160.19Z" fill="#808285"/>
<path d="M1563.65 159.127L1557.49 163.358L1550.52 160.686L1552.64 167.851L1547.94 173.656L1555.41 173.852L1559.49 180.115L1561.98 173.068L1569.19 171.13L1563.27 166.584L1563.65 159.127Z" fill="black"/>
<path opacity="0.6" d="M1327.39 130.997L1332.21 136.703L1339.65 135.966L1335.71 142.312L1338.71 149.157L1331.45 147.377L1325.87 152.342L1325.33 144.891L1318.88 141.118L1325.8 138.293L1327.39 130.997Z" fill="#808285"/>
<path d="M1327.1 129.812L1331.92 135.515L1339.35 134.778L1335.42 141.125L1338.41 147.972L1331.16 146.186L1325.58 151.155L1325.03 143.704L1318.58 139.933L1325.5 137.108L1327.1 129.812Z" fill="black"/>
<path opacity="0.6" d="M1332.7 102.284L1336.51 108.709L1343.96 109.206L1339.04 114.822L1340.86 122.065L1334 119.109L1327.68 123.088L1328.37 115.65L1322.63 110.865L1329.92 109.219L1332.7 102.284Z" fill="#808285"/>
<path d="M1332.6 101.064L1336.42 107.489L1343.87 107.987L1338.94 113.602L1340.77 120.845L1333.91 117.889L1327.58 121.868L1328.27 114.43L1322.54 109.645L1329.82 108.002L1332.6 101.064Z" fill="black"/>
<path opacity="0.6" d="M1328.82 160.15L1334.98 164.381L1341.95 161.715L1339.83 168.871L1344.53 174.682L1337.06 174.878L1332.98 181.141L1330.49 174.098L1323.28 172.159L1329.2 167.611L1328.82 160.15Z" fill="#808285"/>
<path d="M1328.23 159.083L1334.38 163.314L1341.36 160.645L1339.23 167.807L1343.93 173.618L1336.46 173.811L1332.39 180.074L1329.89 173.03L1322.68 171.092L1328.61 166.543L1328.23 159.083Z" fill="black"/>
<defs>
<filter id="filter0_d" x="24" y="22" width="234" height="234" filterUnits="userSpaceOnUse" color-interpolation-filters="sRGB">
<feFlood flood-opacity="0" result="BackgroundImageFix"/>
<feColorMatrix in="SourceAlpha" type="matrix" values="0 0 0 0 0 0 0 0 0 0 0 0 0 0 0 0 0 0 127 0"/>
<feOffset dx="1" dy="-1"/>
<feGaussianBlur stdDeviation="1"/>
<feColorMatrix type="matrix" values="0 0 0 0 0 0 0 0 0 0 0 0 0 0 0 0 0 0 0.25 0"/>
<feBlend mode="normal" in2="BackgroundImageFix" result="effect1_dropShadow"/>
<feBlend mode="normal" in="SourceGraphic" in2="effect1_dropShadow" result="shape"/>
</filter>
<linearGradient id="paint0_linear" x1="0" y1="0" x2="280" y2="280" gradientUnits="userSpaceOnUse">
<stop stop-color="#FDF170"/>
<stop offset="0.40738" stop-color="#FAC141"/>
<stop offset="0.614583" stop-color="#C1890A"/>
<stop offset="1" stop-color="#FAC94B"/>
</linearGradient>
<linearGradient id="paint1_linear" x1="0" y1="0" x2="280" y2="280" gradientUnits="userSpaceOnUse">
<stop stop-color="#FBDD5D"/>
<stop offset="1" stop-color="#C1890A"/>
</linearGradient>
<linearGradient id="paint2_linear" x1="40" y1="40" x2="240" y2="240" gradientUnits="userSpaceOnUse">
<stop offset="0.293373" stop-color="#474748"/>
<stop offset="0.800407" stop-color="#1C1D1D"/>
</linearGradient>
<radialGradient id="paint3_radial" cx="0" cy="0" r="1" gradientUnits="userSpaceOnUse" gradientTransform="translate(1016 140) scale(89.8638)">
<stop offset="0.5841" stop-color="#ED1C24"/>
<stop offset="0.648" stop-color="#D91921"/>
<stop offset="0.7823" stop-color="#AC1015"/>
<stop offset="0.9748" stop-color="#680000"/>
<stop offset="1" stop-color="#5E0000"/>
</radialGradient>
<linearGradient id="paint4_linear" x1="879.842" y1="140.001" x2="1152.16" y2="140.001" gradientUnits="userSpaceOnUse">
<stop stop-color="#FFE189"/>
<stop offset="0.0692" stop-color="#F3D17C"/>
<stop offset="0.1878" stop-color="#D9B05F"/>
<stop offset="0.3405" stop-color="#B48333"/>
<stop offset="0.378" stop-color="#AB782A"/>
<stop offset="0.4202" stop-color="#B58434"/>
<stop offset="0.4981" stop-color="#D1A655"/>
<stop offset="0.5878" stop-color="#FFE189"/>
<stop offset="0.6596" stop-color="#F7D681"/>
<stop offset="0.7591" stop-color="#E5C06D"/>
<stop offset="0.875" stop-color="#CB9F4E"/>
<stop offset="1" stop-color="#AB782A"/>
</linearGradient>
<linearGradient id="paint5_linear" x1="917.051" y1="238.948" x2="1114.95" y2="41.0514" gradientUnits="userSpaceOnUse">
<stop stop-color="#FFE189"/>
<stop offset="0.0692" stop-color="#F3D17C"/>
<stop offset="0.1878" stop-color="#D9B05F"/>
<stop offset="0.3405" stop-color="#B48333"/>
<stop offset="0.378" stop-color="#AB782A"/>
<stop offset="0.4202" stop-color="#B58434"/>
<stop offset="0.4981" stop-color="#D1A655"/>
<stop offset="0.5878" stop-color="#FFE189"/>
<stop offset="0.6596" stop-color="#F7D681"/>
<stop offset="0.7591" stop-color="#E5C06D"/>
<stop offset="0.875" stop-color="#CB9F4E"/>
<stop offset="1" stop-color="#AB782A"/>
</linearGradient>
<radialGradient id="paint6_radial" cx="0" cy="0" r="1" gradientUnits="userSpaceOnUse" gradientTransform="translate(1446 140.001) scale(98.4273)">
<stop stop-color="#FBFBFB"/>
<stop offset="0.5175" stop-color="#F9F9F9"/>
<stop offset="0.6866" stop-color="#F3F4F4"/>
<stop offset="0.723" stop-color="#F0F0F1"/>
<stop offset="0.761" stop-color="#E5E6E7"/>
<stop offset="0.7998" stop-color="#D4D5D7"/>
<stop offset="0.8391" stop-color="#BBBDBF"/>
<stop offset="0.8788" stop-color="#9D9FA2"/>
<stop offset="0.9189" stop-color="#7A7C7E"/>
<stop offset="0.9585" stop-color="#4F4F51"/>
<stop offset="0.9785" stop-color="#222223"/>
</radialGradient>
<linearGradient id="paint7_linear" x1="1318.98" y1="174.032" x2="1572.97" y2="105.976" gradientUnits="userSpaceOnUse">
<stop stop-color="#A87F30"/>
<stop offset="0.2545" stop-color="#E0BF63"/>
<stop offset="0.5" stop-color="#FFE080"/>
<stop offset="0.7455" stop-color="#E0BF63"/>
<stop offset="1" stop-color="#9F762B"/>
</linearGradient>
<radialGradient id="paint8_radial" cx="0" cy="0" r="1" gradientUnits="userSpaceOnUse" gradientTransform="translate(1446 140) scale(140)">
<stop offset="0.918" stop-color="#B28B39"/>
<stop offset="0.926" stop-color="#B6903C"/>
<stop offset="0.936" stop-color="#C49E48"/>
<stop offset="0.9471" stop-color="#DAB860"/>
<stop offset="0.9577" stop-color="#FFE080"/>
<stop offset="0.964" stop-color="#EACA6F"/>
<stop offset="0.9791" stop-color="#CAA54F"/>
<stop offset="0.9917" stop-color="#B8913E"/>
<stop offset="1" stop-color="#B28B39"/>
</radialGradient>
<radialGradient id="paint9_radial" cx="0" cy="0" r="1" gradientUnits="userSpaceOnUse" gradientTransform="translate(1446 139.999) scale(102.426)">
<stop stop-color="#A37F33"/>
<stop offset="0.3212" stop-color="#FFE080"/>
<stop offset="0.4119" stop-color="#EACB71"/>
<stop offset="0.5839" stop-color="#D3B25C"/>
<stop offset="0.703" stop-color="#CBAA55"/>
<stop offset="0.8482" stop-color="#C8A753"/>
<stop offset="0.9005" stop-color="#C19F4C"/>
<stop offset="0.9377" stop-color="#B59241"/>
<stop offset="0.9677" stop-color="#A48134"/>
<stop offset="0.9702" stop-color="#A37F33"/>
<stop offset="0.9791" stop-color="#B69342"/>
<stop offset="0.997" stop-color="#EFD175"/>
<stop offset="1" stop-color="#FFE080"/>
</radialGradient>
</defs>
</svg>
