<svg width="36" height="18" viewBox="0 0 36 18" fill="none" xmlns="http://www.w3.org/2000/svg">
<path fill-rule="evenodd" clip-rule="evenodd" d="M8.92078 3.70588L8.65763 0.794118C8.65763 0.529412 8.92078 0 9.97336 0H28.3936C28.6567 0 29.183 0.211765 29.183 1.05882H31.5513C31.7267 1.05882 32.0776 1.16471 32.0776 1.58824C32.0776 2.01176 31.7267 2.11765 31.5513 2.11765H23.6569C23.4815 2.11765 23.1306 2.22353 23.1306 2.64706C23.1306 3.07059 23.4815 3.17647 23.6569 3.17647H33.9196C34.0073 3.17647 34.1828 3.28235 34.1828 3.70588C34.1828 4.12941 34.0073 4.23529 33.9196 4.23529H25.2358C25.0604 4.23529 24.7095 4.34118 24.7095 4.76471C24.7095 5.18823 25.0604 5.29412 25.2358 5.29412H32.6039C32.7793 5.29412 33.1302 5.4 33.1302 5.82353C33.1302 6.24706 32.7793 6.35294 32.6039 6.35294H23.1306C22.9552 6.35294 22.6044 6.51176 22.6044 7.14706C22.6044 7.78235 22.8675 7.94118 23.1306 7.94118H34.7091C34.8845 7.94118 35.2354 8.04706 35.2354 8.47059C35.2354 8.89412 34.8845 9 34.7091 9H26.5515C26.3761 9 26.0253 9.10588 26.0253 9.52941C26.0253 9.95294 26.3761 10.0588 26.5515 10.0588H29.4461C29.6216 10.0588 29.9724 10.2176 29.9724 10.8529V13.7647C29.9724 14.1176 29.8145 14.8235 29.183 14.8235H26.8144V14.8236C26.8144 16.5779 25.4006 18 23.6566 18C21.9127 18 20.4989 16.5779 20.4989 14.8236V14.8235H8.92071V14.8236C8.92071 16.5779 7.50693 18 5.76296 18C4.01898 18 2.60521 16.5779 2.60521 14.8236V14.8235H2.07899C1.5527 14.8235 0.500118 14.6118 0.500118 13.7647C0.500118 12.9176 0.324688 10.0588 0.236973 8.73529C0.149258 7.41176 3.65787 4.23529 3.65787 4.23529C4.18416 3.70588 4.60519 3.70588 5.23674 3.70588H8.92078ZM23.6567 16.4118C22.7847 16.4118 22.0778 15.7007 22.0778 14.8236C22.0778 13.9464 22.7847 13.2354 23.6567 13.2354C24.5286 13.2354 25.2355 13.9464 25.2355 14.8236C25.2355 15.7007 24.5286 16.4118 23.6567 16.4118ZM4.18409 14.8236C4.18409 15.7007 4.89097 16.4118 5.76296 16.4118C6.63495 16.4118 7.34184 15.7007 7.34184 14.8236C7.34184 13.9464 6.63495 13.2354 5.76296 13.2354C4.89097 13.2354 4.18409 13.9464 4.18409 14.8236ZM8.39458 4.76465V7.94112H2.07908L4.18425 5.29406C4.35968 5.11759 4.92105 4.76465 5.76312 4.76465H8.39458Z" fill="#01785a"/>
</svg>
