<svg width="406" height="406" viewBox="0 0 406 406" fill="none" xmlns="http://www.w3.org/2000/svg">
<mask id="mask0" mask-type="alpha" maskUnits="userSpaceOnUse" x="0" y="0" width="406" height="406">
<rect width="406" height="406" fill="#C4C4C4"/>
</mask>
<g mask="url(#mask0)">
<g filter="url(#filter0_d)">
<path d="M360.688 0H0V360.688L360.688 0Z" fill="url(#paint0_linear)"/>
</g>
<path d="M76.479 35.1987C75.7332 36.1711 74.6995 36.9074 73.3779 37.4077C72.0563 37.908 70.5553 38.1582 68.875 38.1582C67.1475 38.1582 65.6182 37.7664 64.2871 36.9829C62.9561 36.1994 61.9271 35.0807 61.2002 33.627C60.4827 32.1637 60.1099 30.4598 60.0815 28.5151V26.9009C60.0815 23.7856 60.8273 21.3548 62.3188 19.6084C63.8104 17.8525 65.8919 16.9746 68.5635 16.9746C70.8574 16.9746 72.6794 17.541 74.0293 18.6738C75.3792 19.8066 76.1911 21.4398 76.4648 23.5732H72.9531C72.5566 21.0905 71.117 19.8491 68.6343 19.8491C67.0295 19.8491 65.807 20.4297 64.9668 21.5908C64.1361 22.7425 63.7065 24.437 63.6782 26.6743V28.2603C63.6782 30.4881 64.1455 32.2204 65.0801 33.457C66.0241 34.6842 67.3315 35.2979 69.0024 35.2979C70.8338 35.2979 72.1366 34.8825 72.9106 34.0518V30.0161H68.6626V27.2974H76.479V35.1987ZM96.8696 28.1045C96.8696 30.1247 96.5203 31.8994 95.8218 33.4287C95.1232 34.9486 94.1226 36.1191 92.8198 36.9404C91.5265 37.7523 90.035 38.1582 88.3452 38.1582C86.6743 38.1582 85.1828 37.7523 83.8706 36.9404C82.5679 36.1191 81.5578 34.9533 80.8403 33.4429C80.1323 31.9325 79.7736 30.1908 79.7642 28.2178V27.0566C79.7642 25.0459 80.1182 23.2712 80.8262 21.7324C81.5436 20.1937 82.549 19.0184 83.8423 18.2065C85.145 17.3853 86.6366 16.9746 88.3169 16.9746C89.9972 16.9746 91.484 17.3805 92.7773 18.1924C94.0801 18.9948 95.0854 20.1559 95.7935 21.6758C96.5015 23.1862 96.8602 24.9468 96.8696 26.9575V28.1045ZM93.2871 27.0283C93.2871 24.7438 92.8529 22.9927 91.9844 21.7749C91.1253 20.5571 89.9028 19.9482 88.3169 19.9482C86.7687 19.9482 85.5557 20.5571 84.6777 21.7749C83.8092 22.9832 83.3656 24.6966 83.3467 26.915V28.1045C83.3467 30.3701 83.7856 32.1213 84.6636 33.3579C85.5509 34.5946 86.7782 35.2129 88.3452 35.2129C89.9312 35.2129 91.1489 34.6087 91.9985 33.4004C92.8576 32.1921 93.2871 30.4268 93.2871 28.1045V27.0283ZM100.438 37.875V17.2578H106.527C108.349 17.2578 109.963 17.6637 111.37 18.4756C112.786 19.2874 113.881 20.4391 114.655 21.9307C115.429 23.4222 115.816 25.1309 115.816 27.0566V28.0903C115.816 30.0444 115.424 31.7625 114.641 33.2446C113.867 34.7267 112.757 35.869 111.313 36.6714C109.878 37.4738 108.231 37.875 106.371 37.875H100.438ZM104.021 20.1465V35.0146H106.357C108.236 35.0146 109.675 34.4294 110.676 33.2588C111.686 32.0788 112.2 30.389 112.219 28.1895V27.0425C112.219 24.8052 111.733 23.0965 110.761 21.9165C109.788 20.7365 108.377 20.1465 106.527 20.1465H104.021ZM130.613 33.0747H122.627L120.956 37.875H117.232L125.02 17.2578H128.234L136.037 37.875H132.298L130.613 33.0747ZM123.632 30.186H129.608L126.62 21.6333L123.632 30.186ZM138.387 37.875V17.2578H144.476C146.298 17.2578 147.912 17.6637 149.319 18.4756C150.735 19.2874 151.83 20.4391 152.604 21.9307C153.378 23.4222 153.765 25.1309 153.765 27.0566V28.0903C153.765 30.0444 153.373 31.7625 152.59 33.2446C151.816 34.7267 150.707 35.869 149.262 36.6714C147.827 37.4738 146.18 37.875 144.32 37.875H138.387ZM141.97 20.1465V35.0146H144.306C146.185 35.0146 147.624 34.4294 148.625 33.2588C149.635 32.0788 150.15 30.389 150.168 28.1895V27.0425C150.168 24.8052 149.682 23.0965 148.71 21.9165C147.738 20.7365 146.326 20.1465 144.476 20.1465H141.97ZM157.333 37.875V17.2578H163.422C165.244 17.2578 166.859 17.6637 168.265 18.4756C169.681 19.2874 170.776 20.4391 171.55 21.9307C172.324 23.4222 172.711 25.1309 172.711 27.0566V28.0903C172.711 30.0444 172.32 31.7625 171.536 33.2446C170.762 34.7267 169.653 35.869 168.208 36.6714C166.774 37.4738 165.126 37.875 163.267 37.875H157.333ZM160.916 20.1465V35.0146H163.252C165.131 35.0146 166.571 34.4294 167.571 33.2588C168.581 32.0788 169.096 30.389 169.115 28.1895V27.0425C169.115 24.8052 168.629 23.0965 167.656 21.9165C166.684 20.7365 165.273 20.1465 163.422 20.1465H160.916ZM182.383 27.0283L187.126 17.2578H191.091L184.181 30.2852V37.875H180.584V30.2852L173.66 17.2578H177.639L182.383 27.0283ZM191.856 34.25C192.498 34.25 192.993 34.4341 193.343 34.8022C193.692 35.161 193.867 35.6141 193.867 36.1616C193.867 36.6997 193.692 37.1481 193.343 37.5068C192.993 37.8561 192.498 38.0308 191.856 38.0308C191.242 38.0308 190.756 37.8561 190.397 37.5068C190.039 37.1576 189.859 36.7091 189.859 36.1616C189.859 35.6141 190.034 35.161 190.383 34.8022C190.733 34.4341 191.223 34.25 191.856 34.25ZM213.875 31.1631C213.667 33.3626 212.855 35.0807 211.439 36.3174C210.023 37.5446 208.14 38.1582 205.79 38.1582C204.147 38.1582 202.698 37.7712 201.442 36.9971C200.196 36.2135 199.233 35.1043 198.554 33.6694C197.874 32.2345 197.52 30.5684 197.492 28.6709V26.7451C197.492 24.8005 197.836 23.0871 198.525 21.605C199.215 20.1229 200.201 18.9806 201.485 18.1782C202.778 17.3758 204.27 16.9746 205.959 16.9746C208.235 16.9746 210.066 17.5929 211.454 18.8296C212.841 20.0662 213.648 21.8127 213.875 24.0688H210.307C210.137 22.5868 209.702 21.52 209.004 20.8687C208.315 20.2078 207.3 19.8774 205.959 19.8774C204.402 19.8774 203.203 20.4486 202.363 21.5908C201.532 22.7236 201.107 24.3898 201.088 26.5894V28.416C201.088 30.6439 201.485 32.3431 202.278 33.5137C203.08 34.6842 204.251 35.2695 205.79 35.2695C207.196 35.2695 208.253 34.9533 208.961 34.3208C209.669 33.6883 210.118 32.6357 210.307 31.1631H213.875ZM233.543 28.1045C233.543 30.1247 233.194 31.8994 232.496 33.4287C231.797 34.9486 230.796 36.1191 229.494 36.9404C228.2 37.7523 226.709 38.1582 225.019 38.1582C223.348 38.1582 221.857 37.7523 220.544 36.9404C219.242 36.1191 218.232 34.9533 217.514 33.4429C216.806 31.9325 216.447 30.1908 216.438 28.2178V27.0566C216.438 25.0459 216.792 23.2712 217.5 21.7324C218.217 20.1937 219.223 19.0184 220.516 18.2065C221.819 17.3853 223.31 16.9746 224.991 16.9746C226.671 16.9746 228.158 17.3805 229.451 18.1924C230.754 18.9948 231.759 20.1559 232.467 21.6758C233.175 23.1862 233.534 24.9468 233.543 26.9575V28.1045ZM229.961 27.0283C229.961 24.7438 229.527 22.9927 228.658 21.7749C227.799 20.5571 226.577 19.9482 224.991 19.9482C223.443 19.9482 222.229 20.5571 221.352 21.7749C220.483 22.9832 220.039 24.6966 220.021 26.915V28.1045C220.021 30.3701 220.459 32.1213 221.337 33.3579C222.225 34.5946 223.452 35.2129 225.019 35.2129C226.605 35.2129 227.823 34.6087 228.672 33.4004C229.531 32.1921 229.961 30.4268 229.961 28.1045V27.0283ZM241.756 17.2578L247.704 33.0605L253.637 17.2578H258.267V37.875H254.699V31.0781L255.053 21.9873L248.964 37.875H246.401L240.326 22.0015L240.68 31.0781V37.875H237.112V17.2578H241.756Z" fill="#424242"/>
<path d="M72.5566 65.1899C72.5566 64.2837 72.2357 63.5851 71.5938 63.0942C70.9613 62.6034 69.8143 62.1077 68.1528 61.6074C66.4914 61.1071 65.1698 60.5501 64.188 59.9365C62.3094 58.7565 61.3701 57.2178 61.3701 55.3203C61.3701 53.6589 62.0451 52.29 63.395 51.2139C64.7544 50.1377 66.515 49.5996 68.6768 49.5996C70.1117 49.5996 71.3908 49.8639 72.5142 50.3926C73.6375 50.9212 74.5202 51.6764 75.1621 52.6582C75.804 53.6305 76.125 54.7114 76.125 55.9009H72.5566C72.5566 54.8247 72.2168 53.9845 71.5371 53.3804C70.8669 52.7668 69.904 52.46 68.6484 52.46C67.4779 52.46 66.5669 52.7101 65.9155 53.2104C65.2736 53.7108 64.9526 54.4093 64.9526 55.3062C64.9526 56.0614 65.3019 56.6938 66.0005 57.2036C66.6991 57.7039 67.8507 58.1948 69.4556 58.6763C71.0604 59.1483 72.349 59.6911 73.3213 60.3047C74.2936 60.9089 75.0063 61.6074 75.4595 62.4004C75.9126 63.1839 76.1392 64.1043 76.1392 65.1616C76.1392 66.8797 75.4784 68.2485 74.1567 69.2681C72.8446 70.2782 71.0604 70.7832 68.8042 70.7832C67.3127 70.7832 65.9391 70.5094 64.6836 69.9619C63.4375 69.4049 62.4652 68.6403 61.7666 67.668C61.0775 66.6956 60.7329 65.5628 60.7329 64.2695H64.3154C64.3154 65.4401 64.7025 66.3464 65.4766 66.9883C66.2507 67.6302 67.3599 67.9512 68.8042 67.9512C70.0503 67.9512 70.9849 67.701 71.6079 67.2007C72.2404 66.6909 72.5566 66.0207 72.5566 65.1899ZM83.0635 70.5H79.4951V49.8828H83.0635V70.5ZM101.939 52.7715H95.5103V70.5H91.9561V52.7715H85.584V49.8828H101.939V52.7715ZM116.708 61.2959H108.24V67.6396H118.138V70.5H104.658V49.8828H118.039V52.7715H108.24V58.4639H116.708V61.2959ZM139.053 65.1899C139.053 64.2837 138.732 63.5851 138.09 63.0942C137.457 62.6034 136.31 62.1077 134.649 61.6074C132.987 61.1071 131.666 60.5501 130.684 59.9365C128.806 58.7565 127.866 57.2178 127.866 55.3203C127.866 53.6589 128.541 52.29 129.891 51.2139C131.25 50.1377 133.011 49.5996 135.173 49.5996C136.608 49.5996 137.887 49.8639 139.01 50.3926C140.134 50.9212 141.016 51.6764 141.658 52.6582C142.3 53.6305 142.621 54.7114 142.621 55.9009H139.053C139.053 54.8247 138.713 53.9845 138.033 53.3804C137.363 52.7668 136.4 52.46 135.145 52.46C133.974 52.46 133.063 52.7101 132.412 53.2104C131.77 53.7108 131.449 54.4093 131.449 55.3062C131.449 56.0614 131.798 56.6938 132.497 57.2036C133.195 57.7039 134.347 58.1948 135.952 58.6763C137.556 59.1483 138.845 59.6911 139.817 60.3047C140.79 60.9089 141.502 61.6074 141.956 62.4004C142.409 63.1839 142.635 64.1043 142.635 65.1616C142.635 66.8797 141.974 68.2485 140.653 69.2681C139.341 70.2782 137.556 70.7832 135.3 70.7832C133.809 70.7832 132.435 70.5094 131.18 69.9619C129.934 69.4049 128.961 68.6403 128.263 67.668C127.574 66.6956 127.229 65.5628 127.229 64.2695H130.812C130.812 65.4401 131.199 66.3464 131.973 66.9883C132.747 67.6302 133.856 67.9512 135.3 67.9512C136.546 67.9512 137.481 67.701 138.104 67.2007C138.736 66.6909 139.053 66.0207 139.053 65.1899ZM157.829 61.2959H149.361V67.6396H159.259V70.5H145.779V49.8828H159.16V52.7715H149.361V58.4639H157.829V61.2959ZM177.908 63.7881C177.701 65.9876 176.889 67.7057 175.473 68.9424C174.057 70.1696 172.173 70.7832 169.823 70.7832C168.18 70.7832 166.731 70.3962 165.476 69.6221C164.229 68.8385 163.267 67.7293 162.587 66.2944C161.907 64.8595 161.553 63.1934 161.525 61.2959V59.3701C161.525 57.4255 161.869 55.7121 162.559 54.23C163.248 52.7479 164.234 51.6056 165.518 50.8032C166.811 50.0008 168.303 49.5996 169.993 49.5996C172.268 49.5996 174.099 50.2179 175.487 51.4546C176.875 52.6912 177.682 54.4377 177.908 56.6938H174.34C174.17 55.2118 173.736 54.145 173.037 53.4937C172.348 52.8328 171.333 52.5024 169.993 52.5024C168.435 52.5024 167.236 53.0736 166.396 54.2158C165.565 55.3486 165.14 57.0148 165.122 59.2144V61.041C165.122 63.2689 165.518 64.9681 166.311 66.1387C167.113 67.3092 168.284 67.8945 169.823 67.8945C171.229 67.8945 172.287 67.5783 172.995 66.9458C173.703 66.3133 174.151 65.2607 174.34 63.7881H177.908ZM196.203 49.8828V63.6606C196.203 65.8507 195.5 67.5877 194.093 68.8716C192.696 70.146 190.832 70.7832 188.5 70.7832C186.14 70.7832 184.266 70.1554 182.878 68.8999C181.491 67.6349 180.797 65.8838 180.797 63.6465V49.8828H184.365V63.6748C184.365 65.0531 184.715 66.1056 185.413 66.8325C186.112 67.5594 187.141 67.9229 188.5 67.9229C191.257 67.9229 192.635 66.4691 192.635 63.5615V49.8828H196.203ZM207.616 62.5562H203.623V70.5H200.041V49.8828H207.291C209.669 49.8828 211.506 50.4162 212.799 51.4829C214.092 52.5496 214.739 54.0931 214.739 56.1133C214.739 57.4915 214.404 58.6479 213.733 59.5825C213.073 60.5076 212.147 61.2204 210.958 61.7207L215.588 70.3159V70.5H211.751L207.616 62.5562ZM203.623 59.6816H207.305C208.513 59.6816 209.457 59.3796 210.137 58.7754C210.816 58.1618 211.156 57.3263 211.156 56.269C211.156 55.1646 210.84 54.3102 210.208 53.7061C209.584 53.1019 208.65 52.7904 207.404 52.7715H203.623V59.6816ZM221.918 70.5H218.35V49.8828H221.918V70.5ZM240.793 52.7715H234.365V70.5H230.811V52.7715H224.438V49.8828H240.793V52.7715ZM250.465 59.6533L255.208 49.8828H259.173L252.263 62.9102V70.5H248.667V62.9102L241.742 49.8828H245.721L250.465 59.6533Z" fill="#424242"/>
<path d="M24.064 117.909L35.2524 88.6016H44.3535L26.6802 129.125H18.3584L13.4321 88.6016H22.0879L24.064 117.909ZM64.9214 111.591H52.564L50.6992 122.334H65.3389L64.1421 129.125H41.5425L48.5562 88.6016H71.1279L69.9312 95.4204H55.375L53.7051 104.995H66.0903L64.9214 111.591ZM83.6245 114.318H79.561L77.0005 129.125H69.0127L76.0264 88.6016L88.2725 88.6294C91.8906 88.7407 94.6646 89.854 96.5942 91.9692C98.5239 94.0845 99.3403 96.9697 99.0435 100.625C98.5796 106.173 96.0562 110.032 91.4731 112.203L95.5366 128.68V129.125H86.9644L83.6245 114.318ZM80.73 107.5L84.9326 107.555C86.8623 107.518 88.3838 106.757 89.4971 105.273C90.6104 103.77 91.1577 101.785 91.1392 99.3169C91.0649 96.8862 89.998 95.5967 87.9385 95.4482L82.8452 95.4204L80.73 107.5ZM108.2 129.125H100.212L107.254 88.6016H115.242L108.2 129.125ZM138.314 112.593H125.985L123.118 129.125H115.13L122.144 88.6016H143.964L142.768 95.4204H128.963L127.154 105.802H139.511L138.314 112.593ZM150.06 129.125H142.072L149.113 88.6016H157.101L150.06 129.125ZM180.369 111.591H168.011L166.146 122.334H180.786L179.589 129.125H156.99L164.003 88.6016H186.575L185.378 95.4204H170.822L169.152 104.995H181.538L180.369 111.591ZM184.432 129.125L191.446 88.6016L201.438 88.6294C204.388 88.7036 206.874 89.4736 208.896 90.9395C210.938 92.4053 212.394 94.437 213.266 97.0347C214.157 99.6323 214.398 102.536 213.99 105.746L213.099 111.674C212.283 117.129 210.307 121.397 207.171 124.477C204.054 127.557 200.129 129.106 195.398 129.125H184.432ZM198.265 95.4204L193.589 122.334L195.565 122.39C198.33 122.39 200.473 121.592 201.994 119.996C203.516 118.382 204.536 115.793 205.056 112.231L206.002 105.663C206.262 103.529 206.364 101.97 206.308 100.987C206.215 99.1313 205.742 97.7583 204.889 96.8677C204.035 95.9771 202.773 95.5039 201.104 95.4482L198.265 95.4204Z" fill="#424242"/>
<path d="M9.13861 167.254C9.24245 165.891 9.70325 164.613 10.521 163.418C11.3387 162.224 12.6497 161.004 14.454 159.758C13.9478 158.473 13.5908 157.363 13.3831 156.429C13.1754 155.481 13.104 154.553 13.1689 153.644C13.3377 151.373 14.1035 149.517 15.4664 148.076C16.8423 146.635 18.5362 145.941 20.5482 145.992C22.2486 146.044 23.6245 146.693 24.6758 147.94C25.7272 149.186 26.201 150.698 26.0972 152.476C25.9544 154.994 24.6434 157.162 22.1642 158.979L20.4119 160.264L23.0209 165.171C23.7478 163.704 24.2086 162.257 24.4033 160.829L28.8814 160.809C28.5699 164.431 27.4666 167.397 25.5715 169.707L28.2 174.75H22.4368L21.7164 173.309C19.7953 174.568 17.8548 175.172 15.8948 175.12C13.7271 175.068 12.0202 174.309 10.7741 172.842C9.52802 171.375 8.98285 169.513 9.13861 167.254ZM16.4984 170.564C17.2772 170.603 18.2896 170.265 19.5357 169.551L16.401 163.224L16.1868 163.379C15.6027 164.171 15.1874 164.937 14.9407 165.677C14.6941 166.417 14.5968 167.209 14.6487 168.052C14.6746 168.766 14.8499 169.363 15.1744 169.844C15.4989 170.311 15.9402 170.551 16.4984 170.564ZM17.8029 153.508C17.699 154.378 17.9327 155.462 18.5038 156.76L19.5357 156.059C20.7299 155.176 21.3854 154.099 21.5022 152.827C21.5411 152.152 21.4373 151.606 21.1907 151.191C20.9441 150.776 20.5806 150.568 20.1003 150.568C19.5162 150.568 19.0165 150.841 18.6011 151.386C18.1858 151.931 17.9197 152.638 17.8029 153.508ZM53.2386 167.157C53.3684 166.196 53.2257 165.398 52.8103 164.762C52.4079 164.113 51.5577 163.483 50.2597 162.873C48.9747 162.25 47.8973 161.608 47.0276 160.946C44.6523 159.141 43.562 156.863 43.7567 154.112C43.8735 152.528 44.3667 151.12 45.2364 149.887C46.119 148.64 47.2937 147.673 48.7605 146.985C50.2273 146.298 51.7979 145.973 53.4723 146.012C55.8996 146.064 57.7947 146.908 59.1576 148.543C60.5335 150.166 61.1695 152.249 61.0657 154.793L55.4972 154.774C55.64 152.113 54.7898 150.763 52.9466 150.724C51.999 150.698 51.1813 151.009 50.4933 151.658C49.8184 152.294 49.4095 153.119 49.2667 154.131C49.072 155.65 50.1234 156.948 52.4209 158.025C54.7184 159.102 56.3669 160.316 57.3663 161.666C58.4826 163.159 58.9564 164.976 58.7877 167.118C58.593 169.584 57.6194 171.557 55.8671 173.037C54.1148 174.503 51.9277 175.211 49.3057 175.159C46.6707 175.107 44.5874 174.211 43.0557 172.472C41.5241 170.733 40.8231 168.507 40.9529 165.794L46.5604 165.813C46.4565 167.488 46.6707 168.688 47.2029 169.415C47.748 170.129 48.5982 170.486 49.7535 170.486C50.7659 170.473 51.5642 170.162 52.1483 169.551C52.7324 168.928 53.0959 168.13 53.2386 167.157ZM77.6348 162.484H68.9901L67.6855 169.999H77.9269L77.0897 174.75H61.2798L66.1863 146.401H81.9767L81.1395 151.172H70.9565L69.7883 157.869H78.4526L77.6348 162.484ZM100.59 165.287C100.24 168.364 99.104 170.798 97.1829 172.589C95.2748 174.367 92.854 175.217 89.9205 175.139C87.4024 175.087 85.4554 174.257 84.0795 172.647C82.7036 171.038 81.9767 168.805 81.8988 165.949C81.8728 164.976 81.9248 163.996 82.0546 163.009L82.775 158.317C83.385 154.306 84.7025 151.236 86.7274 149.108C88.7653 146.979 91.2899 145.947 94.3013 146.012C96.9363 146.051 98.9612 146.927 100.376 148.64C101.791 150.341 102.498 152.814 102.498 156.059L96.8714 156.039L96.9103 154.112C96.8714 151.931 95.8525 150.808 93.8535 150.743C92.3089 150.691 91.0887 151.256 90.1931 152.437C89.2975 153.605 88.6939 155.507 88.3824 158.142L87.6815 163.029C87.4997 164.587 87.4024 165.605 87.3894 166.086C87.2596 168.889 88.2461 170.337 90.3489 170.428C91.6599 170.493 92.7048 170.149 93.4836 169.396C94.2624 168.63 94.8076 167.273 95.1191 165.326L100.59 165.287ZM125.843 146.401L122.533 165.872C122.131 168.818 121.034 171.116 119.243 172.764C117.451 174.413 115.102 175.211 112.194 175.159C109.469 175.107 107.405 174.25 106.003 172.589C104.601 170.927 104.062 168.688 104.387 165.872L107.697 146.401H113.304L110.033 165.891L109.955 167.565C109.955 169.383 110.858 170.324 112.662 170.389C113.908 170.428 114.881 170.097 115.582 169.396C116.283 168.695 116.744 167.527 116.965 165.891L120.255 146.401H125.843ZM135.306 164.392H132.463L130.672 174.75H125.084L129.99 146.401L138.557 146.421C141.088 146.499 143.029 147.278 144.379 148.757C145.729 150.237 146.3 152.255 146.092 154.812C145.768 158.694 144.002 161.393 140.796 162.912L143.639 174.438V174.75H137.642L135.306 164.392ZM133.281 159.622L136.221 159.661C137.571 159.635 138.635 159.102 139.414 158.064C140.193 157.013 140.576 155.624 140.563 153.897C140.511 152.197 139.764 151.295 138.323 151.191L134.76 151.172L133.281 159.622ZM163.031 162.484H154.386L153.082 169.999H163.323L162.486 174.75H146.676L151.583 146.401H167.373L166.536 151.172H156.353L155.185 157.869H163.849L163.031 162.484Z" fill="#424242"/>
<path fill-rule="evenodd" clip-rule="evenodd" d="M25.375 14.5H36.25C38.252 14.5 39.875 16.123 39.875 18.125V32.625H21.75V18.125C21.75 16.123 23.373 14.5 25.375 14.5ZM18.125 32.625V18.125C18.125 14.1209 21.3709 10.875 25.375 10.875H36.25C40.2541 10.875 43.5 14.1209 43.5 18.125V32.625H47.125C49.127 32.625 50.75 34.248 50.75 36.25V65.25C50.75 67.252 49.127 68.875 47.125 68.875H14.5C12.498 68.875 10.875 67.252 10.875 65.25V36.25C10.875 34.248 12.498 32.625 14.5 32.625H18.125ZM32.625 50.4406C34.7369 49.6941 36.25 47.68 36.25 45.3125C36.25 42.3095 33.8155 39.875 30.8125 39.875C27.8095 39.875 25.375 42.3095 25.375 45.3125C25.375 47.68 26.8881 49.6941 29 50.4406V58H32.625V50.4406Z" fill="#424242"/>
<g filter="url(#filter1_d)">
<path d="M116 252.196V225.613C116 225.613 98.2496 223.624 88.5263 219.917C78.803 216.209 66.2039 206.625 66.2039 206.625C66.2039 206.625 53.2696 216.209 43.8816 219.917C34.4936 223.624 18.125 225.613 18.125 225.613V252.196C18.125 271.185 21.0309 282.577 28.4276 293.97C35.8244 305.363 66.2039 326.25 66.2039 326.25C66.2039 326.25 95.0425 307.262 103.98 293.97C112.918 280.679 116 269.286 116 252.196Z" fill="#52D300" stroke="#338100" stroke-width="7.25"/>
<path d="M36.25 259.188L58.1169 279.125L97.875 242.875" stroke="white" stroke-width="10.875"/>
</g>
</g>
<defs>
<filter id="filter0_d" x="-14.5" y="0" width="389.688" height="389.688" filterUnits="userSpaceOnUse" color-interpolation-filters="sRGB">
<feFlood flood-opacity="0" result="BackgroundImageFix"/>
<feColorMatrix in="SourceAlpha" type="matrix" values="0 0 0 0 0 0 0 0 0 0 0 0 0 0 0 0 0 0 127 0"/>
<feOffset dy="14.5"/>
<feGaussianBlur stdDeviation="7.25"/>
<feColorMatrix type="matrix" values="0 0 0 0 0 0 0 0 0 0 0 0 0 0 0 0 0 0 0.25 0"/>
<feBlend mode="normal" in2="BackgroundImageFix" result="effect1_dropShadow"/>
<feBlend mode="normal" in="SourceGraphic" in2="effect1_dropShadow" result="shape"/>
</filter>
<filter id="filter1_d" x="0" y="202.092" width="134.125" height="157.527" filterUnits="userSpaceOnUse" color-interpolation-filters="sRGB">
<feFlood flood-opacity="0" result="BackgroundImageFix"/>
<feColorMatrix in="SourceAlpha" type="matrix" values="0 0 0 0 0 0 0 0 0 0 0 0 0 0 0 0 0 0 127 0"/>
<feOffset dy="14.5"/>
<feGaussianBlur stdDeviation="7.25"/>
<feColorMatrix type="matrix" values="0 0 0 0 0 0 0 0 0 0 0 0 0 0 0 0 0 0 0.25 0"/>
<feBlend mode="normal" in2="BackgroundImageFix" result="effect1_dropShadow"/>
<feBlend mode="normal" in="SourceGraphic" in2="effect1_dropShadow" result="shape"/>
</filter>
<linearGradient id="paint0_linear" x1="180.344" y1="-5.37466e-06" x2="-5.86e-06" y2="349.812" gradientUnits="userSpaceOnUse">
<stop stop-color="#81C500"/>
<stop offset="0.383536" stop-color="#9DE317"/>
<stop offset="0.956314" stop-color="#81C500"/>
</linearGradient>
</defs>
</svg>
