<svg width="183" height="119" viewBox="0 0 183 119" fill="none" xmlns="http://www.w3.org/2000/svg">
    <rect width="183" height="119" rx="13" fill="white"/>
    <path d="M0 13C0 5.8203 5.8203 0 13 0H170C177.18 0 183 5.8203 183 13V25H0V13Z" fill="#1E5C99"/>
    <path d="M183 106C183 113.18 177.18 119 170 119L13 119C5.8203 119 5.08827e-07 113.18 1.1365e-06 106L2.18557e-06 94L183 94L183 106Z" fill="#E6A839"/>
    <path d="M28 36.8018H37.5934L42.3611 69.9432L58.5537 36.8018H68.932L46.8671 81.1388H34.8608L28 36.8018Z" fill="#105EA6"/>
    <path d="M74.1357 36.8018H84.1943L76.5777 81.1388H66.5191L74.1357 36.8018Z" fill="#105EA6"/>
    <path d="M120.969 38.1975L119.341 47.5817C117.364 46.473 115.417 45.6514 113.498 45.1169C111.579 44.5625 109.709 44.2853 107.887 44.2853C105.368 44.2853 103.401 44.7308 101.986 45.6217C100.59 46.5126 99.8927 47.7499 99.8927 49.3338C99.8927 50.3434 100.203 51.1354 100.823 51.7095C101.443 52.2638 102.722 52.8083 104.66 53.3428L108.788 54.501C112.258 55.4909 114.796 56.9262 116.405 58.807C118.014 60.668 118.818 63.0833 118.818 66.0529C118.818 70.8638 117.209 74.7243 113.992 77.6346C110.775 80.5449 106.453 82 101.026 82C98.507 82 95.9875 81.7327 93.468 81.1982C90.9679 80.6637 88.5259 79.8717 86.1421 78.8225L87.741 69.1711C90.0473 70.6955 92.2954 71.8339 94.4855 72.5862C96.6755 73.3385 98.8364 73.7147 100.968 73.7147C103.275 73.7147 105.145 73.1801 106.579 72.111C108.033 71.042 108.759 69.6759 108.759 68.0129C108.759 66.924 108.43 66.0826 107.771 65.4887C107.131 64.875 105.717 64.2513 103.527 63.6178L99.4275 62.4597C96.3848 61.6084 94.1269 60.2621 92.654 58.4209C91.1811 56.5797 90.4446 54.1941 90.4446 51.264C90.4446 46.6512 91.995 42.9589 95.096 40.1872C98.2162 37.3957 102.412 36 107.684 36C109.796 36 111.957 36.1881 114.167 36.5642C116.395 36.9206 118.663 37.465 120.969 38.1975Z" fill="#105EA6"/>
    <path d="M150.273 73.0613H134.691L130.824 81.1388H120.475L142.569 36.8018H154.081L161 81.1388H151.407L150.273 73.0613ZM138.499 65.0136H148.965L146.61 47.938L138.499 65.0136Z" fill="#105EA6"/>
    <path d="M31.58 35.1438L20.067 36.1074C33.1533 37.4573 38.2347 43.5161 39.9232 53.0846C39.5948 50.0741 38.3356 39.9784 37.9349 37.1441C37.5343 34.3099 32.288 35.1499 31.58 35.1438Z" fill="#F4A637"/>
    <path d="M166.435 42.291C166.531 42.3268 166.623 42.4033 166.713 42.5205C166.802 42.6377 166.893 42.7988 166.984 43.0039L167.436 44H166.957L166.537 43.0649C166.43 42.8208 166.325 42.6589 166.222 42.5791C166.121 42.4993 165.983 42.4595 165.807 42.4595H165.324V44H164.879V40.355H165.88C166.256 40.355 166.536 40.4421 166.72 40.6162C166.904 40.7904 166.996 41.0532 166.996 41.4048C166.996 41.6343 166.948 41.8247 166.852 41.9761C166.758 42.1274 166.618 42.2324 166.435 42.291ZM165.324 40.7603V42.0542H165.88C166.095 42.0542 166.257 41.9997 166.366 41.8906C166.475 41.7799 166.53 41.618 166.53 41.4048C166.53 41.1916 166.475 41.0312 166.366 40.9238C166.257 40.8148 166.095 40.7603 165.88 40.7603H165.324Z" fill="#105EA6"/>
    <circle cx="166" cy="42" r="2.75" stroke="#105EA6" stroke-width="0.5"/>
</svg>